AcariSans-LightItalic.ufo
<glyph name="dollar" format="2">
  <advance width="1103"/>
  <unicode hex="0024"/>
  <outline>
    <contour>
      <point x="425" y="-244" type="line"/>
      <point x="340" y="-244" type="line"/>
      <point x="398" y="-12" type="line"/>
      <point x="324" y="-5"/>
      <point x="201" y="49"/>
      <point x="113" y="137"/>
      <point x="64" y="257"/>
      <point x="64" y="331" type="qcurve" smooth="yes"/>
      <point x="64" y="342"/>
      <point x="64" y="359"/>
      <point x="65" y="364" type="qcurve"/>
      <point x="107" y="372"/>
      <point x="173" y="384"/>
      <point x="200" y="389" type="qcurve"/>
      <point x="197" y="368"/>
      <point x="197" y="346" type="qcurve" smooth="yes"/>
      <point x="197" y="290"/>
      <point x="236" y="203"/>
      <point x="307" y="144"/>
      <point x="408" y="113"/>
      <point x="471" y="113" type="qcurve" smooth="yes"/>
      <point x="538" y="113"/>
      <point x="657" y="147"/>
      <point x="753" y="215"/>
      <point x="821" y="316"/>
      <point x="837" y="384" type="qcurve" smooth="yes"/>
      <point x="841" y="400"/>
      <point x="844" y="429"/>
      <point x="844" y="442" type="qcurve" smooth="yes"/>
      <point x="844" y="557"/>
      <point x="721" y="631" type="qcurve" smooth="yes"/>
      <point x="697" y="645"/>
      <point x="621" y="686"/>
      <point x="567" y="713" type="qcurve" smooth="yes"/>
      <point x="504" y="744"/>
      <point x="409" y="804"/>
      <point x="345" y="871"/>
      <point x="312" y="950"/>
      <point x="312" y="1000" type="qcurve" smooth="yes"/>
      <point x="312" y="1074"/>
      <point x="374" y="1214"/>
      <point x="483" y="1327"/>
      <point x="631" y="1403"/>
      <point x="717" y="1413" type="qcurve"/>
      <point x="776" y="1640" type="line"/>
      <point x="860" y="1640" type="line"/>
      <point x="801" y="1414" type="line"/>
      <point x="914" y="1406"/>
      <point x="1064" y="1297"/>
      <point x="1097" y="1193" type="qcurve"/>
      <point x="983" y="1134" type="line"/>
      <point x="958" y="1215"/>
      <point x="835" y="1296"/>
      <point x="754" y="1296" type="qcurve" smooth="yes"/>
      <point x="697" y="1296"/>
      <point x="587" y="1251"/>
      <point x="502" y="1175"/>
      <point x="450" y="1073"/>
      <point x="450" y="1015" type="qcurve" smooth="yes"/>
      <point x="450" y="964"/>
      <point x="499" y="895"/>
      <point x="599" y="829"/>
      <point x="748" y="750"/>
      <point x="849" y="689" type="qcurve"/>
      <point x="917" y="645"/>
      <point x="979" y="533"/>
      <point x="979" y="458" type="qcurve" smooth="yes"/>
      <point x="979" y="388"/>
      <point x="938" y="264"/>
      <point x="868" y="161"/>
      <point x="772" y="78"/>
      <point x="662" y="19"/>
      <point x="543" y="-13"/>
      <point x="484" y="-15" type="qcurve"/>
    </contour>
  </outline>
</glyph>
<glyph name="quotesingle" format="2">
  <advance width="606"/>
  <unicode hex="0027"/>
  <outline>
    <contour>
      <point x="484" y="1026" type="line"/>
      <point x="368" y="1026" type="line"/>
      <point x="460" y="1425" type="line"/>
      <point x="576" y="1425" type="line"/>
    </contour>
  </outline>
</glyph>
<glyph name="plus" format="2">
  <advance width="1267"/>
  <unicode hex="002B"/>
  <outline>
    <contour>
      <point x="681" y="105" type="line"/>
      <point x="585" y="105" type="line"/>
      <point x="585" y="571" type="line"/>
      <point x="133" y="571" type="line"/>
      <point x="133" y="666" type="line"/>
      <point x="585" y="666" type="line"/>
      <point x="585" y="1129" type="line"/>
      <point x="681" y="1129" type="line"/>
      <point x="681" y="666" type="line"/>
      <point x="1133" y="666" type="line"/>
      <point x="1133" y="571" type="line"/>
      <point x="681" y="571" type="line"/>
    </contour>
  </outline>
</glyph>
<glyph name="comma" format="2">
  <advance width="623"/>
  <unicode hex="002C"/>
  <outline>
    <contour>
      <point x="106" y="-223" type="line"/>
      <point x="29" y="-223" type="line"/>
      <point x="241" y="258" type="line"/>
      <point x="414" y="258" type="line"/>
    </contour>
  </outline>
</glyph>
<glyph name="hyphen" format="2">
  <advance width="825"/>
  <unicode hex="002D"/>
  <outline>
    <contour>
      <point x="690" y="633" type="line"/>
      <point x="198" y="633" type="line"/>
      <point x="221" y="728" type="line"/>
      <point x="712" y="728" type="line"/>
    </contour>
  </outline>
</glyph>
<glyph name="one" format="2">
  <advance width="1200"/>
  <unicode hex="0031"/>
  <outline>
    <contour>
      <point x="609" y="0" type="line"/>
      <point x="475" y="0" type="line"/>
      <point x="724" y="1084" type="line"/>
      <point x="372" y="1084" type="line"/>
      <point x="397" y="1194" type="line"/>
      <point x="581" y="1194" type="line" smooth="yes"/>
      <point x="623" y="1194"/>
      <point x="696" y="1221"/>
      <point x="755" y="1269"/>
      <point x="796" y="1336"/>
      <point x="806" y="1377" type="qcurve"/>
      <point x="810" y="1396" type="line"/>
      <point x="931" y="1396" type="line"/>
    </contour>
  </outline>
</glyph>
<glyph name="two" format="2">
  <advance width="1200"/>
  <unicode hex="0032"/>
  <outline>
    <contour>
      <point x="929" y="0" type="line"/>
      <point x="-16" y="0" type="line"/>
      <point x="11" y="128" type="line"/>
      <point x="109" y="182"/>
      <point x="264" y="279"/>
      <point x="393" y="369"/>
      <point x="503" y="458"/>
      <point x="556" y="505" type="qcurve"/>
      <point x="642" y="577"/>
      <point x="778" y="706"/>
      <point x="878" y="831"/>
      <point x="943" y="957"/>
      <point x="958" y="1025" type="qcurve" smooth="yes"/>
      <point x="968" y="1066"/>
      <point x="968" y="1102" type="qcurve" smooth="yes"/>
      <point x="968" y="1125"/>
      <point x="964" y="1145" type="qcurve"/>
      <point x="954" y="1222"/>
      <point x="847" y="1296"/>
      <point x="769" y="1296" type="qcurve" smooth="yes"/>
      <point x="701" y="1296"/>
      <point x="582" y="1245"/>
      <point x="487" y="1153"/>
      <point x="416" y="1025"/>
      <point x="396" y="948" type="qcurve"/>
      <point x="272" y="969" type="line"/>
      <point x="319" y="1163"/>
      <point x="453" y="1288" type="qcurve"/>
      <point x="587" y="1415"/>
      <point x="779" y="1415" type="qcurve" smooth="yes"/>
      <point x="858" y="1415"/>
      <point x="981" y="1374"/>
      <point x="1065" y="1298"/>
      <point x="1108" y="1190"/>
      <point x="1108" y="1124" type="qcurve" smooth="yes"/>
      <point x="1108" y="1028"/>
      <point x="1025" y="818"/>
      <point x="945" y="719" type="qcurve" smooth="yes"/>
      <point x="888" y="650"/>
      <point x="728" y="496"/>
      <point x="625" y="411" type="qcurve" smooth="yes"/>
      <point x="553" y="353"/>
      <point x="446" y="271"/>
      <point x="355" y="209"/>
      <point x="271" y="159"/>
      <point x="223" y="132" type="qcurve" smooth="yes"/>
      <point x="213" y="127"/>
      <point x="192" y="116"/>
      <point x="181" y="109" type="qcurve"/>
      <point x="954" y="111" type="line"/>
    </contour>
  </outline>
</glyph>
<glyph name="three" format="2">
  <advance width="1200"/>
  <unicode hex="0033"/>
  <outline>
    <contour>
      <point x="446" y="-20" type="qcurve" smooth="yes"/>
      <point x="365" y="-20"/>
      <point x="222" y="18"/>
      <point x="117" y="96"/>
      <point x="61" y="209"/>
      <point x="61" y="282" type="qcurve" smooth="yes"/>
      <point x="61" y="287"/>
      <point x="61" y="292" type="qcurve"/>
      <point x="63" y="339"/>
      <point x="74" y="386" type="qcurve"/>
      <point x="96" y="388"/>
      <point x="119" y="388" type="qcurve"/>
      <point x="151" y="390" type="line" smooth="yes"/>
      <point x="174" y="391"/>
      <point x="196" y="392" type="qcurve"/>
      <point x="191" y="372"/>
      <point x="187" y="333"/>
      <point x="187" y="313" type="qcurve"/>
      <point x="188" y="261"/>
      <point x="231" y="179"/>
      <point x="305" y="123"/>
      <point x="404" y="94"/>
      <point x="461" y="94" type="qcurve" smooth="yes"/>
      <point x="524" y="94"/>
      <point x="664" y="136"/>
      <point x="784" y="222"/>
      <point x="870" y="349"/>
      <point x="880" y="435" type="qcurve"/>
      <point x="883" y="455"/>
      <point x="883" y="473" type="qcurve" smooth="yes"/>
      <point x="883" y="511"/>
      <point x="855" y="588"/>
      <point x="785" y="650"/>
      <point x="683" y="681"/>
      <point x="622" y="681" type="qcurve" smooth="yes"/>
      <point x="537" y="681" type="line"/>
      <point x="564" y="801" type="line"/>
      <point x="644" y="801" type="line" smooth="yes"/>
      <point x="696" y="801"/>
      <point x="799" y="836"/>
      <point x="885" y="906"/>
      <point x="944" y="1011"/>
      <point x="952" y="1080" type="qcurve" smooth="yes"/>
      <point x="954" y="1098"/>
      <point x="954" y="1114" type="qcurve" smooth="yes"/>
      <point x="954" y="1145"/>
      <point x="933" y="1213"/>
      <point x="876" y="1270"/>
      <point x="795" y="1300"/>
      <point x="748" y="1300" type="qcurve" smooth="yes"/>
      <point x="688" y="1300"/>
      <point x="578" y="1260"/>
      <point x="488" y="1191"/>
      <point x="424" y="1097"/>
      <point x="411" y="1043" type="qcurve"/>
      <point x="297" y="1066" type="line"/>
      <point x="317" y="1148"/>
      <point x="406" y="1278"/>
      <point x="530" y="1369"/>
      <point x="681" y="1417"/>
      <point x="763" y="1417" type="qcurve" smooth="yes"/>
      <point x="835" y="1417"/>
      <point x="958" y="1375"/>
      <point x="1045" y="1294"/>
      <point x="1082" y="1193"/>
      <point x="1082" y="1143" type="qcurve" smooth="yes"/>
      <point x="1082" y="1122"/>
      <point x="1079" y="1099" type="qcurve" smooth="yes"/>
      <point x="1066" y="989"/>
      <point x="939" y="804"/>
      <point x="827" y="748" type="qcurve"/>
      <point x="918" y="716"/>
      <point x="1004" y="584"/>
      <point x="1004" y="490" type="qcurve" smooth="yes"/>
      <point x="1004" y="365"/>
      <point x="906" y="174"/>
      <point x="748" y="45"/>
      <point x="548" y="-20"/>
    </contour>
  </outline>
</glyph>
<glyph name="four" format="2">
  <advance width="1200"/>
  <unicode hex="0034"/>
  <outline>
    <contour>
      <point x="732" y="0" type="line"/>
      <point x="599" y="0" type="line"/>
      <point x="689" y="387" type="line"/>
      <point x="43" y="387" type="line"/>
      <point x="60" y="463" type="line"/>
      <point x="929" y="1396" type="line"/>
      <point x="1054" y="1396" type="line"/>
      <point x="846" y="498" type="line"/>
      <point x="1068" y="498" type="line"/>
      <point x="1043" y="387" type="line"/>
      <point x="820" y="387" type="line"/>
    </contour>
    <contour>
      <point x="714" y="498" type="line"/>
      <point x="876" y="1194" type="line"/>
      <point x="223" y="498" type="line"/>
    </contour>
  </outline>
</glyph>
<glyph name="five" format="2">
  <advance width="1200"/>
  <unicode hex="0035"/>
  <outline>
    <contour>
      <point x="461" y="-20" type="qcurve" smooth="yes"/>
      <point x="458" y="-20"/>
      <point x="455" y="-20" type="qcurve" smooth="yes"/>
      <point x="370" y="-20"/>
      <point x="235" y="38"/>
      <point x="143" y="141"/>
      <point x="97" y="278"/>
      <point x="97" y="355" type="qcurve" smooth="yes"/>
      <point x="97" y="359"/>
      <point x="97" y="362" type="qcurve"/>
      <point x="148" y="377" type="line"/>
      <point x="223" y="397" type="line"/>
      <point x="223" y="387"/>
      <point x="223" y="377" type="qcurve" smooth="yes"/>
      <point x="223" y="308"/>
      <point x="261" y="183"/>
      <point x="311" y="142" type="qcurve" smooth="yes"/>
      <point x="367" y="95"/>
      <point x="471" y="95" type="qcurve" smooth="yes"/>
      <point x="474" y="95"/>
      <point x="477" y="95" type="qcurve" smooth="yes"/>
      <point x="538" y="95"/>
      <point x="652" y="136"/>
      <point x="751" y="208"/>
      <point x="829" y="305"/>
      <point x="880" y="415"/>
      <point x="898" y="512"/>
      <point x="898" y="550" type="qcurve" smooth="yes"/>
      <point x="898" y="570"/>
      <point x="896" y="590" type="qcurve" smooth="yes"/>
      <point x="888" y="681"/>
      <point x="768" y="790"/>
      <point x="659" y="790" type="qcurve" smooth="yes"/>
      <point x="611" y="790"/>
      <point x="517" y="768"/>
      <point x="431" y="727"/>
      <point x="355" y="669"/>
      <point x="325" y="633" type="qcurve"/>
      <point x="225" y="700" type="line"/>
      <point x="503" y="1396" type="line"/>
      <point x="1175" y="1396" type="line"/>
      <point x="1149" y="1281" type="line"/>
      <point x="580" y="1281" type="line"/>
      <point x="382" y="787" type="line"/>
      <point x="512" y="901"/>
      <point x="690" y="901" type="qcurve" smooth="yes"/>
      <point x="693" y="901"/>
      <point x="696" y="901" type="qcurve" smooth="yes"/>
      <point x="777" y="901"/>
      <point x="905" y="847"/>
      <point x="992" y="749"/>
      <point x="1032" y="625"/>
      <point x="1032" y="559" type="qcurve" smooth="yes"/>
      <point x="1032" y="550"/>
      <point x="1032" y="541" type="qcurve"/>
      <point x="1029" y="471"/>
      <point x="984" y="333"/>
      <point x="908" y="209"/>
      <point x="804" y="102"/>
      <point x="679" y="24"/>
      <point x="537" y="-20"/>
    </contour>
  </outline>
</glyph>
<glyph name="seven" format="2">
  <advance width="1200"/>
  <unicode hex="0037"/>
  <outline>
    <contour>
      <point x="316" y="0" type="line"/>
      <point x="165" y="0" type="line"/>
      <point x="1057" y="1281" type="line"/>
      <point x="299" y="1281" type="line"/>
      <point x="326" y="1396" type="line"/>
      <point x="1236" y="1396" type="line"/>
      <point x="1222" y="1331" type="line"/>
    </contour>
  </outline>
</glyph>
<glyph name="nine" format="2">
  <advance width="1200"/>
  <unicode hex="0039"/>
  <outline>
    <contour>
      <point x="438" y="0" type="line"/>
      <point x="296" y="0" type="line"/>
      <point x="728" y="532" type="line"/>
      <point x="692" y="524"/>
      <point x="619" y="516"/>
      <point x="583" y="516" type="qcurve" smooth="yes"/>
      <point x="507" y="516"/>
      <point x="389" y="549"/>
      <point x="302" y="611"/>
      <point x="244" y="697"/>
      <point x="229" y="750" type="qcurve"/>
      <point x="214" y="796"/>
      <point x="214" y="850" type="qcurve" smooth="yes"/>
      <point x="214" y="853"/>
      <point x="214" y="856" type="qcurve" smooth="yes"/>
      <point x="214" y="917"/>
      <point x="252" y="1048"/>
      <point x="323" y="1174"/>
      <point x="426" y="1285"/>
      <point x="552" y="1369"/>
      <point x="700" y="1417"/>
      <point x="781" y="1417" type="qcurve" smooth="yes"/>
      <point x="860" y="1417"/>
      <point x="991" y="1364"/>
      <point x="1086" y="1270"/>
      <point x="1139" y="1142"/>
      <point x="1140" y="1066" type="qcurve"/>
      <point x="1140" y="1061"/>
      <point x="1140" y="1057" type="qcurve" smooth="yes"/>
      <point x="1140" y="1016"/>
      <point x="1124" y="927"/>
      <point x="1091" y="837"/>
      <point x="1043" y="751"/>
      <point x="1012" y="713" type="qcurve" smooth="yes"/>
    </contour>
    <contour>
      <point x="596" y="626" type="qcurve" smooth="yes"/>
      <point x="599" y="626"/>
      <point x="601" y="626" type="qcurve" smooth="yes"/>
      <point x="668" y="626"/>
      <point x="796" y="674"/>
      <point x="905" y="764"/>
      <point x="985" y="889"/>
      <point x="1003" y="964" type="qcurve"/>
      <point x="1011" y="1004"/>
      <point x="1011" y="1038" type="qcurve" smooth="yes"/>
      <point x="1011" y="1042"/>
      <point x="1011" y="1046" type="qcurve"/>
      <point x="1010" y="1100"/>
      <point x="974" y="1192"/>
      <point x="908" y="1259"/>
      <point x="818" y="1298"/>
      <point x="763" y="1298" type="qcurve" smooth="yes"/>
      <point x="707" y="1298"/>
      <point x="602" y="1263"/>
      <point x="508" y="1200"/>
      <point x="429" y="1116"/>
      <point x="373" y="1021"/>
      <point x="343" y="921"/>
      <point x="343" y="874" type="qcurve" smooth="yes"/>
      <point x="343" y="871"/>
      <point x="343" y="868" type="qcurve" smooth="yes"/>
      <point x="343" y="813"/>
      <point x="379" y="723"/>
      <point x="445" y="660"/>
      <point x="539" y="626"/>
    </contour>
  </outline>
</glyph>
<glyph name="colon" format="2">
  <advance width="671"/>
  <unicode hex="003A"/>
  <outline>
    <contour>
      <point x="487" y="767" type="line"/>
      <point x="309" y="767" type="line"/>
      <point x="350" y="942" type="line"/>
      <point x="527" y="942" type="line"/>
    </contour>
    <contour>
      <point x="311" y="0" type="line"/>
      <point x="134" y="0" type="line"/>
      <point x="175" y="175" type="line"/>
      <point x="351" y="175" type="line"/>
    </contour>
  </outline>
</glyph>
<glyph name="at" format="2">
  <advance width="2049"/>
  <unicode hex="0040"/>
  <outline>
    <contour>
      <point x="833" y="-345" type="qcurve" smooth="yes"/>
      <point x="741" y="-345"/>
      <point x="566" y="-311"/>
      <point x="410" y="-243"/>
      <point x="279" y="-138"/>
      <point x="185" y="3"/>
      <point x="132" y="183"/>
      <point x="132" y="293" type="qcurve" smooth="yes"/>
      <point x="132" y="426"/>
      <point x="206" y="696"/>
      <point x="343" y="945"/>
      <point x="539" y="1162"/>
      <point x="785" y="1323"/>
      <point x="1076" y="1415"/>
      <point x="1238" y="1415" type="qcurve" smooth="yes"/>
      <point x="1241" y="1415"/>
      <point x="1245" y="1415" type="qcurve" smooth="yes"/>
      <point x="1400" y="1415"/>
      <point x="1654" y="1322"/>
      <point x="1835" y="1151"/>
      <point x="1933" y="910"/>
      <point x="1933" y="764" type="qcurve" smooth="yes"/>
      <point x="1933" y="669"/>
      <point x="1894" y="474"/>
      <point x="1821" y="294"/>
      <point x="1717" y="136"/>
      <point x="1586" y="19"/>
      <point x="1431" y="-48"/>
      <point x="1344" y="-48" type="qcurve" smooth="yes"/>
      <point x="1232" y="-48"/>
      <point x="1116" y="46"/>
      <point x="1116" y="125" type="qcurve" smooth="yes"/>
      <point x="1116" y="173"/>
      <point x="1143" y="239" type="qcurve"/>
      <point x="1067" y="156"/>
      <point x="882" y="70"/>
      <point x="791" y="70" type="qcurve" smooth="yes"/>
      <point x="728" y="70"/>
      <point x="637" y="108"/>
      <point x="578" y="176"/>
      <point x="549" y="270"/>
      <point x="549" y="327" type="qcurve" smooth="yes"/>
      <point x="549" y="396"/>
      <point x="596" y="558"/>
      <point x="680" y="717"/>
      <point x="795" y="862"/>
      <point x="863" y="916" type="qcurve" smooth="yes"/>
      <point x="996" y="1020"/>
      <point x="1138" y="1020" type="qcurve" smooth="yes"/>
      <point x="1181" y="1020"/>
      <point x="1256" y="999"/>
      <point x="1314" y="959"/>
      <point x="1352" y="901"/>
      <point x="1358" y="865" type="qcurve"/>
      <point x="1365" y="840"/>
      <point x="1365" y="809" type="qcurve"/>
      <point x="1434" y="971" type="line"/>
      <point x="1476" y="969"/>
      <point x="1543" y="967"/>
      <point x="1569" y="966" type="qcurve"/>
      <point x="1560" y="944"/>
      <point x="1538" y="898"/>
      <point x="1513" y="845"/>
      <point x="1484" y="782"/>
      <point x="1466" y="743" type="qcurve" smooth="yes"/>
      <point x="1415" y="633" type="line" smooth="yes"/>
      <point x="1379" y="557"/>
      <point x="1327" y="441"/>
      <point x="1289" y="347"/>
      <point x="1264" y="269"/>
      <point x="1255" y="230" type="qcurve"/>
      <point x="1247" y="200"/>
      <point x="1247" y="180" type="qcurve"/>
      <point x="1246" y="175"/>
      <point x="1246" y="169" type="qcurve" smooth="yes"/>
      <point x="1246" y="167"/>
      <point x="1247" y="156"/>
      <point x="1248" y="149" type="qcurve" smooth="yes"/>
      <point x="1252" y="116"/>
      <point x="1298" y="91"/>
      <point x="1346" y="91" type="qcurve" smooth="yes"/>
      <point x="1415" y="91"/>
      <point x="1536" y="144"/>
      <point x="1638" y="238"/>
      <point x="1718" y="370"/>
      <point x="1747" y="448" type="qcurve" smooth="yes"/>
      <point x="1776" y="526"/>
      <point x="1806" y="681"/>
      <point x="1806" y="754" type="qcurve" smooth="yes"/>
      <point x="1806" y="866"/>
      <point x="1733" y="1061"/>
      <point x="1589" y="1206"/>
      <point x="1373" y="1290"/>
      <point x="1230" y="1290" type="qcurve" smooth="yes"/>
      <point x="1058" y="1290"/>
      <point x="749" y="1169"/>
      <point x="500" y="956"/>
      <point x="323" y="667"/>
      <point x="284" y="499" type="qcurve"/>
      <point x="273" y="448"/>
      <point x="261" y="354"/>
      <point x="261" y="309" type="qcurve" smooth="yes"/>
      <point x="261" y="186"/>
      <point x="346" y="-6"/>
      <point x="500" y="-140"/>
      <point x="714" y="-210"/>
      <point x="843" y="-210" type="qcurve" smooth="yes"/>
      <point x="908" y="-210"/>
      <point x="1037" y="-190"/>
      <point x="1103" y="-170" type="qcurve"/>
      <point x="1136" y="-297" type="line"/>
      <point x="983" y="-345"/>
    </contour>
    <contour>
      <point x="819" y="205" type="qcurve" smooth="yes"/>
      <point x="895" y="205"/>
      <point x="1046" y="283"/>
      <point x="1174" y="412"/>
      <point x="1268" y="581"/>
      <point x="1288" y="672" type="qcurve" smooth="yes"/>
      <point x="1293" y="695"/>
      <point x="1299" y="733"/>
      <point x="1299" y="750" type="qcurve" smooth="yes"/>
      <point x="1299" y="816"/>
      <point x="1226" y="885"/>
      <point x="1151" y="885" type="qcurve" smooth="yes"/>
      <point x="1090" y="885"/>
      <point x="975" y="838"/>
      <point x="870" y="757"/>
      <point x="780" y="649"/>
      <point x="744" y="587" type="qcurve"/>
      <point x="709" y="523"/>
      <point x="669" y="396"/>
      <point x="669" y="342" type="qcurve" smooth="yes"/>
      <point x="669" y="205"/>
    </contour>
  </outline>
</glyph>
<glyph name="D" format="2">
  <advance width="1399"/>
  <unicode hex="0044"/>
  <outline>
    <contour>
      <point x="455" y="0" type="qcurve" smooth="yes"/>
      <point x="108" y="0" type="line"/>
      <point x="188" y="351"/>
      <point x="348" y="1044"/>
      <point x="430" y="1396" type="qcurve"/>
      <point x="725" y="1396" type="line" smooth="yes"/>
      <point x="1026" y="1396"/>
      <point x="1337" y="1158"/>
      <point x="1337" y="905" type="qcurve" smooth="yes"/>
      <point x="1337" y="827"/>
      <point x="1307" y="661"/>
      <point x="1254" y="502"/>
      <point x="1180" y="357"/>
      <point x="1137" y="302" type="qcurve" smooth="yes"/>
      <point x="1019" y="149"/>
      <point x="677" y="0"/>
    </contour>
    <contour>
      <point x="450" y="123" type="line" smooth="yes"/>
      <point x="575" y="123"/>
      <point x="809" y="195"/>
      <point x="1002" y="341"/>
      <point x="1146" y="562"/>
      <point x="1181" y="711" type="qcurve"/>
      <point x="1204" y="814"/>
      <point x="1204" y="895" type="qcurve" smooth="yes"/>
      <point x="1204" y="1084"/>
      <point x="974" y="1277"/>
      <point x="748" y="1277" type="qcurve" smooth="yes"/>
      <point x="539" y="1277" type="line"/>
      <point x="272" y="123" type="line"/>
    </contour>
  </outline>
</glyph>
<glyph name="J" format="2">
  <advance width="1114"/>
  <unicode hex="004A"/>
  <outline>
    <contour>
      <point x="390" y="-20" type="qcurve" smooth="yes"/>
      <point x="308" y="-20"/>
      <point x="183" y="28"/>
      <point x="98" y="114"/>
      <point x="55" y="235"/>
      <point x="55" y="307" type="qcurve" smooth="yes"/>
      <point x="55" y="326"/>
      <point x="58" y="365"/>
      <point x="62" y="386" type="qcurve"/>
      <point x="115" y="389" type="line" smooth="yes"/>
      <point x="125" y="390"/>
      <point x="135" y="390" type="qcurve"/>
      <point x="174" y="391" type="line"/>
      <point x="184" y="392"/>
      <point x="194" y="392" type="qcurve"/>
      <point x="188" y="357"/>
      <point x="188" y="319" type="qcurve" smooth="yes"/>
      <point x="188" y="216"/>
      <point x="290" y="96"/>
      <point x="395" y="96" type="qcurve" smooth="yes"/>
      <point x="473" y="96"/>
      <point x="595" y="145"/>
      <point x="688" y="242"/>
      <point x="754" y="385"/>
      <point x="776" y="480" type="qcurve" smooth="yes"/>
      <point x="962" y="1283" type="line"/>
      <point x="434" y="1283" type="line"/>
      <point x="461" y="1396" type="line"/>
      <point x="1124" y="1396" type="line"/>
      <point x="1072" y="1172"/>
      <point x="967" y="721"/>
      <point x="914" y="488" type="qcurve" smooth="yes"/>
      <point x="856" y="237"/>
      <point x="599" y="-20"/>
    </contour>
  </outline>
</glyph>
<glyph name="K" format="2">
  <advance width="1434"/>
  <unicode hex="004B"/>
  <outline>
    <contour>
      <point x="1215" y="0" type="line"/>
      <point x="1059" y="0" type="line"/>
      <point x="748" y="757" type="line"/>
      <point x="308" y="389" type="line"/>
      <point x="217" y="0" type="line"/>
      <point x="81" y="0" type="line"/>
      <point x="404" y="1396" type="line"/>
      <point x="539" y="1396" type="line"/>
      <point x="346" y="560" type="line"/>
      <point x="1328" y="1396" type="line"/>
      <point x="1505" y="1396" type="line"/>
      <point x="858" y="851" type="line"/>
    </contour>
  </outline>
</glyph>
<glyph name="O" format="2">
  <advance width="1456"/>
  <unicode hex="004F"/>
  <outline>
    <contour>
      <point x="621" y="-20" type="qcurve" smooth="yes"/>
      <point x="499" y="-20"/>
      <point x="314" y="53"/>
      <point x="192" y="186"/>
      <point x="134" y="369"/>
      <point x="134" y="477" type="qcurve" smooth="yes"/>
      <point x="134" y="485"/>
      <point x="134" y="492" type="qcurve"/>
      <point x="136" y="613"/>
      <point x="198" y="856"/>
      <point x="307" y="1073"/>
      <point x="457" y="1251"/>
      <point x="548" y="1309" type="qcurve" smooth="yes"/>
      <point x="716" y="1418"/>
      <point x="930" y="1418" type="qcurve" smooth="yes"/>
      <point x="1053" y="1418"/>
      <point x="1237" y="1345"/>
      <point x="1360" y="1210"/>
      <point x="1418" y="1025"/>
      <point x="1418" y="916" type="qcurve" smooth="yes"/>
      <point x="1418" y="908"/>
      <point x="1418" y="901" type="qcurve"/>
      <point x="1415" y="770"/>
      <point x="1347" y="519"/>
      <point x="1230" y="300"/>
      <point x="1071" y="126"/>
      <point x="979" y="72" type="qcurve" smooth="yes"/>
      <point x="899" y="25"/>
      <point x="721" y="-20"/>
    </contour>
    <contour>
      <point x="910" y="1290" type="qcurve" smooth="yes"/>
      <point x="794" y="1290"/>
      <point x="596" y="1206"/>
      <point x="439" y="1050"/>
      <point x="326" y="831"/>
      <point x="296" y="696" type="qcurve" smooth="yes"/>
      <point x="283" y="637"/>
      <point x="272" y="540"/>
      <point x="272" y="497" type="qcurve" smooth="yes"/>
      <point x="272" y="489"/>
      <point x="272" y="482" type="qcurve"/>
      <point x="273" y="397"/>
      <point x="318" y="259"/>
      <point x="408" y="161"/>
      <point x="545" y="107"/>
      <point x="638" y="107" type="qcurve" smooth="yes"/>
      <point x="752" y="107"/>
      <point x="952" y="190"/>
      <point x="1113" y="346"/>
      <point x="1229" y="570"/>
      <point x="1260" y="710" type="qcurve" smooth="yes"/>
      <point x="1282" y="809"/>
      <point x="1282" y="896" type="qcurve" smooth="yes"/>
      <point x="1282" y="909"/>
      <point x="1281" y="923" type="qcurve" smooth="yes"/>
      <point x="1278" y="1009"/>
      <point x="1230" y="1145"/>
      <point x="1138" y="1240"/>
      <point x="1001" y="1290"/>
    </contour>
  </outline>
</glyph>
<glyph name="P" format="2">
  <advance width="1143"/>
  <unicode hex="0050"/>
  <outline>
    <contour>
      <point x="244" y="0" type="line"/>
      <point x="108" y="0" type="line"/>
      <point x="188" y="350"/>
      <point x="348" y="1044"/>
      <point x="430" y="1396" type="qcurve"/>
      <point x="806" y="1396" type="line" smooth="yes"/>
      <point x="891" y="1396"/>
      <point x="1026" y="1356"/>
      <point x="1120" y="1281"/>
      <point x="1170" y="1174"/>
      <point x="1170" y="1107" type="qcurve" smooth="yes"/>
      <point x="1170" y="1051"/>
      <point x="1144" y="945"/>
      <point x="1096" y="850"/>
      <point x="1029" y="770"/>
      <point x="988" y="740" type="qcurve" smooth="yes"/>
      <point x="919" y="690"/>
      <point x="747" y="642"/>
      <point x="644" y="642" type="qcurve" smooth="yes"/>
      <point x="391" y="642" type="line"/>
    </contour>
    <contour>
      <point x="661" y="759" type="line" smooth="yes"/>
      <point x="737" y="759"/>
      <point x="874" y="803"/>
      <point x="977" y="889"/>
      <point x="1038" y="1015"/>
      <point x="1038" y="1097" type="qcurve" smooth="yes"/>
      <point x="1038" y="1185"/>
      <point x="913" y="1279"/>
      <point x="791" y="1279" type="qcurve" smooth="yes"/>
      <point x="538" y="1279" type="line"/>
      <point x="417" y="759" type="line"/>
    </contour>
  </outline>
</glyph>
<glyph name="U" format="2">
  <advance width="1338"/>
  <unicode hex="0055"/>
  <outline>
    <contour>
      <point x="561" y="-20" type="qcurve" smooth="yes"/>
      <point x="466" y="-20"/>
      <point x="323" y="31"/>
      <point x="227" y="127"/>
      <point x="178" y="265"/>
      <point x="178" y="352" type="qcurve" smooth="yes"/>
      <point x="178" y="394"/>
      <point x="188" y="472"/>
      <point x="197" y="511" type="qcurve" smooth="yes"/>
      <point x="292" y="922" type="line"/>
      <point x="318" y="1041"/>
      <point x="373" y="1277"/>
      <point x="401" y="1396" type="qcurve"/>
      <point x="537" y="1396" type="line"/>
      <point x="480" y="1150"/>
      <point x="382" y="729"/>
      <point x="340" y="547" type="qcurve" smooth="yes"/>
      <point x="327" y="493"/>
      <point x="316" y="400"/>
      <point x="316" y="361" type="qcurve" smooth="yes"/>
      <point x="316" y="234"/>
      <point x="438" y="106"/>
      <point x="568" y="106" type="qcurve" smooth="yes"/>
      <point x="658" y="106"/>
      <point x="805" y="167"/>
      <point x="920" y="283"/>
      <point x="1002" y="452"/>
      <point x="1026" y="559" type="qcurve"/>
      <point x="1120" y="962" type="line" smooth="yes"/>
      <point x="1145" y="1071"/>
      <point x="1195" y="1287"/>
      <point x="1221" y="1396" type="qcurve"/>
      <point x="1356" y="1396" type="line"/>
      <point x="1332" y="1293"/>
      <point x="1285" y="1088"/>
      <point x="1262" y="985" type="qcurve" smooth="yes"/>
      <point x="1160" y="541" type="line"/>
      <point x="1131" y="419"/>
      <point x="1030" y="213"/>
      <point x="881" y="64"/>
      <point x="684" y="-20"/>
    </contour>
  </outline>
</glyph>
<glyph name="V" format="2">
  <advance width="1312"/>
  <unicode hex="0056"/>
  <outline>
    <contour>
      <point x="582" y="0" type="line"/>
      <point x="460" y="0" type="line"/>
      <point x="263" y="1396" type="line"/>
      <point x="404" y="1396" type="line"/>
      <point x="557" y="167" type="line"/>
      <point x="1279" y="1396" type="line"/>
      <point x="1421" y="1396" type="line"/>
    </contour>
  </outline>
</glyph>
<glyph name="W" format="2">
  <advance width="1948"/>
  <unicode hex="0057"/>
  <outline>
    <contour>
      <point x="1313" y="0" type="line"/>
      <point x="1152" y="0" type="line"/>
      <point x="1090" y="1191" type="line"/>
      <point x="469" y="0" type="line"/>
      <point x="309" y="0" type="line"/>
      <point x="244" y="1396" type="line"/>
      <point x="381" y="1396" type="line"/>
      <point x="435" y="155" type="line"/>
      <point x="1082" y="1413" type="line"/>
      <point x="1192" y="1413" type="line"/>
      <point x="1260" y="155" type="line"/>
      <point x="1885" y="1396" type="line"/>
      <point x="2023" y="1396" type="line"/>
    </contour>
  </outline>
</glyph>
<glyph name="backslash" format="2">
  <advance width="927"/>
  <unicode hex="005C"/>
  <outline>
    <contour>
      <point x="685" y="-426" type="line"/>
      <point x="557" y="-426" type="line"/>
      <point x="260" y="1498" type="line"/>
      <point x="392" y="1498" type="line"/>
    </contour>
  </outline>
</glyph>
<glyph name="bracketright" format="2">
  <advance width="635"/>
  <unicode hex="005D"/>
  <outline>
    <contour>
      <point x="290" y="-78" type="line"/>
      <point x="-51" y="-78" type="line"/>
      <point x="-34" y="-3" type="line"/>
      <point x="200" y="-3" type="line"/>
      <point x="523" y="1399" type="line"/>
      <point x="290" y="1399" type="line"/>
      <point x="306" y="1472" type="line"/>
      <point x="647" y="1472" type="line"/>
    </contour>
  </outline>
</glyph>
<glyph name="asciicircum" format="2">
  <advance width="974"/>
  <unicode hex="005E"/>
  <outline>
    <contour>
      <point x="911" y="838" type="line"/>
      <point x="777" y="838" type="line"/>
      <point x="648" y="1176" type="line"/>
      <point x="360" y="838" type="line"/>
      <point x="220" y="838" type="line"/>
      <point x="691" y="1396" type="line"/>
    </contour>
  </outline>
</glyph>
<glyph name="c" format="2">
  <advance width="961"/>
  <unicode hex="0063"/>
  <outline>
    <contour>
      <point x="412" y="-20" type="qcurve" smooth="yes"/>
      <point x="330" y="-20"/>
      <point x="208" y="32"/>
      <point x="126" y="125"/>
      <point x="84" y="255"/>
      <point x="83" y="332" type="qcurve"/>
      <point x="83" y="339"/>
      <point x="83" y="346" type="qcurve" smooth="yes"/>
      <point x="83" y="420"/>
      <point x="122" y="592"/>
      <point x="206" y="761"/>
      <point x="332" y="906"/>
      <point x="417" y="952" type="qcurve" smooth="yes"/>
      <point x="462" y="977"/>
      <point x="566" y="1003"/>
      <point x="624" y="1003" type="qcurve" smooth="yes"/>
      <point x="691" y="1003"/>
      <point x="799" y="965"/>
      <point x="881" y="898"/>
      <point x="935" y="804"/>
      <point x="948" y="749" type="qcurve"/>
      <point x="820" y="703" type="line"/>
      <point x="817" y="745"/>
      <point x="784" y="814"/>
      <point x="728" y="863"/>
      <point x="654" y="890"/>
      <point x="610" y="890" type="qcurve" smooth="yes"/>
      <point x="533" y="890"/>
      <point x="408" y="823"/>
      <point x="312" y="710"/>
      <point x="246" y="563"/>
      <point x="227" y="484" type="qcurve"/>
      <point x="217" y="436"/>
      <point x="211" y="369"/>
      <point x="211" y="346" type="qcurve" smooth="yes"/>
      <point x="211" y="329"/>
      <point x="212" y="313" type="qcurve" smooth="yes"/>
      <point x="215" y="262"/>
      <point x="242" y="180"/>
      <point x="293" y="123"/>
      <point x="370" y="92"/>
      <point x="423" y="92" type="qcurve" smooth="yes"/>
      <point x="471" y="92"/>
      <point x="564" y="123"/>
      <point x="643" y="176"/>
      <point x="707" y="247"/>
      <point x="727" y="287" type="qcurve"/>
      <point x="825" y="231" type="line"/>
      <point x="751" y="108"/>
      <point x="539" y="-20"/>
    </contour>
  </outline>
</glyph>
<glyph name="d" format="2">
  <advance width="1115"/>
  <unicode hex="0064"/>
  <outline>
    <contour>
      <point x="389" y="-20" type="qcurve" smooth="yes"/>
      <point x="315" y="-20"/>
      <point x="202" y="31"/>
      <point x="126" y="123"/>
      <point x="88" y="253"/>
      <point x="88" y="332" type="qcurve" smooth="yes"/>
      <point x="88" y="404"/>
      <point x="120" y="561"/>
      <point x="181" y="711"/>
      <point x="270" y="846"/>
      <point x="385" y="947"/>
      <point x="523" y="1007"/>
      <point x="603" y="1007" type="qcurve" smooth="yes"/>
      <point x="813" y="1007"/>
      <point x="890" y="837" type="qcurve"/>
      <point x="924" y="982"/>
      <point x="987" y="1256"/>
      <point x="1022" y="1396" type="qcurve"/>
      <point x="1147" y="1396" type="line"/>
      <point x="825" y="0" type="line"/>
      <point x="701" y="0" type="line"/>
      <point x="729" y="135" type="line"/>
      <point x="657" y="56"/>
      <point x="492" y="-20"/>
    </contour>
    <contour>
      <point x="428" y="94" type="qcurve" smooth="yes"/>
      <point x="503" y="94"/>
      <point x="630" y="155"/>
      <point x="731" y="264"/>
      <point x="804" y="416"/>
      <point x="825" y="506" type="qcurve" smooth="yes"/>
      <point x="834" y="545"/>
      <point x="844" y="616"/>
      <point x="844" y="651" type="qcurve" smooth="yes"/>
      <point x="844" y="761"/>
      <point x="739" y="890"/>
      <point x="633" y="890" type="qcurve" smooth="yes"/>
      <point x="557" y="890"/>
      <point x="428" y="827"/>
      <point x="327" y="717"/>
      <point x="254" y="567"/>
      <point x="235" y="481" type="qcurve"/>
      <point x="216" y="406"/>
      <point x="216" y="336" type="qcurve" smooth="yes"/>
      <point x="216" y="223"/>
      <point x="321" y="94"/>
    </contour>
  </outline>
</glyph>
<glyph name="e" format="2">
  <advance width="1021"/>
  <unicode hex="0065"/>
  <outline>
    <contour>
      <point x="426" y="-12" type="qcurve" smooth="yes"/>
      <point x="340" y="-12"/>
      <point x="208" y="40"/>
      <point x="120" y="138"/>
      <point x="81" y="265"/>
      <point x="81" y="336" type="qcurve" smooth="yes"/>
      <point x="81" y="349"/>
      <point x="82" y="363" type="qcurve" smooth="yes"/>
      <point x="86" y="438"/>
      <point x="124" y="591"/>
      <point x="191" y="733"/>
      <point x="284" y="856"/>
      <point x="401" y="947"/>
      <point x="542" y="999"/>
      <point x="622" y="999" type="qcurve" smooth="yes"/>
      <point x="714" y="999"/>
      <point x="845" y="946"/>
      <point x="926" y="850"/>
      <point x="950" y="740"/>
      <point x="950" y="694" type="qcurve" smooth="yes"/>
      <point x="950" y="663"/>
      <point x="946" y="629" type="qcurve"/>
      <point x="939" y="583"/>
      <point x="930" y="529"/>
      <point x="923" y="493"/>
      <point x="917" y="466"/>
      <point x="912" y="447" type="qcurve"/>
      <point x="223" y="447" type="line"/>
      <point x="208" y="388"/>
      <point x="208" y="338" type="qcurve" smooth="yes"/>
      <point x="208" y="335"/>
      <point x="208" y="331" type="qcurve" smooth="yes"/>
      <point x="208" y="281"/>
      <point x="236" y="196"/>
      <point x="294" y="133"/>
      <point x="380" y="99"/>
      <point x="437" y="99" type="qcurve" smooth="yes"/>
      <point x="489" y="99"/>
      <point x="575" y="111"/>
      <point x="650" y="136"/>
      <point x="717" y="176"/>
      <point x="749" y="204" type="qcurve"/>
      <point x="824" y="132" type="line"/>
      <point x="775" y="92"/>
      <point x="683" y="37"/>
      <point x="587" y="3"/>
      <point x="484" y="-12"/>
    </contour>
    <contour>
      <point x="819" y="556" type="line"/>
      <point x="829" y="593"/>
      <point x="840" y="655"/>
      <point x="840" y="685" type="qcurve"/>
      <point x="838" y="782"/>
      <point x="725" y="885"/>
      <point x="608" y="885" type="qcurve" smooth="yes"/>
      <point x="541" y="885"/>
      <point x="425" y="835"/>
      <point x="332" y="747"/>
      <point x="264" y="627"/>
      <point x="246" y="556" type="qcurve"/>
    </contour>
  </outline>
</glyph>
<glyph name="g" format="2">
  <advance width="1117"/>
  <unicode hex="0067"/>
  <outline>
    <contour>
      <point x="329" y="-428" type="qcurve" smooth="yes"/>
      <point x="201" y="-428"/>
      <point x="26" y="-326"/>
      <point x="-12" y="-232" type="qcurve"/>
      <point x="96" y="-171" type="line"/>
      <point x="153" y="-320"/>
      <point x="332" y="-320" type="qcurve" smooth="yes"/>
      <point x="401" y="-320"/>
      <point x="520" y="-272"/>
      <point x="615" y="-186"/>
      <point x="683" y="-67"/>
      <point x="700" y="4" type="qcurve"/>
      <point x="735" y="142" type="line"/>
      <point x="588" y="-19"/>
      <point x="397" y="-19" type="qcurve" smooth="yes"/>
      <point x="320" y="-19"/>
      <point x="204" y="31"/>
      <point x="127" y="122"/>
      <point x="88" y="251"/>
      <point x="88" y="330" type="qcurve" smooth="yes"/>
      <point x="88" y="402"/>
      <point x="119" y="559"/>
      <point x="179" y="709"/>
      <point x="268" y="845"/>
      <point x="385" y="947"/>
      <point x="527" y="1007"/>
      <point x="611" y="1007" type="qcurve" smooth="yes"/>
      <point x="715" y="1007"/>
      <point x="854" y="917"/>
      <point x="889" y="835" type="qcurve"/>
      <point x="926" y="986" type="line"/>
      <point x="1053" y="986" type="line"/>
      <point x="828" y="19" type="line" smooth="yes"/>
      <point x="805" y="-81"/>
      <point x="723" y="-246"/>
      <point x="601" y="-363"/>
      <point x="435" y="-428"/>
    </contour>
    <contour>
      <point x="428" y="89" type="qcurve" smooth="yes"/>
      <point x="501" y="89"/>
      <point x="628" y="152"/>
      <point x="730" y="263"/>
      <point x="804" y="416"/>
      <point x="825" y="506" type="qcurve"/>
      <point x="836" y="549"/>
      <point x="845" y="622"/>
      <point x="845" y="654" type="qcurve" smooth="yes"/>
      <point x="845" y="765"/>
      <point x="742" y="896"/>
      <point x="636" y="896" type="qcurve" smooth="yes"/>
      <point x="559" y="896"/>
      <point x="429" y="830"/>
      <point x="326" y="717"/>
      <point x="254" y="566"/>
      <point x="235" y="481" type="qcurve"/>
      <point x="216" y="406"/>
      <point x="216" y="334" type="qcurve" smooth="yes"/>
      <point x="216" y="220"/>
      <point x="321" y="89"/>
    </contour>
  </outline>
</glyph>
<glyph name="j" format="2">
  <advance width="481"/>
  <unicode hex="006A"/>
  <outline>
    <contour>
      <point x="485" y="1224" type="line"/>
      <point x="332" y="1224" type="line"/>
      <point x="374" y="1402" type="line"/>
      <point x="527" y="1402" type="line"/>
    </contour>
    <contour>
      <point x="-148" y="-434" type="qcurve" smooth="yes"/>
      <point x="-178" y="-434"/>
      <point x="-256" y="-416"/>
      <point x="-287" y="-403" type="qcurve"/>
      <point x="-245" y="-306" type="line"/>
      <point x="-237" y="-309"/>
      <point x="-210" y="-314"/>
      <point x="-179" y="-319"/>
      <point x="-147" y="-321"/>
      <point x="-133" y="-321" type="qcurve" smooth="yes"/>
      <point x="-101" y="-321"/>
      <point x="-50" y="-299"/>
      <point x="-12" y="-262"/>
      <point x="14" y="-212"/>
      <point x="20" y="-183" type="qcurve"/>
      <point x="290" y="986" type="line"/>
      <point x="420" y="986" type="line"/>
      <point x="153" y="-169" type="line" smooth="yes"/>
      <point x="139" y="-229"/>
      <point x="90" y="-326"/>
      <point x="16" y="-396"/>
      <point x="-84" y="-434"/>
    </contour>
  </outline>
</glyph>
<glyph name="k" format="2">
  <advance width="1026"/>
  <unicode hex="006B"/>
  <outline>
    <contour>
      <point x="842" y="0" type="line"/>
      <point x="694" y="0" type="line"/>
      <point x="510" y="529" type="line"/>
      <point x="234" y="289" type="line"/>
      <point x="166" y="0" type="line"/>
      <point x="39" y="0" type="line"/>
      <point x="361" y="1396" type="line"/>
      <point x="488" y="1396" type="line"/>
      <point x="268" y="446" type="line"/>
      <point x="849" y="986" type="line"/>
      <point x="1006" y="986" type="line"/>
      <point x="610" y="623" type="line"/>
    </contour>
  </outline>
</glyph>
<glyph name="m" format="2">
  <advance width="1677"/>
  <unicode hex="006D"/>
  <outline>
    <contour>
      <point x="1411" y="0" type="line"/>
      <point x="1284" y="0" type="line"/>
      <point x="1422" y="595" type="line"/>
      <point x="1430" y="633"/>
      <point x="1438" y="696"/>
      <point x="1438" y="723" type="qcurve" smooth="yes"/>
      <point x="1438" y="901"/>
      <point x="1277" y="901" type="qcurve" smooth="yes"/>
      <point x="1215" y="901"/>
      <point x="1102" y="846"/>
      <point x="1010" y="751"/>
      <point x="943" y="628"/>
      <point x="928" y="561" type="qcurve" smooth="yes"/>
      <point x="896" y="418"/>
      <point x="830" y="140"/>
      <point x="799" y="0" type="qcurve"/>
      <point x="671" y="0" type="line"/>
      <point x="809" y="599" type="line" smooth="yes"/>
      <point x="826" y="675"/>
      <point x="826" y="730" type="qcurve" smooth="yes"/>
      <point x="826" y="901"/>
      <point x="669" y="901" type="qcurve" smooth="yes"/>
      <point x="607" y="901"/>
      <point x="492" y="845"/>
      <point x="399" y="750"/>
      <point x="332" y="627"/>
      <point x="317" y="561" type="qcurve" smooth="yes"/>
      <point x="285" y="418"/>
      <point x="220" y="140"/>
      <point x="188" y="0" type="qcurve"/>
      <point x="61" y="0" type="line"/>
      <point x="288" y="986" type="line"/>
      <point x="415" y="986" type="line"/>
      <point x="371" y="797" type="line"/>
      <point x="396" y="846"/>
      <point x="466" y="924"/>
      <point x="548" y="977"/>
      <point x="638" y="1005"/>
      <point x="684" y="1005" type="qcurve" smooth="yes"/>
      <point x="739" y="1005"/>
      <point x="833" y="978"/>
      <point x="902" y="925"/>
      <point x="943" y="845"/>
      <point x="947" y="791" type="qcurve"/>
      <point x="1019" y="898"/>
      <point x="1188" y="1003"/>
      <point x="1294" y="1003" type="qcurve" smooth="yes"/>
      <point x="1426" y="1003"/>
      <point x="1566" y="862"/>
      <point x="1566" y="731" type="qcurve" smooth="yes"/>
      <point x="1566" y="699"/>
      <point x="1557" y="631"/>
      <point x="1549" y="594" type="qcurve" smooth="yes"/>
    </contour>
  </outline>
</glyph>
<glyph name="o" format="2">
  <advance width="1108"/>
  <unicode hex="006F"/>
  <outline>
    <contour>
      <point x="86" y="426" type="qcurve" smooth="yes"/>
      <point x="97" y="531"/>
      <point x="192" y="736"/>
      <point x="343" y="899"/>
      <point x="542" y="999"/>
      <point x="659" y="999" type="qcurve" smooth="yes"/>
      <point x="743" y="999"/>
      <point x="879" y="942"/>
      <point x="974" y="840"/>
      <point x="1025" y="700"/>
      <point x="1026" y="618" type="qcurve"/>
      <point x="1026" y="614"/>
      <point x="1026" y="611" type="qcurve" smooth="yes"/>
      <point x="1026" y="543"/>
      <point x="990" y="397"/>
      <point x="919" y="255"/>
      <point x="816" y="130"/>
      <point x="686" y="35"/>
      <point x="532" y="-20"/>
      <point x="445" y="-20" type="qcurve" smooth="yes"/>
      <point x="353" y="-20"/>
      <point x="209" y="48"/>
      <point x="115" y="167"/>
      <point x="82" y="301"/>
      <point x="82" y="360" type="qcurve" smooth="yes"/>
      <point x="82" y="392"/>
    </contour>
    <contour>
      <point x="884" y="563" type="qcurve"/>
      <point x="890" y="602"/>
      <point x="890" y="637" type="qcurve" smooth="yes"/>
      <point x="890" y="668"/>
      <point x="876" y="754"/>
      <point x="816" y="838"/>
      <point x="719" y="883"/>
      <point x="652" y="883" type="qcurve" smooth="yes"/>
      <point x="566" y="883"/>
      <point x="410" y="801"/>
      <point x="290" y="659"/>
      <point x="216" y="469"/>
      <point x="213" y="361" type="qcurve"/>
      <point x="213" y="354"/>
      <point x="213" y="347" type="qcurve" smooth="yes"/>
      <point x="213" y="293"/>
      <point x="242" y="201"/>
      <point x="305" y="133"/>
      <point x="396" y="96"/>
      <point x="453" y="96" type="qcurve" smooth="yes"/>
      <point x="538" y="96"/>
      <point x="685" y="170"/>
      <point x="798" y="298"/>
      <point x="872" y="467"/>
    </contour>
  </outline>
</glyph>
<glyph name="p" format="2">
  <advance width="1115"/>
  <unicode hex="0070"/>
  <outline>
    <contour>
      <point x="87" y="-434" type="line"/>
      <point x="-38" y="-434" type="line"/>
      <point x="126" y="275" type="line"/>
      <point x="158" y="409"/>
      <point x="188" y="542" type="qcurve" smooth="yes"/>
      <point x="228" y="719" type="line" smooth="yes"/>
      <point x="259" y="852"/>
      <point x="290" y="986" type="qcurve"/>
      <point x="415" y="986" type="line"/>
      <point x="406" y="952"/>
      <point x="390" y="886"/>
      <point x="379" y="846" type="qcurve"/>
      <point x="525" y="1007"/>
      <point x="724" y="1007" type="qcurve" smooth="yes"/>
      <point x="797" y="1007"/>
      <point x="911" y="957"/>
      <point x="987" y="865"/>
      <point x="1027" y="735"/>
      <point x="1027" y="655" type="qcurve" smooth="yes"/>
      <point x="1027" y="579"/>
      <point x="994" y="420"/>
      <point x="932" y="270"/>
      <point x="841" y="137"/>
      <point x="726" y="38"/>
      <point x="588" y="-20"/>
      <point x="509" y="-20" type="qcurve" smooth="yes"/>
      <point x="400" y="-20"/>
      <point x="260" y="69"/>
      <point x="225" y="152" type="qcurve"/>
    </contour>
    <contour>
      <point x="476" y="88" type="qcurve" smooth="yes"/>
      <point x="551" y="88"/>
      <point x="682" y="151"/>
      <point x="787" y="262"/>
      <point x="864" y="415"/>
      <point x="885" y="506" type="qcurve" smooth="yes"/>
      <point x="893" y="544"/>
      <point x="902" y="614"/>
      <point x="902" y="648" type="qcurve" smooth="yes"/>
      <point x="902" y="703"/>
      <point x="876" y="795"/>
      <point x="823" y="860"/>
      <point x="741" y="896"/>
      <point x="685" y="896" type="qcurve" smooth="yes"/>
      <point x="626" y="896"/>
      <point x="519" y="853"/>
      <point x="426" y="774"/>
      <point x="351" y="667"/>
      <point x="298" y="542"/>
      <point x="269" y="405"/>
      <point x="269" y="335" type="qcurve" smooth="yes"/>
      <point x="269" y="278"/>
      <point x="295" y="187"/>
      <point x="346" y="123"/>
      <point x="424" y="88"/>
    </contour>
  </outline>
</glyph>
<glyph name="r" format="2">
  <advance width="792"/>
  <unicode hex="0072"/>
  <outline>
    <contour>
      <point x="190" y="0" type="line"/>
      <point x="61" y="0" type="line"/>
      <point x="288" y="986" type="line"/>
      <point x="418" y="986" type="line"/>
      <point x="413" y="962"/>
      <point x="403" y="917"/>
      <point x="391" y="868"/>
      <point x="378" y="812"/>
      <point x="371" y="778" type="qcurve"/>
      <point x="385" y="811"/>
      <point x="416" y="860"/>
      <point x="452" y="900"/>
      <point x="494" y="931"/>
      <point x="519" y="946" type="qcurve" smooth="yes"/>
      <point x="564" y="972"/>
      <point x="659" y="1001"/>
      <point x="704" y="1001" type="qcurve" smooth="yes"/>
      <point x="723" y="1001"/>
      <point x="766" y="994"/>
      <point x="807" y="982"/>
      <point x="844" y="965"/>
      <point x="856" y="956" type="qcurve"/>
      <point x="804" y="857" type="line"/>
      <point x="783" y="878"/>
      <point x="721" y="897"/>
      <point x="690" y="897" type="qcurve" smooth="yes"/>
      <point x="619" y="897"/>
      <point x="491" y="821"/>
      <point x="385" y="688"/>
      <point x="306" y="509"/>
      <point x="284" y="407" type="qcurve"/>
    </contour>
  </outline>
</glyph>
<glyph name="v" format="2">
  <advance width="939"/>
  <unicode hex="0076"/>
  <outline>
    <contour>
      <point x="413" y="0" type="line"/>
      <point x="299" y="0" type="line"/>
      <point x="165" y="986" type="line"/>
      <point x="301" y="986" type="line"/>
      <point x="390" y="162" type="line"/>
      <point x="865" y="986" type="line"/>
      <point x="1002" y="986" type="line"/>
    </contour>
  </outline>
</glyph>
<glyph name="w" format="2">
  <advance width="1400"/>
  <unicode hex="0077"/>
  <outline>
    <contour>
      <point x="955" y="0" type="line"/>
      <point x="827" y="0" type="line"/>
      <point x="779" y="818" type="line"/>
      <point x="344" y="-1" type="line"/>
      <point x="217" y="-1" type="line"/>
      <point x="175" y="986" type="line"/>
      <point x="307" y="986" type="line"/>
      <point x="329" y="173" type="line"/>
      <point x="754" y="986" type="line"/>
      <point x="874" y="986" type="line"/>
      <point x="921" y="175" type="line"/>
      <point x="1318" y="986" type="line"/>
      <point x="1453" y="986" type="line"/>
    </contour>
  </outline>
</glyph>
<glyph name="x" format="2">
  <advance width="897"/>
  <unicode hex="0078"/>
  <outline>
    <contour>
      <point x="386" y="509" type="line"/>
      <point x="175" y="986" type="line"/>
      <point x="325" y="986" type="line"/>
      <point x="473" y="611" type="line"/>
      <point x="801" y="986" type="line"/>
      <point x="952" y="986" type="line"/>
      <point x="519" y="504" type="line"/>
      <point x="733" y="0" type="line"/>
      <point x="584" y="0" type="line"/>
      <point x="432" y="401" type="line"/>
      <point x="89" y="0" type="line"/>
      <point x="-68" y="0" type="line"/>
    </contour>
  </outline>
</glyph>
<glyph name="z" format="2">
  <advance width="914"/>
  <unicode hex="007A"/>
  <outline>
    <contour>
      <point x="717" y="0" type="line"/>
      <point x="-40" y="0" type="line"/>
      <point x="-19" y="99" type="line"/>
      <point x="776" y="885" type="line"/>
      <point x="193" y="885" type="line"/>
      <point x="215" y="986" type="line"/>
      <point x="943" y="986" type="line"/>
      <point x="920" y="877" type="line"/>
      <point x="139" y="108" type="line"/>
      <point x="741" y="108" type="line"/>
    </contour>
  </outline>
</glyph>
<glyph name="bar" format="2">
  <advance width="623"/>
  <unicode hex="007C"/>
  <outline>
    <contour>
      <point x="126" y="-507" type="line"/>
      <point x="34" y="-507" type="line"/>
      <point x="502" y="1516" type="line"/>
      <point x="594" y="1516" type="line"/>
    </contour>
  </outline>
</glyph>
<glyph name="cent" format="2">
  <advance width="1138"/>
  <unicode hex="00A2"/>
  <outline>
    <contour>
      <point x="488" y="-203" type="line"/>
      <point x="394" y="-203" type="line"/>
      <point x="446" y="-15" type="line"/>
      <point x="374" y="-7"/>
      <point x="267" y="53"/>
      <point x="197" y="146"/>
      <point x="163" y="270"/>
      <point x="163" y="342" type="qcurve" smooth="yes"/>
      <point x="163" y="408"/>
      <point x="191" y="551"/>
      <point x="248" y="691"/>
      <point x="333" y="819"/>
      <point x="445" y="921"/>
      <point x="584" y="989"/>
      <point x="668" y="999" type="qcurve"/>
      <point x="717" y="1185" type="line"/>
      <point x="808" y="1185" type="line"/>
      <point x="760" y="999" type="line"/>
      <point x="869" y="985"/>
      <point x="1015" y="849"/>
      <point x="1037" y="746" type="qcurve"/>
      <point x="901" y="704" type="line"/>
      <point x="899" y="744"/>
      <point x="867" y="809"/>
      <point x="814" y="854"/>
      <point x="744" y="878"/>
      <point x="704" y="878" type="qcurve" smooth="yes"/>
      <point x="644" y="878"/>
      <point x="537" y="833"/>
      <point x="448" y="755"/>
      <point x="376" y="650"/>
      <point x="327" y="530"/>
      <point x="300" y="403"/>
      <point x="300" y="342" type="qcurve" smooth="yes"/>
      <point x="300" y="229"/>
      <point x="399" y="105"/>
      <point x="504" y="105" type="qcurve" smooth="yes"/>
      <point x="549" y="105"/>
      <point x="638" y="133"/>
      <point x="717" y="183"/>
      <point x="781" y="251"/>
      <point x="802" y="291" type="qcurve"/>
      <point x="910" y="228" type="line"/>
      <point x="844" y="116"/>
      <point x="653" y="-6"/>
      <point x="535" y="-17" type="qcurve"/>
    </contour>
  </outline>
</glyph>
<glyph name="sterling" format="2">
  <advance width="1240"/>
  <unicode hex="00A3"/>
  <outline>
    <contour>
      <point x="1053" y="0" type="line"/>
      <point x="55" y="0" type="line"/>
      <point x="63" y="35" type="line" smooth="yes"/>
      <point x="66" y="49"/>
      <point x="72" y="77"/>
      <point x="76" y="91" type="qcurve"/>
      <point x="169" y="156"/>
      <point x="300" y="276"/>
      <point x="382" y="404"/>
      <point x="420" y="550"/>
      <point x="420" y="641" type="qcurve"/>
      <point x="203" y="641" type="line"/>
      <point x="229" y="749" type="line"/>
      <point x="420" y="749" type="line"/>
      <point x="414" y="778"/>
      <point x="409" y="838"/>
      <point x="409" y="868" type="qcurve" smooth="yes"/>
      <point x="409" y="929"/>
      <point x="434" y="1058"/>
      <point x="485" y="1180"/>
      <point x="561" y="1287"/>
      <point x="663" y="1367"/>
      <point x="791" y="1414"/>
      <point x="868" y="1414" type="qcurve" smooth="yes"/>
      <point x="934" y="1414"/>
      <point x="1045" y="1370"/>
      <point x="1129" y="1294"/>
      <point x="1183" y="1192"/>
      <point x="1192" y="1133" type="qcurve"/>
      <point x="1181" y="1129"/>
      <point x="1158" y="1124"/>
      <point x="1147" y="1121" type="qcurve" smooth="yes"/>
      <point x="1081" y="1104" type="line"/>
      <point x="1075" y="1147"/>
      <point x="1036" y="1219"/>
      <point x="979" y="1271"/>
      <point x="905" y="1299"/>
      <point x="863" y="1299" type="qcurve" smooth="yes"/>
      <point x="861" y="1299"/>
      <point x="859" y="1299" type="qcurve" smooth="yes"/>
      <point x="781" y="1299"/>
      <point x="655" y="1227"/>
      <point x="565" y="1104"/>
      <point x="518" y="942"/>
      <point x="518" y="852" type="qcurve" smooth="yes"/>
      <point x="518" y="824"/>
      <point x="521" y="773"/>
      <point x="525" y="749" type="qcurve"/>
      <point x="994" y="749" type="line"/>
      <point x="968" y="641" type="line"/>
      <point x="528" y="641" type="line"/>
      <point x="528" y="545"/>
      <point x="497" y="391"/>
      <point x="431" y="264"/>
      <point x="328" y="158"/>
      <point x="256" y="110" type="qcurve"/>
      <point x="1080" y="114" type="line"/>
    </contour>
  </outline>
</glyph>
<glyph name="currency" format="2">
  <advance width="1111"/>
  <unicode hex="00A4"/>
  <outline>
    <contour>
      <point x="852" y="173" type="line"/>
      <point x="773" y="272" type="line"/>
      <point x="641" y="185"/>
      <point x="499" y="185" type="qcurve" smooth="yes"/>
      <point x="348" y="185"/>
      <point x="248" y="280" type="qcurve"/>
      <point x="118" y="173" type="line"/>
      <point x="102" y="193"/>
      <point x="69" y="239"/>
      <point x="52" y="260" type="qcurve"/>
      <point x="184" y="365" type="line"/>
      <point x="141" y="444"/>
      <point x="141" y="538" type="qcurve" smooth="yes"/>
      <point x="141" y="629"/>
      <point x="219" y="812"/>
      <point x="299" y="889" type="qcurve"/>
      <point x="222" y="984" type="line"/>
      <point x="248" y="1006"/>
      <point x="297" y="1050"/>
      <point x="321" y="1072" type="qcurve"/>
      <point x="399" y="971" type="line"/>
      <point x="467" y="1016"/>
      <point x="607" y="1060"/>
      <point x="677" y="1060" type="qcurve" smooth="yes"/>
      <point x="749" y="1060"/>
      <point x="873" y="1013"/>
      <point x="924" y="965" type="qcurve"/>
      <point x="1051" y="1070" type="line"/>
      <point x="1118" y="988" type="line"/>
      <point x="992" y="883" type="line"/>
      <point x="1034" y="806"/>
      <point x="1034" y="713" type="qcurve" smooth="yes"/>
      <point x="1034" y="619"/>
      <point x="951" y="432"/>
      <point x="875" y="355" type="qcurve"/>
      <point x="952" y="260" type="line"/>
      <point x="902" y="216" type="line" smooth="yes"/>
      <point x="898" y="212"/>
      <point x="893" y="208" type="qcurve" smooth="yes"/>
    </contour>
    <contour>
      <point x="493" y="302" type="qcurve" smooth="yes"/>
      <point x="538" y="302"/>
      <point x="636" y="331"/>
      <point x="731" y="383"/>
      <point x="816" y="457"/>
      <point x="881" y="547"/>
      <point x="919" y="652"/>
      <point x="919" y="709" type="qcurve" smooth="yes"/>
      <point x="919" y="763"/>
      <point x="882" y="850"/>
      <point x="816" y="910"/>
      <point x="727" y="942"/>
      <point x="676" y="942" type="qcurve" smooth="yes"/>
      <point x="632" y="942"/>
      <point x="535" y="914"/>
      <point x="441" y="862"/>
      <point x="356" y="787"/>
      <point x="291" y="696"/>
      <point x="252" y="589"/>
      <point x="252" y="530" type="qcurve" smooth="yes"/>
      <point x="252" y="476"/>
      <point x="289" y="392"/>
      <point x="354" y="333"/>
      <point x="442" y="302"/>
    </contour>
  </outline>
</glyph>
<glyph name="yen" format="2">
  <advance width="1301"/>
  <unicode hex="00A5"/>
  <outline>
    <contour>
      <point x="601" y="0" type="line"/>
      <point x="475" y="0" type="line"/>
      <point x="546" y="314" type="line"/>
      <point x="250" y="314" type="line"/>
      <point x="272" y="413" type="line"/>
      <point x="569" y="413" type="line"/>
      <point x="598" y="534" type="line"/>
      <point x="302" y="534" type="line"/>
      <point x="324" y="632" type="line"/>
      <point x="575" y="632" type="line"/>
      <point x="281" y="1396" type="line"/>
      <point x="423" y="1396" type="line"/>
      <point x="695" y="695" type="line"/>
      <point x="1294" y="1396" type="line"/>
      <point x="1441" y="1396" type="line"/>
      <point x="795" y="633" type="line"/>
      <point x="1044" y="633" type="line"/>
      <point x="1022" y="534" type="line"/>
      <point x="724" y="534" type="line"/>
      <point x="695" y="413" type="line"/>
      <point x="993" y="413" type="line"/>
      <point x="970" y="314" type="line"/>
      <point x="672" y="314" type="line"/>
    </contour>
  </outline>
</glyph>
<glyph name="brokenbar" format="2">
  <advance width="615"/>
  <unicode hex="00A6"/>
  <outline>
    <contour>
      <point x="403" y="724" type="line"/>
      <point x="318" y="724" type="line"/>
      <point x="488" y="1457" type="line"/>
      <point x="572" y="1457" type="line"/>
    </contour>
    <contour>
      <point x="165" y="-304" type="line"/>
      <point x="81" y="-304" type="line"/>
      <point x="246" y="413" type="line"/>
      <point x="331" y="413" type="line"/>
    </contour>
  </outline>
</glyph>
<glyph name="ordfeminine" format="2">
  <advance width="1005"/>
  <unicode hex="00AA"/>
  <outline>
    <contour>
      <point x="478" y="702" type="qcurve" smooth="yes"/>
      <point x="437" y="702"/>
      <point x="368" y="725"/>
      <point x="318" y="768"/>
      <point x="289" y="830"/>
      <point x="289" y="869" type="qcurve" smooth="yes"/>
      <point x="289" y="924"/>
      <point x="330" y="1014"/>
      <point x="406" y="1077"/>
      <point x="517" y="1111"/>
      <point x="588" y="1111" type="qcurve"/>
      <point x="809" y="1118" type="line"/>
      <point x="821" y="1169"/>
      <point x="821" y="1207" type="qcurve" smooth="yes"/>
      <point x="821" y="1331"/>
      <point x="693" y="1331" type="qcurve" smooth="yes"/>
      <point x="664" y="1331"/>
      <point x="603" y="1313"/>
      <point x="547" y="1284"/>
      <point x="499" y="1246"/>
      <point x="482" y="1226" type="qcurve"/>
      <point x="406" y="1288" type="line"/>
      <point x="468" y="1351"/>
      <point x="607" y="1417"/>
      <point x="695" y="1417" type="qcurve" smooth="yes"/>
      <point x="806" y="1417"/>
      <point x="920" y="1307"/>
      <point x="920" y="1216" type="qcurve" smooth="yes"/>
      <point x="920" y="1195"/>
      <point x="915" y="1154"/>
      <point x="910" y="1134" type="qcurve" smooth="yes"/>
      <point x="812" y="716" type="line"/>
      <point x="726" y="716" type="line"/>
      <point x="752" y="835" type="line"/>
      <point x="719" y="799"/>
      <point x="657" y="748"/>
      <point x="593" y="716"/>
      <point x="521" y="702"/>
    </contour>
    <contour>
      <point x="503" y="791" type="qcurve" smooth="yes"/>
      <point x="550" y="791"/>
      <point x="643" y="832"/>
      <point x="721" y="900"/>
      <point x="779" y="986"/>
      <point x="790" y="1031" type="qcurve"/>
      <point x="737" y="1029"/>
      <point x="637" y="1026"/>
      <point x="588" y="1026" type="qcurve" smooth="yes"/>
      <point x="553" y="1026"/>
      <point x="487" y="1004"/>
      <point x="434" y="963"/>
      <point x="401" y="907"/>
      <point x="400" y="874" type="qcurve"/>
      <point x="400" y="854"/>
      <point x="418" y="823"/>
      <point x="447" y="802"/>
      <point x="484" y="791"/>
    </contour>
  </outline>
</glyph>
<glyph name="guillemotleft" format="2">
  <advance width="966"/>
  <unicode hex="00AB"/>
  <outline>
    <contour>
      <point x="363" y="191" type="line"/>
      <point x="84" y="505" type="line"/>
      <point x="505" y="817" type="line"/>
      <point x="475" y="672" type="line"/>
      <point x="239" y="506" type="line"/>
      <point x="394" y="338" type="line"/>
    </contour>
    <contour>
      <point x="724" y="191" type="line"/>
      <point x="443" y="505" type="line"/>
      <point x="866" y="817" type="line"/>
      <point x="835" y="672" type="line"/>
      <point x="599" y="506" type="line"/>
      <point x="755" y="338" type="line"/>
    </contour>
  </outline>
</glyph>
<glyph name="logicalnot" format="2">
  <advance width="1278"/>
  <unicode hex="00AC"/>
  <outline>
    <contour>
      <point x="1015" y="288" type="line"/>
      <point x="897" y="288" type="line"/>
      <point x="897" y="673" type="line"/>
      <point x="163" y="673" type="line"/>
      <point x="163" y="786" type="line"/>
      <point x="1015" y="786" type="line"/>
    </contour>
  </outline>
</glyph>
<glyph name="sfthyphen" format="2">
  <advance width="967"/>
  <unicode hex="00AD"/>
  <outline>
    <contour>
      <point x="822" y="587" type="line"/>
      <point x="188" y="587" type="line"/>
      <point x="211" y="682" type="line"/>
      <point x="844" y="682" type="line"/>
    </contour>
  </outline>
</glyph>
<glyph name="registered" format="2">
  <advance width="1788"/>
  <unicode hex="00AE"/>
  <outline>
    <contour>
      <point x="942" y="-49" type="qcurve" smooth="yes"/>
      <point x="840" y="-49"/>
      <point x="651" y="5"/>
      <point x="488" y="104"/>
      <point x="354" y="241"/>
      <point x="258" y="408"/>
      <point x="206" y="598"/>
      <point x="206" y="700" type="qcurve" smooth="yes"/>
      <point x="206" y="802"/>
      <point x="259" y="992"/>
      <point x="355" y="1159"/>
      <point x="489" y="1296"/>
      <point x="653" y="1395"/>
      <point x="841" y="1449"/>
      <point x="942" y="1449" type="qcurve" smooth="yes"/>
      <point x="1043" y="1449"/>
      <point x="1231" y="1394"/>
      <point x="1395" y="1295"/>
      <point x="1530" y="1157"/>
      <point x="1626" y="991"/>
      <point x="1679" y="801"/>
      <point x="1679" y="700" type="qcurve" smooth="yes"/>
      <point x="1679" y="597"/>
      <point x="1626" y="406"/>
      <point x="1529" y="239"/>
      <point x="1393" y="103"/>
      <point x="1229" y="5"/>
      <point x="1042" y="-49"/>
    </contour>
    <contour>
      <point x="942" y="45" type="qcurve" smooth="yes"/>
      <point x="1028" y="45"/>
      <point x="1190" y="92"/>
      <point x="1333" y="178"/>
      <point x="1452" y="297"/>
      <point x="1537" y="443"/>
      <point x="1585" y="610"/>
      <point x="1585" y="700" type="qcurve" smooth="yes"/>
      <point x="1585" y="789"/>
      <point x="1538" y="955"/>
      <point x="1453" y="1100"/>
      <point x="1334" y="1221"/>
      <point x="1191" y="1307"/>
      <point x="1029" y="1355"/>
      <point x="942" y="1355" type="qcurve" smooth="yes"/>
      <point x="856" y="1355"/>
      <point x="694" y="1308"/>
      <point x="551" y="1223"/>
      <point x="431" y="1103"/>
      <point x="346" y="958"/>
      <point x="298" y="790"/>
      <point x="298" y="700" type="qcurve" smooth="yes"/>
      <point x="298" y="614"/>
      <point x="344" y="450"/>
      <point x="427" y="305"/>
      <point x="544" y="182"/>
      <point x="687" y="94"/>
      <point x="852" y="45"/>
    </contour>
    <contour>
      <point x="1279" y="303" type="line"/>
      <point x="1155" y="303" type="line"/>
      <point x="979" y="637" type="line"/>
      <point x="807" y="637" type="line"/>
      <point x="807" y="303" type="line"/>
      <point x="702" y="303" type="line"/>
      <point x="702" y="1083" type="line"/>
      <point x="996" y="1083" type="line" smooth="yes"/>
      <point x="1125" y="1083"/>
      <point x="1248" y="967"/>
      <point x="1248" y="858" type="qcurve" smooth="yes"/>
      <point x="1248" y="764"/>
      <point x="1156" y="657"/>
      <point x="1079" y="646" type="qcurve"/>
    </contour>
    <contour>
      <point x="996" y="730" type="line" smooth="yes"/>
      <point x="1153" y="730"/>
      <point x="1153" y="858" type="qcurve" smooth="yes"/>
      <point x="1153" y="926"/>
      <point x="1074" y="987"/>
      <point x="996" y="987" type="qcurve" smooth="yes"/>
      <point x="797" y="987" type="line"/>
      <point x="797" y="730" type="line"/>
    </contour>
  </outline>
</glyph>
<glyph name="degree" format="2">
  <advance width="990"/>
  <unicode hex="00B0"/>
  <outline>
    <contour>
      <point x="495" y="837" type="qcurve" smooth="yes"/>
      <point x="434" y="837"/>
      <point x="328" y="883"/>
      <point x="249" y="963"/>
      <point x="204" y="1069"/>
      <point x="204" y="1128" type="qcurve" smooth="yes"/>
      <point x="204" y="1189"/>
      <point x="251" y="1296"/>
      <point x="331" y="1374"/>
      <point x="436" y="1419"/>
      <point x="495" y="1419" type="qcurve" smooth="yes"/>
      <point x="555" y="1419"/>
      <point x="660" y="1372"/>
      <point x="739" y="1292"/>
      <point x="784" y="1186"/>
      <point x="784" y="1128" type="qcurve" smooth="yes"/>
      <point x="784" y="1068"/>
      <point x="737" y="962"/>
      <point x="658" y="883"/>
      <point x="553" y="837"/>
    </contour>
    <contour>
      <point x="495" y="918" type="qcurve" smooth="yes"/>
      <point x="531" y="918"/>
      <point x="605" y="946"/>
      <point x="666" y="1000"/>
      <point x="704" y="1078"/>
      <point x="704" y="1128" type="qcurve" smooth="yes"/>
      <point x="704" y="1171"/>
      <point x="670" y="1248"/>
      <point x="612" y="1305"/>
      <point x="536" y="1339"/>
      <point x="495" y="1339" type="qcurve" smooth="yes"/>
      <point x="451" y="1339"/>
      <point x="374" y="1304"/>
      <point x="317" y="1246"/>
      <point x="284" y="1170"/>
      <point x="284" y="1128" type="qcurve" smooth="yes"/>
      <point x="284" y="1084"/>
      <point x="317" y="1007"/>
      <point x="374" y="950"/>
      <point x="451" y="918"/>
    </contour>
  </outline>
</glyph>
<glyph name="threesuperior" format="2">
  <advance width="831"/>
  <unicode hex="00B3"/>
  <outline>
    <contour>
      <point x="300" y="466" type="qcurve" smooth="yes"/>
      <point x="244" y="466"/>
      <point x="146" y="491"/>
      <point x="75" y="544"/>
      <point x="37" y="620"/>
      <point x="37" y="668" type="qcurve" smooth="yes"/>
      <point x="37" y="673"/>
      <point x="37" y="678" type="qcurve" smooth="yes"/>
      <point x="37" y="709"/>
      <point x="46" y="742" type="qcurve"/>
      <point x="68" y="743"/>
      <point x="113" y="744"/>
      <point x="136" y="746" type="qcurve"/>
      <point x="130" y="724"/>
      <point x="130" y="703" type="qcurve" smooth="yes"/>
      <point x="130" y="698"/>
      <point x="130" y="693" type="qcurve"/>
      <point x="132" y="623"/>
      <point x="235" y="550"/>
      <point x="312" y="550" type="qcurve" smooth="yes"/>
      <point x="354" y="550"/>
      <point x="447" y="577"/>
      <point x="527" y="633"/>
      <point x="584" y="717"/>
      <point x="590" y="773" type="qcurve" smooth="yes"/>
      <point x="592" y="787"/>
      <point x="592" y="800" type="qcurve" smooth="yes"/>
      <point x="592" y="823"/>
      <point x="575" y="873"/>
      <point x="529" y="913"/>
      <point x="461" y="934"/>
      <point x="419" y="934" type="qcurve" smooth="yes"/>
      <point x="361" y="934" type="line"/>
      <point x="380" y="1023" type="line"/>
      <point x="434" y="1023" type="line" smooth="yes"/>
      <point x="468" y="1023"/>
      <point x="538" y="1045"/>
      <point x="596" y="1090"/>
      <point x="637" y="1158"/>
      <point x="642" y="1204" type="qcurve" smooth="yes"/>
      <point x="643" y="1215"/>
      <point x="643" y="1226" type="qcurve" smooth="yes"/>
      <point x="643" y="1277"/>
      <point x="572" y="1347"/>
      <point x="505" y="1347" type="qcurve" smooth="yes"/>
      <point x="465" y="1347"/>
      <point x="392" y="1321"/>
      <point x="332" y="1276"/>
      <point x="289" y="1215"/>
      <point x="279" y="1179" type="qcurve"/>
      <point x="201" y="1194" type="line"/>
      <point x="215" y="1251"/>
      <point x="276" y="1340"/>
      <point x="360" y="1402"/>
      <point x="463" y="1434"/>
      <point x="519" y="1434" type="qcurve" smooth="yes"/>
      <point x="565" y="1434"/>
      <point x="649" y="1406"/>
      <point x="710" y="1352"/>
      <point x="736" y="1284"/>
      <point x="736" y="1251" type="qcurve" smooth="yes"/>
      <point x="736" y="1236"/>
      <point x="734" y="1220" type="qcurve" smooth="yes"/>
      <point x="726" y="1143"/>
      <point x="633" y="1019"/>
      <point x="558" y="984" type="qcurve"/>
      <point x="622" y="962"/>
      <point x="681" y="872"/>
      <point x="681" y="809" type="qcurve" smooth="yes"/>
      <point x="681" y="733"/>
      <point x="621" y="607"/>
      <point x="517" y="516"/>
      <point x="378" y="466"/>
    </contour>
  </outline>
</glyph>
<glyph name="acute" format="2">
  <advance width="530"/>
  <unicode hex="00B4"/>
  <outline>
    <contour>
      <point x="338" y="1113" type="line"/>
      <point x="214" y="1113" type="line"/>
      <point x="491" y="1396" type="line"/>
      <point x="669" y="1396" type="line"/>
    </contour>
  </outline>
</glyph>
<glyph name="mu" format="2">
  <advance width="1294"/>
  <unicode hex="00B5"/>
  <outline>
    <contour>
      <point x="208" y="-264" type="line"/>
      <point x="91" y="-264" type="line"/>
      <point x="378" y="986" type="line"/>
      <point x="516" y="986" type="line"/>
      <point x="379" y="388" type="line" smooth="yes"/>
      <point x="371" y="353"/>
      <point x="362" y="290"/>
      <point x="362" y="261" type="qcurve" smooth="yes"/>
      <point x="362" y="119"/>
      <point x="481" y="104" type="qcurve" smooth="yes"/>
      <point x="495" y="102"/>
      <point x="514" y="101"/>
      <point x="517" y="101" type="qcurve" smooth="yes"/>
      <point x="530" y="101"/>
      <point x="544" y="103" type="qcurve"/>
      <point x="605" y="109"/>
      <point x="721" y="168"/>
      <point x="818" y="256"/>
      <point x="887" y="367"/>
      <point x="901" y="425" type="qcurve" smooth="yes"/>
      <point x="918" y="496"/>
      <point x="950" y="636"/>
      <point x="967" y="706" type="qcurve"/>
      <point x="1031" y="986" type="line"/>
      <point x="1169" y="986" type="line"/>
      <point x="943" y="0" type="line"/>
      <point x="805" y="0" type="line"/>
      <point x="848" y="182" type="line"/>
      <point x="821" y="140"/>
      <point x="742" y="65"/>
      <point x="648" y="10"/>
      <point x="544" y="-23"/>
      <point x="492" y="-23" type="qcurve" smooth="yes"/>
      <point x="384" y="-23"/>
      <point x="304" y="36" type="qcurve"/>
      <point x="280" y="-39"/>
      <point x="259" y="-107" type="qcurve"/>
    </contour>
  </outline>
</glyph>
<glyph name="paragraph" format="2">
  <advance width="1364"/>
  <unicode hex="00B6"/>
  <outline>
    <contour>
      <point x="539" y="-244" type="line"/>
      <point x="415" y="-244" type="line"/>
      <point x="620" y="617" type="line"/>
      <point x="542" y="617"/>
      <point x="405" y="659"/>
      <point x="304" y="739"/>
      <point x="247" y="853"/>
      <point x="247" y="923" type="qcurve" smooth="yes"/>
      <point x="247" y="926"/>
      <point x="247" y="928" type="qcurve" smooth="yes"/>
      <point x="247" y="1031"/>
      <point x="339" y="1204"/>
      <point x="491" y="1327"/>
      <point x="685" y="1396"/>
      <point x="786" y="1396" type="qcurve" smooth="yes"/>
      <point x="918" y="1396" type="line"/>
      <point x="828" y="1008"/>
      <point x="651" y="235"/>
      <point x="561" y="-152" type="qcurve" smooth="yes"/>
    </contour>
    <contour>
      <point x="907" y="-244" type="line"/>
      <point x="783" y="-244" type="line"/>
      <point x="878" y="166"/>
      <point x="1066" y="986"/>
      <point x="1162" y="1396" type="qcurve"/>
      <point x="1286" y="1396" type="line"/>
    </contour>
  </outline>
</glyph>
<glyph name="cedilla" format="2">
  <advance width="559"/>
  <unicode hex="00B8"/>
  <anchor x="42" y="-500" name="b.uni0326_2"/>
  <outline>
    <contour>
      <point x="47" y="-496" type="qcurve" smooth="yes"/>
      <point x="16" y="-496"/>
      <point x="-38" y="-476"/>
      <point x="-79" y="-441"/>
      <point x="-106" y="-396"/>
      <point x="-110" y="-370" type="qcurve"/>
      <point x="-14" y="-335" type="line"/>
      <point x="-14" y="-340" type="line" smooth="yes"/>
      <point x="-14" y="-365"/>
      <point x="20" y="-404"/>
      <point x="54" y="-404" type="qcurve" smooth="yes"/>
      <point x="79" y="-404"/>
      <point x="129" y="-382"/>
      <point x="169" y="-345"/>
      <point x="194" y="-297"/>
      <point x="194" y="-271" type="qcurve" smooth="yes"/>
      <point x="194" y="-229"/>
      <point x="117" y="-176"/>
      <point x="39" y="-176" type="qcurve" smooth="yes"/>
      <point x="0" y="-176" type="line"/>
      <point x="30" y="-133"/>
      <point x="94" y="-47"/>
      <point x="125" y="-3" type="qcurve"/>
      <point x="238" y="-3" type="line"/>
      <point x="214" y="-30"/>
      <point x="163" y="-90"/>
      <point x="136" y="-122" type="qcurve"/>
      <point x="213" y="-124"/>
      <point x="290" y="-200"/>
      <point x="290" y="-261" type="qcurve" smooth="yes"/>
      <point x="290" y="-304"/>
      <point x="251" y="-388"/>
      <point x="185" y="-455"/>
      <point x="97" y="-496"/>
    </contour>
  </outline>
</glyph>
<glyph name="onesuperior" format="2">
  <advance width="913"/>
  <unicode hex="00B9"/>
  <outline>
    <contour>
      <point x="462" y="482" type="line"/>
      <point x="364" y="482" type="line"/>
      <point x="539" y="1201" type="line"/>
      <point x="295" y="1201" type="line"/>
      <point x="321" y="1283" type="line"/>
      <point x="444" y="1283" type="line" smooth="yes"/>
      <point x="500" y="1283"/>
      <point x="582" y="1350"/>
      <point x="594" y="1404" type="qcurve" smooth="yes"/>
      <point x="597" y="1417" type="line"/>
      <point x="692" y="1417" type="line"/>
    </contour>
  </outline>
</glyph>
<glyph name="ordmasculine" format="2">
  <advance width="962"/>
  <unicode hex="00BA"/>
  <outline>
    <contour>
      <point x="541" y="704" type="qcurve" smooth="yes"/>
      <point x="478" y="704"/>
      <point x="378" y="745"/>
      <point x="309" y="819"/>
      <point x="273" y="919"/>
      <point x="273" y="979" type="qcurve" smooth="yes"/>
      <point x="273" y="1027"/>
      <point x="299" y="1129"/>
      <point x="348" y="1227"/>
      <point x="420" y="1313"/>
      <point x="511" y="1379"/>
      <point x="621" y="1417"/>
      <point x="684" y="1417" type="qcurve" smooth="yes"/>
      <point x="745" y="1417"/>
      <point x="844" y="1376"/>
      <point x="913" y="1303"/>
      <point x="950" y="1203"/>
      <point x="950" y="1143" type="qcurve" smooth="yes"/>
      <point x="950" y="1065"/>
      <point x="890" y="908"/>
      <point x="781" y="782"/>
      <point x="631" y="704"/>
    </contour>
    <contour>
      <point x="543" y="802" type="qcurve" smooth="yes"/>
      <point x="603" y="802"/>
      <point x="710" y="858"/>
      <point x="789" y="956"/>
      <point x="836" y="1086"/>
      <point x="836" y="1161" type="qcurve" smooth="yes"/>
      <point x="836" y="1232"/>
      <point x="765" y="1320"/>
      <point x="684" y="1320" type="qcurve" smooth="yes"/>
      <point x="621" y="1320"/>
      <point x="512" y="1263"/>
      <point x="432" y="1165"/>
      <point x="387" y="1034"/>
      <point x="387" y="960" type="qcurve" smooth="yes"/>
      <point x="387" y="889"/>
      <point x="459" y="802"/>
    </contour>
  </outline>
</glyph>
<glyph name="AE" format="2">
  <advance width="1801"/>
  <unicode hex="00C6"/>
  <outline>
    <contour>
      <point x="1571" y="0" type="line"/>
      <point x="695" y="0" type="line"/>
      <point x="765" y="304" type="line"/>
      <point x="289" y="304" type="line"/>
      <point x="109" y="0" type="line"/>
      <point x="-35" y="0" type="line"/>
      <point x="801" y="1396" type="line"/>
      <point x="1893" y="1396" type="line"/>
      <point x="1868" y="1288" type="line"/>
      <point x="1128" y="1288" type="line"/>
      <point x="1005" y="755" type="line"/>
      <point x="1658" y="755" type="line"/>
      <point x="1631" y="641" type="line"/>
      <point x="978" y="641" type="line"/>
      <point x="857" y="115" type="line"/>
      <point x="1597" y="115" type="line"/>
    </contour>
    <contour>
      <point x="795" y="429" type="line"/>
      <point x="993" y="1288" type="line"/>
      <point x="868" y="1288" type="line"/>
      <point x="358" y="429" type="line"/>
    </contour>
  </outline>
</glyph>
<glyph name="multiply" format="2">
  <advance width="1106"/>
  <unicode hex="00D7"/>
  <outline>
    <contour>
      <point x="883" y="220" type="line"/>
      <point x="555" y="550" type="line"/>
      <point x="234" y="229" type="line"/>
      <point x="165" y="296" type="line"/>
      <point x="486" y="617" type="line"/>
      <point x="158" y="944" type="line"/>
      <point x="226" y="1013" type="line"/>
      <point x="555" y="684" type="line"/>
      <point x="874" y="1004" type="line"/>
      <point x="942" y="937" type="line"/>
      <point x="622" y="617" type="line"/>
      <point x="950" y="289" type="line"/>
    </contour>
  </outline>
</glyph>
<glyph name="Oslash" format="2">
  <advance width="1509"/>
  <unicode hex="00D8"/>
  <outline>
    <contour>
      <point x="350" y="55" type="qcurve"/>
      <point x="306" y="0" type="line"/>
      <point x="190" y="0" type="line"/>
      <point x="280" y="114" type="line"/>
      <point x="264" y="131"/>
      <point x="250" y="155" type="qcurve"/>
      <point x="203" y="218"/>
      <point x="157" y="381"/>
      <point x="157" y="481" type="qcurve" smooth="yes"/>
      <point x="157" y="602"/>
      <point x="218" y="851"/>
      <point x="333" y="1077"/>
      <point x="498" y="1266"/>
      <point x="602" y="1327" type="qcurve" smooth="yes"/>
      <point x="759" y="1419"/>
      <point x="956" y="1419" type="qcurve" smooth="yes"/>
      <point x="1133" y="1419"/>
      <point x="1251" y="1342" type="qcurve"/>
      <point x="1293" y="1396" type="line"/>
      <point x="1410" y="1396" type="line"/>
      <point x="1321" y="1284" type="line"/>
      <point x="1447" y="1150"/>
      <point x="1447" y="915" type="qcurve" smooth="yes"/>
      <point x="1447" y="786"/>
      <point x="1381" y="532"/>
      <point x="1263" y="309"/>
      <point x="1098" y="127"/>
      <point x="999" y="69" type="qcurve" smooth="yes"/>
      <point x="841" y="-22"/>
      <point x="645" y="-22" type="qcurve" smooth="yes"/>
      <point x="554" y="-22"/>
      <point x="410" y="16"/>
    </contour>
    <contour>
      <point x="368" y="225" type="qcurve"/>
      <point x="1165" y="1234" type="line"/>
      <point x="1078" y="1288"/>
      <point x="946" y="1288" type="qcurve" smooth="yes"/>
      <point x="830" y="1288"/>
      <point x="626" y="1200"/>
      <point x="463" y="1041"/>
      <point x="344" y="819"/>
      <point x="313" y="685" type="qcurve"/>
      <point x="289" y="586"/>
      <point x="289" y="492" type="qcurve" smooth="yes"/>
      <point x="289" y="322"/>
    </contour>
    <contour>
      <point x="436" y="163" type="line"/>
      <point x="521" y="108"/>
      <point x="652" y="108" type="qcurve" smooth="yes"/>
      <point x="775" y="108"/>
      <point x="984" y="202"/>
      <point x="1149" y="365"/>
      <point x="1264" y="585"/>
      <point x="1294" y="711" type="qcurve"/>
      <point x="1317" y="815"/>
      <point x="1317" y="904" type="qcurve" smooth="yes"/>
      <point x="1317" y="1073"/>
      <point x="1234" y="1174" type="qcurve"/>
    </contour>
  </outline>
</glyph>
<glyph name="Thorn" format="2">
  <advance width="1142"/>
  <unicode hex="00DE"/>
  <outline>
    <contour>
      <point x="219" y="0" type="line"/>
      <point x="82" y="0" type="line"/>
      <point x="405" y="1396" type="line"/>
      <point x="540" y="1396" type="line"/>
      <point x="494" y="1197" type="line"/>
      <point x="743" y="1197" type="line" smooth="yes"/>
      <point x="822" y="1197"/>
      <point x="954" y="1160"/>
      <point x="1048" y="1087"/>
      <point x="1102" y="980"/>
      <point x="1103" y="911" type="qcurve"/>
      <point x="1103" y="908"/>
      <point x="1103" y="905" type="qcurve" smooth="yes"/>
      <point x="1103" y="833"/>
      <point x="1059" y="702"/>
      <point x="981" y="592"/>
      <point x="878" y="508"/>
      <point x="820" y="483" type="qcurve" smooth="yes"/>
      <point x="707" y="435"/>
      <point x="570" y="435" type="qcurve" smooth="yes"/>
      <point x="318" y="435" type="line"/>
    </contour>
    <contour>
      <point x="593" y="561" type="line" smooth="yes"/>
      <point x="662" y="561"/>
      <point x="788" y="595"/>
      <point x="887" y="665"/>
      <point x="952" y="773"/>
      <point x="960" y="847" type="qcurve"/>
      <point x="963" y="866"/>
      <point x="963" y="884" type="qcurve" smooth="yes"/>
      <point x="963" y="960"/>
      <point x="846" y="1060"/>
      <point x="715" y="1060" type="qcurve" smooth="yes"/>
      <point x="463" y="1060" type="line"/>
      <point x="347" y="561" type="line"/>
    </contour>
  </outline>
</glyph>
<glyph name="germandbls" format="2">
  <advance width="1170"/>
  <unicode hex="00DF"/>
  <outline>
    <contour>
      <point x="604" y="-18" type="qcurve" smooth="yes"/>
      <point x="568" y="-18"/>
      <point x="503" y="-9"/>
      <point x="440" y="9"/>
      <point x="376" y="36"/>
      <point x="341" y="54" type="qcurve"/>
      <point x="415" y="172" type="line"/>
      <point x="459" y="142"/>
      <point x="565" y="113"/>
      <point x="613" y="113" type="qcurve" smooth="yes"/>
      <point x="657" y="113"/>
      <point x="749" y="149"/>
      <point x="823" y="212"/>
      <point x="870" y="295"/>
      <point x="870" y="342" type="qcurve" smooth="yes"/>
      <point x="870" y="367"/>
      <point x="860" y="408"/>
      <point x="835" y="449"/>
      <point x="794" y="496"/>
      <point x="763" y="527" type="qcurve" smooth="yes"/>
      <point x="733" y="556"/>
      <point x="690" y="604"/>
      <point x="663" y="650"/>
      <point x="651" y="697"/>
      <point x="651" y="726" type="qcurve" smooth="yes"/>
      <point x="651" y="769"/>
      <point x="675" y="828"/>
      <point x="726" y="880"/>
      <point x="806" y="935"/>
      <point x="861" y="974" type="qcurve" smooth="yes"/>
      <point x="909" y="1008"/>
      <point x="967" y="1094"/>
      <point x="967" y="1162" type="qcurve" smooth="yes"/>
      <point x="967" y="1190"/>
      <point x="941" y="1240"/>
      <point x="891" y="1278"/>
      <point x="818" y="1299"/>
      <point x="770" y="1299" type="qcurve" smooth="yes"/>
      <point x="634" y="1299"/>
      <point x="438" y="1089"/>
      <point x="390" y="878" type="qcurve" smooth="yes"/>
      <point x="188" y="0" type="line"/>
      <point x="63" y="0" type="line"/>
      <point x="114" y="224"/>
      <point x="218" y="665"/>
      <point x="269" y="891" type="qcurve" smooth="yes"/>
      <point x="300" y="1027"/>
      <point x="397" y="1225"/>
      <point x="526" y="1354"/>
      <point x="683" y="1417"/>
      <point x="775" y="1417" type="qcurve" smooth="yes"/>
      <point x="838" y="1417"/>
      <point x="955" y="1378"/>
      <point x="1044" y="1306"/>
      <point x="1097" y="1206"/>
      <point x="1097" y="1145" type="qcurve" smooth="yes"/>
      <point x="1097" y="1099"/>
      <point x="1076" y="1028"/>
      <point x="1037" y="972"/>
      <point x="984" y="928"/>
      <point x="953" y="910" type="qcurve" smooth="yes"/>
      <point x="908" y="884"/>
      <point x="847" y="844"/>
      <point x="808" y="805"/>
      <point x="788" y="763"/>
      <point x="785" y="736" type="qcurve"/>
      <point x="785" y="727"/>
      <point x="787" y="709"/>
      <point x="790" y="701" type="qcurve"/>
      <point x="794" y="681"/>
      <point x="816" y="648"/>
      <point x="852" y="610"/>
      <point x="903" y="561"/>
      <point x="935" y="526" type="qcurve" smooth="yes"/>
      <point x="967" y="490"/>
      <point x="1002" y="409"/>
      <point x="1002" y="358" type="qcurve" smooth="yes"/>
      <point x="1002" y="282"/>
      <point x="937" y="146"/>
      <point x="827" y="43"/>
      <point x="683" y="-18"/>
    </contour>
  </outline>
</glyph>
<glyph name="eth" format="2">
  <advance width="1148"/>
  <unicode hex="00F0"/>
  <outline>
    <contour>
      <point x="455" y="-16" type="qcurve" smooth="yes"/>
      <point x="367" y="-16"/>
      <point x="230" y="41"/>
      <point x="136" y="145"/>
      <point x="87" y="288"/>
      <point x="87" y="375" type="qcurve" smooth="yes"/>
      <point x="87" y="447"/>
      <point x="123" y="597"/>
      <point x="191" y="738"/>
      <point x="289" y="861"/>
      <point x="414" y="954"/>
      <point x="564" y="1007"/>
      <point x="650" y="1007" type="qcurve" smooth="yes"/>
      <point x="696" y="1007"/>
      <point x="779" y="990"/>
      <point x="848" y="961"/>
      <point x="900" y="921"/>
      <point x="914" y="897" type="qcurve"/>
      <point x="915" y="910"/>
      <point x="917" y="922"/>
      <point x="917" y="928" type="qcurve" smooth="yes"/>
      <point x="917" y="950"/>
      <point x="914" y="971" type="qcurve"/>
      <point x="899" y="1128"/>
      <point x="739" y="1264" type="qcurve"/>
      <point x="615" y="1125" type="line"/>
      <point x="538" y="1181" type="line"/>
      <point x="663" y="1321" type="line"/>
      <point x="625" y="1344"/>
      <point x="549" y="1385"/>
      <point x="512" y="1402" type="qcurve"/>
      <point x="520" y="1413"/>
      <point x="541" y="1436"/>
      <point x="552" y="1448" type="qcurve" smooth="yes"/>
      <point x="593" y="1495" type="line"/>
      <point x="640" y="1474"/>
      <point x="716" y="1435"/>
      <point x="746" y="1416" type="qcurve"/>
      <point x="830" y="1509" type="line"/>
      <point x="910" y="1455" type="line"/>
      <point x="825" y="1360" type="line"/>
      <point x="952" y="1259"/>
      <point x="1069" y="996"/>
      <point x="1069" y="826" type="qcurve" smooth="yes"/>
      <point x="1069" y="714"/>
      <point x="1031" y="488"/>
      <point x="947" y="283"/>
      <point x="811" y="112"/>
      <point x="713" y="54" type="qcurve" smooth="yes"/>
      <point x="595" y="-16"/>
    </contour>
    <contour>
      <point x="463" y="106" type="qcurve" smooth="yes"/>
      <point x="541" y="106"/>
      <point x="678" y="171"/>
      <point x="788" y="283"/>
      <point x="868" y="435"/>
      <point x="888" y="522" type="qcurve" smooth="yes"/>
      <point x="896" y="555"/>
      <point x="904" y="620"/>
      <point x="904" y="652" type="qcurve" smooth="yes"/>
      <point x="904" y="706"/>
      <point x="874" y="798"/>
      <point x="816" y="865"/>
      <point x="728" y="903"/>
      <point x="671" y="903" type="qcurve" smooth="yes"/>
      <point x="606" y="903"/>
      <point x="491" y="861"/>
      <point x="393" y="787"/>
      <point x="314" y="686"/>
      <point x="259" y="567"/>
      <point x="229" y="436"/>
      <point x="229" y="370" type="qcurve" smooth="yes"/>
      <point x="229" y="248"/>
      <point x="346" y="106"/>
    </contour>
  </outline>
</glyph>
<glyph name="divide" format="2">
  <advance width="898"/>
  <unicode hex="00F7"/>
  <outline>
    <contour>
      <point x="532" y="907" type="line"/>
      <point x="356" y="907" type="line"/>
      <point x="356" y="1082" type="line"/>
      <point x="532" y="1082" type="line"/>
    </contour>
    <contour>
      <point x="749" y="572" type="line"/>
      <point x="139" y="572" type="line"/>
      <point x="139" y="668" type="line"/>
      <point x="749" y="668" type="line"/>
    </contour>
    <contour>
      <point x="532" y="140" type="line"/>
      <point x="356" y="140" type="line"/>
      <point x="356" y="314" type="line"/>
      <point x="532" y="314" type="line"/>
    </contour>
  </outline>
</glyph>
<glyph name="thorn" format="2">
  <advance width="1131"/>
  <unicode hex="00FE"/>
  <outline>
    <contour>
      <point x="94" y="-434" type="line"/>
      <point x="-29" y="-434" type="line"/>
      <point x="394" y="1396" type="line"/>
      <point x="517" y="1396" type="line"/>
      <point x="383" y="825" type="line"/>
      <point x="526" y="1007"/>
      <point x="746" y="1007" type="qcurve" smooth="yes"/>
      <point x="816" y="1007"/>
      <point x="924" y="959"/>
      <point x="998" y="869"/>
      <point x="1036" y="741"/>
      <point x="1036" y="662" type="qcurve" smooth="yes"/>
      <point x="1036" y="584"/>
      <point x="1003" y="422"/>
      <point x="940" y="271"/>
      <point x="851" y="137"/>
      <point x="739" y="38"/>
      <point x="606" y="-20"/>
      <point x="531" y="-20" type="qcurve" smooth="yes"/>
      <point x="413" y="-20"/>
      <point x="268" y="79"/>
      <point x="239" y="173" type="qcurve"/>
      <point x="221" y="99"/>
      <point x="188" y="-42"/>
      <point x="171" y="-113" type="qcurve" smooth="yes"/>
    </contour>
    <contour>
      <point x="494" y="82" type="qcurve" smooth="yes"/>
      <point x="568" y="82"/>
      <point x="698" y="145"/>
      <point x="803" y="258"/>
      <point x="880" y="412"/>
      <point x="900" y="503" type="qcurve" smooth="yes"/>
      <point x="919" y="591"/>
      <point x="919" y="654" type="qcurve" smooth="yes"/>
      <point x="919" y="711"/>
      <point x="893" y="803"/>
      <point x="840" y="868"/>
      <point x="758" y="904"/>
      <point x="703" y="904" type="qcurve" smooth="yes"/>
      <point x="636" y="904"/>
      <point x="521" y="854"/>
      <point x="426" y="770"/>
      <point x="352" y="657"/>
      <point x="301" y="530"/>
      <point x="274" y="397"/>
      <point x="274" y="334" type="qcurve" smooth="yes"/>
      <point x="274" y="216"/>
      <point x="382" y="82"/>
    </contour>
  </outline>
</glyph>
<glyph name="Dcaron" format="2">
  <advance width="1396"/>
  <unicode hex="010E"/>
  <outline>
    <contour>
      <point x="946" y="1480" type="line"/>
      <point x="695" y="1805" type="line"/>
      <point x="843" y="1805" type="line"/>
      <point x="971" y="1617" type="line"/>
      <point x="1192" y="1805" type="line"/>
      <point x="1345" y="1805" type="line"/>
    </contour>
    <contour>
      <point x="455" y="0" type="qcurve" smooth="yes"/>
      <point x="108" y="0" type="line"/>
      <point x="188" y="351"/>
      <point x="348" y="1044"/>
      <point x="430" y="1396" type="qcurve"/>
      <point x="725" y="1396" type="line" smooth="yes"/>
      <point x="1026" y="1396"/>
      <point x="1337" y="1158"/>
      <point x="1337" y="905" type="qcurve" smooth="yes"/>
      <point x="1337" y="827"/>
      <point x="1307" y="661"/>
      <point x="1254" y="502"/>
      <point x="1180" y="358"/>
      <point x="1137" y="302" type="qcurve" smooth="yes"/>
      <point x="1020" y="150"/>
      <point x="677" y="0"/>
    </contour>
    <contour>
      <point x="450" y="123" type="line" smooth="yes"/>
      <point x="579" y="123"/>
      <point x="813" y="198"/>
      <point x="1006" y="346"/>
      <point x="1146" y="566"/>
      <point x="1181" y="711" type="qcurve"/>
      <point x="1204" y="814"/>
      <point x="1204" y="895" type="qcurve" smooth="yes"/>
      <point x="1204" y="1085"/>
      <point x="972" y="1277"/>
      <point x="748" y="1277" type="qcurve" smooth="yes"/>
      <point x="539" y="1277" type="line"/>
      <point x="272" y="123" type="line"/>
    </contour>
  </outline>
</glyph>
<glyph name="dcroat" format="2">
  <advance width="1115"/>
  <unicode hex="0111"/>
  <outline>
    <contour>
      <point x="388" y="-20" type="qcurve" smooth="yes"/>
      <point x="316" y="-20"/>
      <point x="204" y="30"/>
      <point x="127" y="122"/>
      <point x="88" y="252"/>
      <point x="88" y="332" type="qcurve" smooth="yes"/>
      <point x="88" y="406"/>
      <point x="120" y="564"/>
      <point x="182" y="714"/>
      <point x="272" y="848"/>
      <point x="386" y="948"/>
      <point x="524" y="1007"/>
      <point x="603" y="1007" type="qcurve" smooth="yes"/>
      <point x="812" y="1007"/>
      <point x="889" y="837" type="qcurve"/>
      <point x="963" y="1151" type="line"/>
      <point x="663" y="1151" type="line"/>
      <point x="665" y="1160"/>
      <point x="670" y="1181"/>
      <point x="673" y="1192" type="qcurve" smooth="yes"/>
      <point x="687" y="1254" type="line"/>
      <point x="987" y="1254" type="line"/>
      <point x="991" y="1272"/>
      <point x="995" y="1289" type="qcurve" smooth="yes"/>
      <point x="1013" y="1361" type="line" smooth="yes"/>
      <point x="1017" y="1379"/>
      <point x="1021" y="1396" type="qcurve"/>
      <point x="1146" y="1396" type="line"/>
      <point x="1138" y="1359"/>
      <point x="1122" y="1288"/>
      <point x="1114" y="1254" type="qcurve"/>
      <point x="1312" y="1254" type="line"/>
      <point x="1303" y="1212" type="line"/>
      <point x="1294" y="1179"/>
      <point x="1288" y="1151" type="qcurve"/>
      <point x="1090" y="1151" type="line"/>
      <point x="1023" y="858"/>
      <point x="890" y="289"/>
      <point x="824" y="0" type="qcurve"/>
      <point x="700" y="0" type="line"/>
      <point x="729" y="135" type="line"/>
      <point x="655" y="56"/>
      <point x="492" y="-20"/>
    </contour>
    <contour>
      <point x="427" y="94" type="qcurve" smooth="yes"/>
      <point x="502" y="94"/>
      <point x="630" y="155"/>
      <point x="731" y="264"/>
      <point x="804" y="416"/>
      <point x="825" y="506" type="qcurve" smooth="yes"/>
      <point x="843" y="582"/>
      <point x="843" y="651" type="qcurve" smooth="yes"/>
      <point x="843" y="761"/>
      <point x="739" y="890"/>
      <point x="632" y="890" type="qcurve" smooth="yes"/>
      <point x="556" y="890"/>
      <point x="428" y="827"/>
      <point x="326" y="717"/>
      <point x="253" y="567"/>
      <point x="234" y="481" type="qcurve"/>
      <point x="215" y="406"/>
      <point x="215" y="336" type="qcurve" smooth="yes"/>
      <point x="215" y="223"/>
      <point x="320" y="94"/>
    </contour>
  </outline>
</glyph>
<glyph name="Hbar" format="2">
  <advance width="1441"/>
  <unicode hex="0126"/>
  <outline>
    <contour>
      <point x="1107" y="0" type="line"/>
      <point x="972" y="0" type="line"/>
      <point x="1119" y="644" type="line"/>
      <point x="391" y="644" type="line"/>
      <point x="243" y="0" type="line"/>
      <point x="108" y="0" type="line"/>
      <point x="353" y="1066" type="line"/>
      <point x="236" y="1066" type="line"/>
      <point x="252" y="1140" type="line"/>
      <point x="371" y="1140" type="line"/>
      <point x="430" y="1396" type="line"/>
      <point x="565" y="1396" type="line"/>
      <point x="506" y="1140" type="line"/>
      <point x="1235" y="1140" type="line"/>
      <point x="1294" y="1396" type="line"/>
      <point x="1429" y="1396" type="line"/>
      <point x="1370" y="1140" type="line"/>
      <point x="1482" y="1140" type="line"/>
      <point x="1465" y="1066" type="line"/>
      <point x="1352" y="1066" type="line"/>
    </contour>
    <contour>
      <point x="1146" y="753" type="line"/>
      <point x="1218" y="1066" type="line"/>
      <point x="489" y="1066" type="line"/>
      <point x="418" y="753" type="line"/>
    </contour>
  </outline>
</glyph>
<glyph name="iogonek" format="2">
  <advance width="497"/>
  <unicode hex="012F"/>
  <outline>
    <contour>
      <point x="490" y="1215" type="line"/>
      <point x="338" y="1215" type="line"/>
      <point x="381" y="1396" type="line"/>
      <point x="532" y="1396" type="line"/>
      <point x="523" y="1360"/>
      <point x="516" y="1327" type="qcurve" smooth="yes"/>
    </contour>
    <contour>
      <point x="-22" y="-447" type="qcurve" smooth="yes"/>
      <point x="-95" y="-447"/>
      <point x="-187" y="-362"/>
      <point x="-187" y="-287" type="qcurve" smooth="yes"/>
      <point x="-187" y="-238"/>
      <point x="-147" y="-149"/>
      <point x="-74" y="-75"/>
      <point x="28" y="-18"/>
      <point x="90" y="0" type="qcurve"/>
      <point x="71" y="0" type="line"/>
      <point x="127" y="247"/>
      <point x="240" y="737"/>
      <point x="297" y="986" type="qcurve"/>
      <point x="426" y="986" type="line"/>
      <point x="199" y="0" type="line"/>
      <point x="177" y="0"/>
      <point x="146" y="-10" type="qcurve"/>
      <point x="149" y="-10"/>
      <point x="151" y="-10" type="qcurve"/>
      <point x="162" y="-11" type="line"/>
      <point x="165" y="-11"/>
      <point x="167" y="-11" type="qcurve"/>
      <point x="132" y="-27"/>
      <point x="49" y="-75"/>
      <point x="-26" y="-138"/>
      <point x="-82" y="-216"/>
      <point x="-88" y="-261" type="qcurve" smooth="yes"/>
      <point x="-89" y="-266"/>
      <point x="-89" y="-271" type="qcurve" smooth="yes"/>
      <point x="-89" y="-288"/>
      <point x="-81" y="-303" type="qcurve"/>
      <point x="-77" y="-323"/>
      <point x="-50" y="-344"/>
      <point x="-30" y="-344" type="qcurve" smooth="yes"/>
      <point x="55" y="-344"/>
      <point x="117" y="-275" type="qcurve"/>
      <point x="194" y="-343" type="line"/>
      <point x="146" y="-394"/>
      <point x="45" y="-447"/>
    </contour>
  </outline>
</glyph>
<glyph name="dotlessi" format="2">
  <advance width="497"/>
  <unicode hex="0131"/>
  <outline>
    <contour>
      <point x="199" y="0" type="line"/>
      <point x="71" y="0" type="line"/>
      <point x="297" y="986" type="line"/>
      <point x="426" y="986" type="line"/>
    </contour>
  </outline>
</glyph>
<glyph name="kgreenlandic" format="2">
  <advance width="1024"/>
  <unicode hex="0138"/>
  <outline>
    <contour>
      <point x="391" y="987" type="line"/>
      <point x="267" y="453" type="line"/>
      <point x="847" y="986" type="line"/>
      <point x="1004" y="986" type="line"/>
      <point x="608" y="623" type="line"/>
      <point x="840" y="0" type="line"/>
      <point x="692" y="0" type="line"/>
      <point x="509" y="528" type="line"/>
      <point x="231" y="288" type="line"/>
      <point x="164" y="0" type="line"/>
      <point x="38" y="0" type="line"/>
      <point x="265" y="987" type="line"/>
    </contour>
  </outline>
</glyph>
<glyph name="Lcaron" format="2">
  <advance width="1021"/>
  <unicode hex="013D"/>
  <outline>
    <contour>
      <point x="837" y="0" type="line"/>
      <point x="103" y="0" type="line"/>
      <point x="426" y="1396" type="line"/>
      <point x="561" y="1396" type="line"/>
      <point x="265" y="122" type="line"/>
      <point x="864" y="122" type="line"/>
    </contour>
    <contour>
      <point x="803" y="1019" type="line"/>
      <point x="702" y="1019" type="line"/>
      <point x="889" y="1396" type="line"/>
      <point x="1090" y="1396" type="line"/>
    </contour>
  </outline>
</glyph>
<glyph name="ldot" format="2">
  <advance width="677"/>
  <unicode hex="0140"/>
  <outline>
    <contour>
      <point x="187" y="-20" type="qcurve" smooth="yes"/>
      <point x="70" y="-20"/>
      <point x="67" y="69" type="qcurve"/>
      <point x="65" y="80"/>
      <point x="65" y="94" type="qcurve" smooth="yes"/>
      <point x="65" y="98"/>
      <point x="65" y="103" type="qcurve"/>
      <point x="68" y="137"/>
      <point x="83" y="204" type="qcurve" smooth="yes"/>
      <point x="133" y="421"/>
      <point x="271" y="1017"/>
      <point x="358" y="1396" type="qcurve"/>
      <point x="485" y="1396" type="line"/>
      <point x="195" y="136" type="line"/>
      <point x="195" y="130"/>
      <point x="195" y="120"/>
      <point x="196" y="116" type="qcurve"/>
      <point x="199" y="87"/>
      <point x="235" y="87" type="qcurve" smooth="yes"/>
      <point x="246" y="87"/>
      <point x="295" y="91"/>
      <point x="328" y="102" type="qcurve"/>
      <point x="310" y="-2" type="line"/>
      <point x="283" y="-11"/>
      <point x="217" y="-20"/>
    </contour>
    <contour>
      <point x="541" y="571" type="qcurve" smooth="yes"/>
      <point x="496" y="571"/>
      <point x="440" y="626"/>
      <point x="440" y="670" type="qcurve" smooth="yes"/>
      <point x="440" y="700"/>
      <point x="463" y="750"/>
      <point x="500" y="786"/>
      <point x="548" y="806"/>
      <point x="574" y="806" type="qcurve" smooth="yes"/>
      <point x="618" y="806"/>
      <point x="676" y="752"/>
      <point x="676" y="707" type="qcurve" smooth="yes"/>
      <point x="676" y="683"/>
      <point x="655" y="634"/>
      <point x="619" y="595"/>
      <point x="569" y="571"/>
    </contour>
  </outline>
</glyph>
<glyph name="Lslash" format="2">
  <advance width="1048"/>
  <unicode hex="0141"/>
  <outline>
    <contour>
      <point x="866" y="0" type="line"/>
      <point x="132" y="0" type="line"/>
      <point x="243" y="481" type="line"/>
      <point x="21" y="338" type="line"/>
      <point x="58" y="475" type="line"/>
      <point x="275" y="620" type="line"/>
      <point x="454" y="1396" type="line"/>
      <point x="589" y="1396" type="line"/>
      <point x="434" y="725" type="line"/>
      <point x="847" y="1000" type="line"/>
      <point x="805" y="841" type="line"/>
      <point x="401" y="582" type="line"/>
      <point x="294" y="122" type="line"/>
      <point x="893" y="122" type="line"/>
    </contour>
  </outline>
</glyph>
<glyph name="lslash" format="2">
  <advance width="509"/>
  <unicode hex="0142"/>
  <outline>
    <contour>
      <point x="372" y="798" type="line"/>
      <point x="377" y="802"/>
      <point x="385" y="810"/>
      <point x="389" y="814" type="qcurve" smooth="yes"/>
      <point x="570" y="998" type="line"/>
      <point x="518" y="827" type="line"/>
      <point x="336" y="641" type="line"/>
      <point x="219" y="136" type="line"/>
      <point x="219" y="130"/>
      <point x="219" y="120"/>
      <point x="220" y="116" type="qcurve" smooth="yes"/>
      <point x="225" y="87"/>
      <point x="259" y="87" type="qcurve" smooth="yes"/>
      <point x="270" y="87"/>
      <point x="321" y="92"/>
      <point x="353" y="102" type="qcurve"/>
      <point x="334" y="-2" type="line"/>
      <point x="308" y="-10"/>
      <point x="243" y="-20"/>
      <point x="211" y="-20" type="qcurve" smooth="yes"/>
      <point x="87" y="-20"/>
      <point x="87" y="78" type="qcurve" smooth="yes"/>
      <point x="87" y="86"/>
      <point x="88" y="95" type="qcurve"/>
      <point x="88" y="111"/>
      <point x="102" y="182"/>
      <point x="125" y="281"/>
      <point x="154" y="403"/>
      <point x="170" y="471" type="qcurve"/>
      <point x="-8" y="292" type="line"/>
      <point x="43" y="463" type="line"/>
      <point x="85" y="505"/>
      <point x="165" y="586"/>
      <point x="206" y="628" type="qcurve"/>
      <point x="383" y="1396" type="line"/>
      <point x="510" y="1396" type="line"/>
    </contour>
  </outline>
</glyph>
<glyph name="Eng" format="2">
  <advance width="1399"/>
  <unicode hex="014A"/>
  <outline>
    <contour>
      <point x="719" y="-365" type="qcurve" smooth="yes"/>
      <point x="643" y="-365" type="line"/>
      <point x="663" y="-257" type="line"/>
      <point x="714" y="-257"/>
      <point x="798" y="-231"/>
      <point x="858" y="-188"/>
      <point x="890" y="-129"/>
      <point x="890" y="-96" type="qcurve" smooth="yes"/>
      <point x="890" y="-91"/>
      <point x="886" y="-74"/>
      <point x="883" y="-61" type="qcurve" smooth="yes"/>
      <point x="827" y="151"/>
      <point x="652" y="815"/>
      <point x="535" y="1267" type="qcurve"/>
      <point x="241" y="0" type="line"/>
      <point x="103" y="0" type="line"/>
      <point x="184" y="351"/>
      <point x="344" y="1044"/>
      <point x="426" y="1396" type="qcurve"/>
      <point x="635" y="1396" type="line"/>
      <point x="958" y="129" type="line"/>
      <point x="1253" y="1396" type="line"/>
      <point x="1388" y="1396" type="line"/>
      <point x="1233" y="722" type="line"/>
      <point x="1190" y="539"/>
      <point x="1106" y="176"/>
      <point x="1064" y="-8" type="qcurve" smooth="yes"/>
      <point x="1046" y="-89"/>
      <point x="993" y="-221"/>
      <point x="912" y="-314"/>
      <point x="798" y="-365"/>
    </contour>
  </outline>
</glyph>
<glyph name="uogonek" format="2">
  <advance width="1101"/>
  <unicode hex="0173"/>
  <outline>
    <contour>
      <point x="595" y="-447" type="qcurve" smooth="yes"/>
      <point x="519" y="-447"/>
      <point x="426" y="-363"/>
      <point x="426" y="-287" type="qcurve" smooth="yes"/>
      <point x="426" y="-238"/>
      <point x="467" y="-150"/>
      <point x="539" y="-76"/>
      <point x="637" y="-20"/>
      <point x="694" y="-3" type="qcurve"/>
      <point x="689" y="-3" type="line"/>
      <point x="733" y="179" type="line"/>
      <point x="707" y="137"/>
      <point x="629" y="64"/>
      <point x="535" y="9"/>
      <point x="431" y="-23"/>
      <point x="379" y="-23" type="qcurve" smooth="yes"/>
      <point x="311" y="-23"/>
      <point x="211" y="15"/>
      <point x="145" y="87"/>
      <point x="113" y="190"/>
      <point x="113" y="255" type="qcurve" smooth="yes"/>
      <point x="113" y="329"/>
      <point x="132" y="406" type="qcurve"/>
      <point x="266" y="986" type="line"/>
      <point x="390" y="986" type="line"/>
      <point x="254" y="385" type="line" smooth="yes"/>
      <point x="236" y="305"/>
      <point x="236" y="252" type="qcurve" smooth="yes"/>
      <point x="236" y="167"/>
      <point x="311" y="81"/>
      <point x="386" y="81" type="qcurve" smooth="yes"/>
      <point x="449" y="81"/>
      <point x="579" y="138"/>
      <point x="690" y="232"/>
      <point x="772" y="356"/>
      <point x="788" y="423" type="qcurve" smooth="yes"/>
      <point x="917" y="986" type="line"/>
      <point x="1040" y="986" type="line"/>
      <point x="814" y="0" type="line"/>
      <point x="761" y="-12" type="line"/>
      <point x="776" y="-12" type="line"/>
      <point x="746" y="-24"/>
      <point x="665" y="-73"/>
      <point x="590" y="-139"/>
      <point x="532" y="-218"/>
      <point x="526" y="-261" type="qcurve"/>
      <point x="526" y="-264"/>
      <point x="526" y="-267" type="qcurve" smooth="yes"/>
      <point x="526" y="-286"/>
      <point x="532" y="-303" type="qcurve"/>
      <point x="536" y="-323"/>
      <point x="564" y="-344"/>
      <point x="584" y="-344" type="qcurve" smooth="yes"/>
      <point x="669" y="-344"/>
      <point x="732" y="-275" type="qcurve"/>
      <point x="763" y="-303" type="line" smooth="yes"/>
      <point x="771" y="-311"/>
      <point x="780" y="-318" type="qcurve"/>
      <point x="791" y="-328" type="line" smooth="yes"/>
      <point x="799" y="-335"/>
      <point x="807" y="-343" type="qcurve"/>
      <point x="756" y="-397"/>
      <point x="656" y="-447"/>
    </contour>
  </outline>
</glyph>
<glyph name="longs" format="2">
  <advance width="679"/>
  <unicode hex="017F"/>
  <outline>
    <contour>
      <point x="230" y="0" type="line"/>
      <point x="106" y="0" type="line"/>
      <point x="310" y="885" type="line"/>
      <point x="129" y="885" type="line"/>
      <point x="152" y="984" type="line"/>
      <point x="333" y="984" type="line"/>
      <point x="346" y="1042"/>
      <point x="370" y="1159"/>
      <point x="407" y="1263"/>
      <point x="469" y="1348"/>
      <point x="520" y="1376" type="qcurve"/>
      <point x="591" y="1417"/>
      <point x="679" y="1417" type="qcurve" smooth="yes"/>
      <point x="763" y="1417"/>
      <point x="834" y="1379" type="qcurve"/>
      <point x="790" y="1289" type="line"/>
      <point x="762" y="1301"/>
      <point x="707" y="1314"/>
      <point x="678" y="1314" type="qcurve" smooth="yes"/>
      <point x="612" y="1314"/>
      <point x="516" y="1242"/>
      <point x="499" y="1170" type="qcurve" smooth="yes"/>
    </contour>
  </outline>
</glyph>
<glyph name="oogonek" format="2">
  <advance width="1113"/>
  <unicode hex="01EB"/>
  <outline>
    <contour>
      <point x="335" y="-447" type="qcurve" smooth="yes"/>
      <point x="298" y="-447"/>
      <point x="236" y="-425"/>
      <point x="191" y="-384"/>
      <point x="166" y="-325"/>
      <point x="166" y="-287" type="qcurve" smooth="yes"/>
      <point x="166" y="-200"/>
      <point x="284" y="-59"/>
      <point x="393" y="-17" type="qcurve"/>
      <point x="317" y="-7"/>
      <point x="200" y="57"/>
      <point x="121" y="156"/>
      <point x="81" y="286"/>
      <point x="81" y="362" type="qcurve" smooth="yes"/>
      <point x="81" y="429"/>
      <point x="117" y="576"/>
      <point x="186" y="718"/>
      <point x="287" y="846"/>
      <point x="416" y="942"/>
      <point x="571" y="999"/>
      <point x="661" y="999" type="qcurve" smooth="yes"/>
      <point x="746" y="999"/>
      <point x="882" y="941"/>
      <point x="978" y="838"/>
      <point x="1029" y="697"/>
      <point x="1029" y="614" type="qcurve" smooth="yes"/>
      <point x="1029" y="553"/>
      <point x="998" y="418"/>
      <point x="937" y="286"/>
      <point x="848" y="163"/>
      <point x="733" y="63"/>
      <point x="593" y="-5"/>
      <point x="512" y="-16" type="qcurve"/>
      <point x="397" y="-65"/>
      <point x="274" y="-190"/>
      <point x="266" y="-261" type="qcurve"/>
      <point x="266" y="-264"/>
      <point x="266" y="-267" type="qcurve" smooth="yes"/>
      <point x="266" y="-286"/>
      <point x="272" y="-303" type="qcurve"/>
      <point x="276" y="-323"/>
      <point x="305" y="-344"/>
      <point x="325" y="-344" type="qcurve" smooth="yes"/>
      <point x="409" y="-344"/>
      <point x="472" y="-275" type="qcurve"/>
      <point x="548" y="-343" type="line"/>
      <point x="498" y="-395"/>
      <point x="397" y="-447"/>
    </contour>
    <contour>
      <point x="453" y="92" type="qcurve" smooth="yes"/>
      <point x="534" y="92"/>
      <point x="669" y="153"/>
      <point x="776" y="261"/>
      <point x="852" y="412"/>
      <point x="873" y="502" type="qcurve" smooth="yes"/>
      <point x="881" y="539"/>
      <point x="891" y="608"/>
      <point x="891" y="641" type="qcurve" smooth="yes"/>
      <point x="891" y="759"/>
      <point x="773" y="886"/>
      <point x="656" y="886" type="qcurve" smooth="yes"/>
      <point x="575" y="886"/>
      <point x="439" y="824"/>
      <point x="333" y="714"/>
      <point x="258" y="564"/>
      <point x="238" y="477" type="qcurve" smooth="yes"/>
      <point x="229" y="439"/>
      <point x="221" y="371"/>
      <point x="221" y="339" type="qcurve" smooth="yes"/>
      <point x="221" y="222"/>
      <point x="334" y="92"/>
    </contour>
  </outline>
</glyph>
<glyph name="dotlessj" format="2">
  <advance width="485"/>
  <unicode hex="0237"/>
  <outline>
    <contour>
      <point x="-144" y="-434" type="qcurve" smooth="yes"/>
      <point x="-174" y="-434"/>
      <point x="-253" y="-416"/>
      <point x="-285" y="-403" type="qcurve"/>
      <point x="-239" y="-296" type="line"/>
      <point x="-230" y="-299"/>
      <point x="-203" y="-304"/>
      <point x="-172" y="-309"/>
      <point x="-141" y="-311"/>
      <point x="-129" y="-311" type="qcurve" smooth="yes"/>
      <point x="-97" y="-311"/>
      <point x="-46" y="-290"/>
      <point x="-9" y="-252"/>
      <point x="16" y="-203"/>
      <point x="22" y="-174" type="qcurve"/>
      <point x="290" y="986" type="line"/>
      <point x="424" y="986" type="line"/>
      <point x="158" y="-167" type="line" smooth="yes"/>
      <point x="144" y="-226"/>
      <point x="95" y="-324"/>
      <point x="21" y="-395"/>
      <point x="-80" y="-434"/>
    </contour>
  </outline>
</glyph>
<glyph name="oopen" format="2">
  <advance width="957"/>
  <unicode hex="0254"/>
  <outline>
    <contour>
      <point x="346" y="-20" type="qcurve" smooth="yes"/>
      <point x="213" y="-20"/>
      <point x="51" y="113"/>
      <point x="30" y="236" type="qcurve"/>
      <point x="153" y="280" type="line"/>
      <point x="155" y="239"/>
      <point x="187" y="170"/>
      <point x="241" y="120"/>
      <point x="315" y="92"/>
      <point x="360" y="92" type="qcurve" smooth="yes"/>
      <point x="434" y="92"/>
      <point x="558" y="155"/>
      <point x="655" y="262"/>
      <point x="724" y="404"/>
      <point x="744" y="482" type="qcurve" smooth="yes"/>
      <point x="765" y="567"/>
      <point x="765" y="638" type="qcurve" smooth="yes"/>
      <point x="765" y="654"/>
      <point x="764" y="670" type="qcurve" smooth="yes"/>
      <point x="761" y="719"/>
      <point x="734" y="801"/>
      <point x="684" y="858"/>
      <point x="608" y="890"/>
      <point x="556" y="890" type="qcurve" smooth="yes"/>
      <point x="508" y="890"/>
      <point x="416" y="859"/>
      <point x="336" y="806"/>
      <point x="271" y="735"/>
      <point x="251" y="696" type="qcurve"/>
      <point x="149" y="754" type="line"/>
      <point x="224" y="872"/>
      <point x="439" y="1003"/>
      <point x="570" y="1003" type="qcurve" smooth="yes"/>
      <point x="652" y="1003"/>
      <point x="772" y="950"/>
      <point x="852" y="857"/>
      <point x="891" y="731"/>
      <point x="892" y="658" type="qcurve"/>
      <point x="892" y="650"/>
      <point x="892" y="643" type="qcurve" smooth="yes"/>
      <point x="892" y="569"/>
      <point x="856" y="404"/>
      <point x="780" y="242"/>
      <point x="670" y="103"/>
      <point x="600" y="56" type="qcurve" smooth="yes"/>
      <point x="545" y="19"/>
      <point x="417" y="-20"/>
    </contour>
  </outline>
</glyph>
<glyph name="circumflex" format="2">
  <advance width="769"/>
  <unicode hex="02C6"/>
  <outline>
    <contour>
      <point x="900" y="1087" type="line"/>
      <point x="754" y="1087" type="line"/>
      <point x="628" y="1280" type="line"/>
      <point x="405" y="1087" type="line"/>
      <point x="251" y="1087" type="line"/>
      <point x="655" y="1436" type="line"/>
    </contour>
  </outline>
</glyph>
<glyph name="caron" format="2">
  <advance width="772"/>
  <unicode hex="02C7"/>
  <outline>
    <contour>
      <point x="516" y="1071" type="line"/>
      <point x="265" y="1396" type="line"/>
      <point x="413" y="1396" type="line"/>
      <point x="540" y="1208" type="line"/>
      <point x="761" y="1396" type="line"/>
      <point x="914" y="1396" type="line"/>
    </contour>
  </outline>
</glyph>
<glyph name="colontriangularmod" format="2">
  <advance width="458"/>
  <unicode hex="02D0"/>
  <outline>
    <contour>
      <point x="252" y="655" type="line"/>
      <point x="31" y="987" type="line"/>
      <point x="404" y="1031" type="line"/>
    </contour>
    <contour>
      <point x="54" y="-45" type="line"/>
      <point x="206" y="331" type="line"/>
      <point x="427" y="-1" type="line"/>
    </contour>
  </outline>
</glyph>
<glyph name="breve" format="2">
  <advance width="831"/>
  <unicode hex="02D8"/>
  <outline>
    <contour>
      <point x="570" y="1132" type="qcurve" smooth="yes"/>
      <point x="515" y="1132"/>
      <point x="421" y="1159"/>
      <point x="352" y="1210"/>
      <point x="313" y="1285"/>
      <point x="313" y="1333" type="qcurve" smooth="yes"/>
      <point x="313" y="1362"/>
      <point x="321" y="1396" type="qcurve"/>
      <point x="442" y="1396" type="line"/>
      <point x="440" y="1384"/>
      <point x="437" y="1365"/>
      <point x="437" y="1358" type="qcurve" smooth="yes"/>
      <point x="437" y="1298"/>
      <point x="514" y="1235"/>
      <point x="572" y="1235" type="qcurve" smooth="yes"/>
      <point x="609" y="1235"/>
      <point x="682" y="1260"/>
      <point x="744" y="1303"/>
      <point x="788" y="1362"/>
      <point x="797" y="1396" type="qcurve"/>
      <point x="917" y="1396" type="line"/>
      <point x="903" y="1334"/>
      <point x="840" y="1236"/>
      <point x="749" y="1168"/>
      <point x="635" y="1132"/>
    </contour>
  </outline>
</glyph>
<glyph name="dotaccent" format="2">
  <advance width="521"/>
  <unicode hex="02D9"/>
  <outline>
    <contour>
      <point x="499" y="1215" type="line"/>
      <point x="347" y="1215" type="line"/>
      <point x="390" y="1396" type="line"/>
      <point x="541" y="1396" type="line"/>
    </contour>
  </outline>
</glyph>
<glyph name="ring" format="2">
  <advance width="633"/>
  <unicode hex="02DA"/>
  <outline>
    <contour>
      <point x="457" y="1070" type="qcurve" smooth="yes"/>
      <point x="419" y="1070"/>
      <point x="359" y="1094"/>
      <point x="317" y="1137"/>
      <point x="294" y="1195"/>
      <point x="294" y="1229" type="qcurve" smooth="yes"/>
      <point x="294" y="1273"/>
      <point x="333" y="1356"/>
      <point x="397" y="1421"/>
      <point x="481" y="1460"/>
      <point x="525" y="1460" type="qcurve" smooth="yes"/>
      <point x="559" y="1460"/>
      <point x="619" y="1437"/>
      <point x="663" y="1395"/>
      <point x="688" y="1336"/>
      <point x="688" y="1301" type="qcurve" smooth="yes"/>
      <point x="688" y="1262"/>
      <point x="655" y="1180"/>
      <point x="594" y="1113"/>
      <point x="509" y="1070"/>
    </contour>
    <contour>
      <point x="466" y="1164" type="qcurve" smooth="yes"/>
      <point x="489" y="1164"/>
      <point x="535" y="1183"/>
      <point x="571" y="1218"/>
      <point x="595" y="1264"/>
      <point x="596" y="1291" type="qcurve"/>
      <point x="596" y="1322"/>
      <point x="551" y="1364"/>
      <point x="516" y="1364" type="qcurve" smooth="yes"/>
      <point x="490" y="1364"/>
      <point x="444" y="1344"/>
      <point x="410" y="1311"/>
      <point x="390" y="1267"/>
      <point x="390" y="1242" type="qcurve" smooth="yes"/>
      <point x="390" y="1204"/>
      <point x="430" y="1164"/>
    </contour>
  </outline>
</glyph>
<glyph name="uni02F5" format="2">
  <advance width="1036"/>
  <unicode hex="02F5"/>
  <outline>
    <contour>
      <point x="753" y="636" type="line"/>
      <point x="584" y="636" type="line"/>
      <point x="366" y="911" type="line"/>
      <point x="574" y="911" type="line"/>
    </contour>
  </outline>
</glyph>
<glyph name="uni02F6" format="2">
  <advance width="1035"/>
  <unicode hex="02F6"/>
  <outline>
    <contour>
      <point x="263" y="636" type="line"/>
      <point x="127" y="636" type="line"/>
      <point x="367" y="911" type="line"/>
      <point x="547" y="911" type="line"/>
    </contour>
    <contour>
      <point x="537" y="636" type="line"/>
      <point x="401" y="636" type="line"/>
      <point x="641" y="911" type="line"/>
      <point x="816" y="911" type="line"/>
    </contour>
  </outline>
</glyph>
<glyph name="acutecmb" format="2">
  <advance width="530"/>
  <unicode hex="0301"/>
  <anchor x="-217" y="999" name="_t.ringcmb_1"/>
  <outline>
    <contour>
      <point x="-189" y="1113" type="line"/>
      <point x="-313" y="1113" type="line"/>
      <point x="-36" y="1396" type="line"/>
      <point x="141" y="1396" type="line"/>
    </contour>
  </outline>
</glyph>
<glyph name="circumflexcmb" format="2">
  <advance width="974"/>
  <unicode hex="0302"/>
  <anchor x="-264" y="999" name="_t.ringcmb_1"/>
  <outline>
    <contour>
      <point x="73" y="1087" type="line"/>
      <point x="-72" y="1087" type="line"/>
      <point x="-199" y="1280" type="line"/>
      <point x="-421" y="1087" type="line"/>
      <point x="-575" y="1087" type="line"/>
      <point x="-171" y="1436" type="line"/>
    </contour>
  </outline>
</glyph>
<glyph name="tildecmb" format="2">
  <advance width="1157"/>
  <unicode hex="0303"/>
  <anchor x="-273" y="1002" name="_t.ringcmb_1"/>
  <outline>
    <contour>
      <point x="-105" y="1143" type="qcurve" smooth="yes"/>
      <point x="-143" y="1143"/>
      <point x="-186" y="1169"/>
      <point x="-219" y="1210"/>
      <point x="-254" y="1261"/>
      <point x="-282" y="1287" type="qcurve" smooth="yes"/>
      <point x="-298" y="1301"/>
      <point x="-319" y="1301" type="qcurve" smooth="yes"/>
      <point x="-339" y="1301"/>
      <point x="-374" y="1279"/>
      <point x="-403" y="1241"/>
      <point x="-426" y="1192"/>
      <point x="-433" y="1165" type="qcurve"/>
      <point x="-519" y="1165" type="line"/>
      <point x="-496" y="1267"/>
      <point x="-404" y="1392"/>
      <point x="-339" y="1400" type="qcurve"/>
      <point x="-331" y="1402"/>
      <point x="-316" y="1402"/>
      <point x="-308" y="1402" type="qcurve"/>
      <point x="-269" y="1399"/>
      <point x="-225" y="1373"/>
      <point x="-194" y="1334"/>
      <point x="-165" y="1283"/>
      <point x="-139" y="1256" type="qcurve" smooth="yes"/>
      <point x="-124" y="1240"/>
      <point x="-102" y="1240" type="qcurve" smooth="yes"/>
      <point x="-60" y="1240"/>
      <point x="1" y="1323"/>
      <point x="20" y="1396" type="qcurve"/>
      <point x="112" y="1396" type="line"/>
      <point x="52" y="1143"/>
    </contour>
  </outline>
</glyph>
<glyph name="dotaccentcmb" format="2">
  <unicode hex="0307"/>
  <anchor x="-146" y="999" name="_t.ringcmb_1"/>
  <outline>
    <contour>
      <point x="-19" y="1215" type="line"/>
      <point x="-171" y="1215" type="line"/>
      <point x="-128" y="1396" type="line"/>
      <point x="23" y="1396" type="line"/>
    </contour>
  </outline>
</glyph>
<glyph name="hungarumlautcmb" format="2">
  <advance width="896"/>
  <unicode hex="030B"/>
  <anchor x="-420" y="999" name="_t.ringcmb_1"/>
  <outline>
    <contour>
      <point x="-599" y="1115" type="line"/>
      <point x="-721" y="1115" type="line"/>
      <point x="-445" y="1396" type="line"/>
      <point x="-267" y="1396" type="line"/>
    </contour>
    <contour>
      <point x="-275" y="1115" type="line"/>
      <point x="-398" y="1115" type="line"/>
      <point x="-122" y="1396" type="line"/>
      <point x="54" y="1396" type="line"/>
    </contour>
  </outline>
</glyph>
<glyph name="uni0326" format="2">
  <unicode hex="0326"/>
  <anchor x="-291" y="0" name="_b.uni0326"/>
  <anchor x="-291" y="0" name="_b.uni0326_2"/>
  <anchor x="-455" y="-446" name="b.uni0326_2"/>
  <outline>
    <contour>
      <point x="-512" y="-439" type="line"/>
      <point x="-611" y="-439" type="line"/>
      <point x="-417" y="-114" type="line"/>
      <point x="-217" y="-114" type="line"/>
    </contour>
  </outline>
</glyph>
<glyph name="cedillacmb" format="2">
  <advance width="559"/>
  <unicode hex="0327"/>
  <anchor x="-384" y="0" name="_b.uni0326"/>
  <anchor x="-384" y="0" name="_b.uni0326_2"/>
  <anchor x="-520" y="-500" name="b.uni0326_2"/>
  <outline>
    <contour>
      <point x="-512" y="-496" type="qcurve" smooth="yes"/>
      <point x="-544" y="-496"/>
      <point x="-597" y="-476"/>
      <point x="-637" y="-441"/>
      <point x="-664" y="-396"/>
      <point x="-669" y="-370" type="qcurve"/>
      <point x="-573" y="-335" type="line"/>
      <point x="-573" y="-341" type="line" smooth="yes"/>
      <point x="-573" y="-366"/>
      <point x="-537" y="-404"/>
      <point x="-505" y="-404" type="qcurve" smooth="yes"/>
      <point x="-479" y="-404"/>
      <point x="-429" y="-382"/>
      <point x="-389" y="-345"/>
      <point x="-365" y="-297"/>
      <point x="-365" y="-271" type="qcurve" smooth="yes"/>
      <point x="-365" y="-231"/>
      <point x="-439" y="-176"/>
      <point x="-520" y="-176" type="qcurve" smooth="yes"/>
      <point x="-559" y="-176" type="line"/>
      <point x="-529" y="-133"/>
      <point x="-465" y="-47"/>
      <point x="-433" y="-3" type="qcurve"/>
      <point x="-321" y="-3" type="line"/>
      <point x="-423" y="-122" type="line"/>
      <point x="-346" y="-124"/>
      <point x="-269" y="-198"/>
      <point x="-269" y="-261" type="qcurve" smooth="yes"/>
      <point x="-269" y="-305"/>
      <point x="-308" y="-390"/>
      <point x="-374" y="-456"/>
      <point x="-462" y="-496"/>
    </contour>
  </outline>
</glyph>
<glyph name="afii10058" format="2">
  <advance width="2010"/>
  <unicode hex="0409"/>
  <outline>
    <contour>
      <point x="111" y="-20" type="qcurve" smooth="yes"/>
      <point x="66" y="-20"/>
      <point x="-17" y="3"/>
      <point x="-43" y="20" type="qcurve"/>
      <point x="38" y="150" type="line"/>
      <point x="62" y="138"/>
      <point x="104" y="127"/>
      <point x="129" y="127" type="qcurve" smooth="yes"/>
      <point x="162" y="127"/>
      <point x="231" y="188"/>
      <point x="299" y="294"/>
      <point x="364" y="438"/>
      <point x="424" y="604"/>
      <point x="476" y="785"/>
      <point x="497" y="875" type="qcurve" smooth="yes"/>
      <point x="619" y="1396" type="line"/>
      <point x="1438" y="1396" type="line"/>
      <point x="1291" y="755" type="line"/>
      <point x="1534" y="755" type="line" smooth="yes"/>
      <point x="1618" y="755"/>
      <point x="1752" y="719"/>
      <point x="1846" y="647"/>
      <point x="1897" y="541"/>
      <point x="1897" y="471" type="qcurve" smooth="yes"/>
      <point x="1897" y="393"/>
      <point x="1846" y="248"/>
      <point x="1800" y="188" type="qcurve" smooth="yes"/>
      <point x="1725" y="93"/>
      <point x="1508" y="0"/>
      <point x="1368" y="0" type="qcurve" smooth="yes"/>
      <point x="983" y="0" type="line"/>
      <point x="1279" y="1286" type="line"/>
      <point x="727" y="1286" type="line"/>
      <point x="700" y="1169"/>
      <point x="647" y="938"/>
      <point x="594" y="724"/>
      <point x="543" y="533"/>
      <point x="519" y="457" type="qcurve" smooth="yes"/>
      <point x="462" y="276"/>
      <point x="358" y="128" type="qcurve" smooth="yes"/>
      <point x="255" y="-20"/>
    </contour>
    <contour>
      <point x="1386" y="118" type="line" smooth="yes"/>
      <point x="1455" y="118"/>
      <point x="1579" y="154"/>
      <point x="1677" y="224"/>
      <point x="1745" y="327"/>
      <point x="1760" y="393" type="qcurve" smooth="yes"/>
      <point x="1764" y="413"/>
      <point x="1768" y="446"/>
      <point x="1768" y="461" type="qcurve" smooth="yes"/>
      <point x="1768" y="550"/>
      <point x="1636" y="638"/>
      <point x="1516" y="638" type="qcurve" smooth="yes"/>
      <point x="1264" y="638" type="line"/>
      <point x="1143" y="118" type="line"/>
    </contour>
  </outline>
</glyph>
<glyph name="afii10060" format="2">
  <advance width="1640"/>
  <unicode hex="040B"/>
  <outline>
    <contour>
      <point x="1391" y="0" type="line"/>
      <point x="1256" y="0" type="line"/>
      <point x="1271" y="73"/>
      <point x="1312" y="235"/>
      <point x="1349" y="395"/>
      <point x="1375" y="544"/>
      <point x="1375" y="605" type="qcurve" smooth="yes"/>
      <point x="1375" y="733"/>
      <point x="1251" y="861"/>
      <point x="1121" y="861" type="qcurve" smooth="yes"/>
      <point x="1068" y="861"/>
      <point x="960" y="837"/>
      <point x="860" y="796"/>
      <point x="771" y="739"/>
      <point x="737" y="706" type="qcurve"/>
      <point x="572" y="0" type="line"/>
      <point x="436" y="0" type="line"/>
      <point x="733" y="1292" type="line"/>
      <point x="252" y="1292" type="line"/>
      <point x="277" y="1396" type="line"/>
      <point x="1372" y="1396" type="line"/>
      <point x="1348" y="1292" type="line"/>
      <point x="869" y="1292" type="line"/>
      <point x="765" y="854" type="line"/>
      <point x="914" y="988"/>
      <point x="1128" y="988" type="qcurve" smooth="yes"/>
      <point x="1222" y="988"/>
      <point x="1364" y="936"/>
      <point x="1459" y="837"/>
      <point x="1506" y="692"/>
      <point x="1506" y="600" type="qcurve" smooth="yes"/>
      <point x="1506" y="535"/>
      <point x="1483" y="390"/>
      <point x="1450" y="243"/>
      <point x="1414" y="101"/>
      <point x="1400" y="39" type="qcurve" smooth="yes"/>
    </contour>
  </outline>
</glyph>
<glyph name="afii10020" format="2">
  <advance width="1070"/>
  <unicode hex="0413"/>
  <outline>
    <contour>
      <point x="242" y="0" type="line"/>
      <point x="108" y="0" type="line"/>
      <point x="430" y="1396" type="line"/>
      <point x="1203" y="1396" type="line"/>
      <point x="1178" y="1286" type="line"/>
      <point x="539" y="1286" type="line"/>
    </contour>
  </outline>
</glyph>
<glyph name="afii10021" format="2">
  <advance width="1447"/>
  <unicode hex="0414"/>
  <outline>
    <contour>
      <point x="1210" y="-241" type="line"/>
      <point x="1076" y="-241" type="line"/>
      <point x="1132" y="0" type="line"/>
      <point x="91" y="0" type="line"/>
      <point x="36" y="-241" type="line"/>
      <point x="-98" y="-241" type="line"/>
      <point x="-18" y="113" type="line"/>
      <point x="99" y="113" type="line"/>
      <point x="870" y="1396" type="line"/>
      <point x="992" y="1396" type="line"/>
      <point x="1173" y="113" type="line"/>
      <point x="1290" y="113" type="line"/>
    </contour>
    <contour>
      <point x="1041" y="113" type="line"/>
      <point x="901" y="1234" type="line"/>
      <point x="237" y="113" type="line"/>
    </contour>
  </outline>
</glyph>
<glyph name="afii10025" format="2">
  <advance width="1095"/>
  <unicode hex="0417"/>
  <outline>
    <contour>
      <point x="405" y="-20" type="qcurve" smooth="yes"/>
      <point x="332" y="-20"/>
      <point x="206" y="10"/>
      <point x="107" y="68"/>
      <point x="39" y="156"/>
      <point x="26" y="214" type="qcurve"/>
      <point x="149" y="276" type="line"/>
      <point x="155" y="231"/>
      <point x="199" y="161"/>
      <point x="267" y="113"/>
      <point x="356" y="88"/>
      <point x="408" y="88" type="qcurve" smooth="yes"/>
      <point x="475" y="88"/>
      <point x="607" y="131"/>
      <point x="719" y="212"/>
      <point x="802" y="330"/>
      <point x="820" y="405" type="qcurve"/>
      <point x="828" y="443"/>
      <point x="828" y="475" type="qcurve" smooth="yes"/>
      <point x="828" y="525"/>
      <point x="789" y="602"/>
      <point x="718" y="654"/>
      <point x="620" y="681"/>
      <point x="561" y="681" type="qcurve" smooth="yes"/>
      <point x="384" y="681" type="line"/>
      <point x="412" y="802" type="line"/>
      <point x="567" y="802" type="line" smooth="yes"/>
      <point x="599" y="802"/>
      <point x="676" y="816"/>
      <point x="754" y="846"/>
      <point x="827" y="895"/>
      <point x="883" y="967"/>
      <point x="917" y="1061"/>
      <point x="917" y="1122" type="qcurve" smooth="yes"/>
      <point x="917" y="1165"/>
      <point x="886" y="1232"/>
      <point x="832" y="1279"/>
      <point x="758" y="1304"/>
      <point x="715" y="1304" type="qcurve" smooth="yes"/>
      <point x="659" y="1304"/>
      <point x="552" y="1266"/>
      <point x="463" y="1200"/>
      <point x="399" y="1109"/>
      <point x="386" y="1057" type="qcurve"/>
      <point x="259" y="1069" type="line"/>
      <point x="278" y="1148"/>
      <point x="365" y="1277"/>
      <point x="487" y="1368"/>
      <point x="636" y="1417"/>
      <point x="717" y="1417" type="qcurve" smooth="yes"/>
      <point x="787" y="1417"/>
      <point x="906" y="1379"/>
      <point x="991" y="1309"/>
      <point x="1039" y="1206"/>
      <point x="1039" y="1142" type="qcurve" smooth="yes"/>
      <point x="1039" y="1080"/>
      <point x="1004" y="964"/>
      <point x="937" y="862"/>
      <point x="839" y="777"/>
      <point x="776" y="747" type="qcurve"/>
      <point x="863" y="707"/>
      <point x="956" y="568"/>
      <point x="956" y="470" type="qcurve" smooth="yes"/>
      <point x="956" y="363"/>
      <point x="869" y="183"/>
      <point x="720" y="53"/>
      <point x="519" y="-20"/>
    </contour>
  </outline>
</glyph>
<glyph name="afii10027" format="2">
  <advance width="1418"/>
  <unicode hex="0419"/>
  <outline>
    <contour>
      <point x="953" y="1540" type="qcurve" smooth="yes"/>
      <point x="899" y="1540"/>
      <point x="806" y="1567"/>
      <point x="738" y="1620"/>
      <point x="699" y="1695"/>
      <point x="699" y="1743" type="qcurve" smooth="yes"/>
      <point x="699" y="1757"/>
      <point x="702" y="1788"/>
      <point x="706" y="1805" type="qcurve"/>
      <point x="821" y="1805" type="line"/>
      <point x="816" y="1777"/>
      <point x="816" y="1766" type="qcurve" smooth="yes"/>
      <point x="816" y="1736"/>
      <point x="837" y="1689"/>
      <point x="874" y="1657"/>
      <point x="925" y="1640"/>
      <point x="954" y="1640" type="qcurve" smooth="yes"/>
      <point x="991" y="1640"/>
      <point x="1066" y="1665"/>
      <point x="1129" y="1709"/>
      <point x="1175" y="1770"/>
      <point x="1184" y="1805" type="qcurve"/>
      <point x="1299" y="1805" type="line"/>
      <point x="1285" y="1743"/>
      <point x="1220" y="1645"/>
      <point x="1129" y="1576"/>
      <point x="1016" y="1540"/>
    </contour>
    <contour>
      <point x="81" y="0" type="line"/>
      <point x="404" y="1396" type="line"/>
      <point x="539" y="1396" type="line"/>
      <point x="295" y="340" type="line" smooth="yes"/>
      <point x="286" y="299"/>
      <point x="262" y="201"/>
      <point x="246" y="143" type="qcurve"/>
      <point x="1189" y="1396" type="line"/>
      <point x="1384" y="1396" type="line"/>
      <point x="1062" y="0" type="line"/>
      <point x="926" y="0" type="line"/>
      <point x="1170" y="1059" type="line"/>
      <point x="1182" y="1108"/>
      <point x="1206" y="1204"/>
      <point x="1219" y="1252" type="qcurve"/>
      <point x="280" y="0" type="line"/>
    </contour>
  </outline>
</glyph>
<glyph name="afii10028" format="2">
  <advance width="1239"/>
  <unicode hex="041A"/>
  <outline>
    <contour>
      <point x="1044" y="0" type="line"/>
      <point x="886" y="0" type="line"/>
      <point x="867" y="144"/>
      <point x="831" y="433"/>
      <point x="814" y="581" type="qcurve"/>
      <point x="811" y="602"/>
      <point x="786" y="646"/>
      <point x="745" y="683"/>
      <point x="690" y="706"/>
      <point x="658" y="706" type="qcurve" smooth="yes"/>
      <point x="404" y="706" type="line"/>
      <point x="242" y="0" type="line"/>
      <point x="108" y="0" type="line"/>
      <point x="188" y="350"/>
      <point x="348" y="1044"/>
      <point x="430" y="1396" type="qcurve"/>
      <point x="563" y="1396" type="line"/>
      <point x="428" y="815" type="line"/>
      <point x="598" y="815" type="line"/>
      <point x="1120" y="1396" type="line"/>
      <point x="1291" y="1396" type="line"/>
      <point x="741" y="801" type="line"/>
      <point x="783" y="801"/>
      <point x="857" y="770"/>
      <point x="914" y="722"/>
      <point x="950" y="665"/>
      <point x="953" y="641" type="qcurve" smooth="yes"/>
    </contour>
  </outline>
</glyph>
<glyph name="afii10029" format="2">
  <advance width="1308"/>
  <unicode hex="041B"/>
  <outline>
    <contour>
      <point x="1119" y="0" type="line"/>
      <point x="984" y="0" type="line"/>
      <point x="830" y="1234" type="line"/>
      <point x="101" y="0" type="line"/>
      <point x="-41" y="0" type="line"/>
      <point x="799" y="1396" type="line"/>
      <point x="921" y="1396" type="line"/>
    </contour>
  </outline>
</glyph>
<glyph name="afii10030" format="2">
  <advance width="1742"/>
  <unicode hex="041C"/>
  <outline>
    <contour>
      <point x="1385" y="0" type="line"/>
      <point x="1250" y="0" type="line"/>
      <point x="1549" y="1290" type="line"/>
      <point x="839" y="122" type="line"/>
      <point x="684" y="122" type="line"/>
      <point x="517" y="1290" type="line"/>
      <point x="218" y="0" type="line"/>
      <point x="81" y="0" type="line"/>
      <point x="404" y="1396" type="line"/>
      <point x="630" y="1396" type="line"/>
      <point x="784" y="244" type="line"/>
      <point x="1479" y="1396" type="line"/>
      <point x="1708" y="1396" type="line"/>
    </contour>
  </outline>
</glyph>
<glyph name="afii10037" format="2">
  <advance width="1117"/>
  <unicode hex="0423"/>
  <outline>
    <contour>
      <point x="310" y="0" type="line"/>
      <point x="161" y="0" type="line"/>
      <point x="462" y="450" type="line"/>
      <point x="292" y="1396" type="line"/>
      <point x="437" y="1396" type="line"/>
      <point x="560" y="590" type="line"/>
      <point x="1090" y="1396" type="line"/>
      <point x="1248" y="1396" type="line"/>
    </contour>
  </outline>
</glyph>
<glyph name="afii10038" format="2">
  <advance width="1667"/>
  <unicode hex="0424"/>
  <outline>
    <contour>
      <point x="788" y="0" type="line"/>
      <point x="652" y="0" type="line"/>
      <point x="685" y="117" type="line"/>
      <point x="425" y="117"/>
      <point x="163" y="312"/>
      <point x="163" y="516" type="qcurve" smooth="yes"/>
      <point x="163" y="603"/>
      <point x="202" y="785"/>
      <point x="274" y="953"/>
      <point x="377" y="1098"/>
      <point x="441" y="1149" type="qcurve" smooth="yes"/>
      <point x="626" y="1295"/>
      <point x="945" y="1297" type="qcurve"/>
      <point x="960" y="1347" type="line" smooth="yes"/>
      <point x="964" y="1360"/>
      <point x="970" y="1384"/>
      <point x="974" y="1396" type="qcurve"/>
      <point x="1109" y="1396" type="line"/>
      <point x="1081" y="1297" type="line"/>
      <point x="1346" y="1297"/>
      <point x="1600" y="1084"/>
      <point x="1600" y="885" type="qcurve" smooth="yes"/>
      <point x="1600" y="798"/>
      <point x="1574" y="686" type="qcurve" smooth="yes"/>
      <point x="1540" y="539"/>
      <point x="1415" y="324"/>
      <point x="1229" y="185"/>
      <point x="979" y="117"/>
      <point x="821" y="117" type="qcurve"/>
      <point x="814" y="95"/>
      <point x="802" y="52"/>
      <point x="796" y="29" type="qcurve" smooth="yes"/>
    </contour>
    <contour>
      <point x="702" y="242" type="qcurve"/>
      <point x="928" y="1172" type="line"/>
      <point x="796" y="1172"/>
      <point x="589" y="1109"/>
      <point x="437" y="986"/>
      <point x="336" y="804"/>
      <point x="310" y="686" type="qcurve" smooth="yes"/>
      <point x="290" y="595"/>
      <point x="290" y="533" type="qcurve" smooth="yes"/>
      <point x="290" y="379"/>
      <point x="492" y="242"/>
    </contour>
    <contour>
      <point x="837" y="242" type="line"/>
      <point x="965" y="242"/>
      <point x="1168" y="297"/>
      <point x="1320" y="412"/>
      <point x="1423" y="588"/>
      <point x="1452" y="710" type="qcurve" smooth="yes"/>
      <point x="1472" y="796"/>
      <point x="1472" y="866" type="qcurve" smooth="yes"/>
      <point x="1472" y="1023"/>
      <point x="1270" y="1172"/>
      <point x="1063" y="1172" type="qcurve"/>
    </contour>
  </outline>
</glyph>
<glyph name="afii10042" format="2">
  <advance width="1724"/>
  <unicode hex="0428"/>
  <outline>
    <contour>
      <point x="1390" y="0" type="line"/>
      <point x="108" y="0" type="line"/>
      <point x="430" y="1396" type="line"/>
      <point x="563" y="1396" type="line"/>
      <point x="266" y="113" type="line"/>
      <point x="703" y="113" type="line"/>
      <point x="1000" y="1396" type="line"/>
      <point x="1136" y="1396" type="line"/>
      <point x="839" y="113" type="line"/>
      <point x="1282" y="113" type="line"/>
      <point x="1578" y="1396" type="line"/>
      <point x="1712" y="1396" type="line"/>
    </contour>
  </outline>
</glyph>
<glyph name="afii10043" format="2">
  <advance width="1737"/>
  <unicode hex="0429"/>
  <outline>
    <contour>
      <point x="1471" y="-241" type="line"/>
      <point x="1340" y="-241" type="line"/>
      <point x="1394" y="0" type="line"/>
      <point x="103" y="0" type="line"/>
      <point x="426" y="1396" type="line"/>
      <point x="558" y="1396" type="line"/>
      <point x="262" y="113" type="line"/>
      <point x="699" y="113" type="line"/>
      <point x="996" y="1396" type="line"/>
      <point x="1132" y="1396" type="line"/>
      <point x="834" y="113" type="line"/>
      <point x="1277" y="113" type="line"/>
      <point x="1574" y="1396" type="line"/>
      <point x="1707" y="1396" type="line"/>
      <point x="1411" y="113" type="line"/>
      <point x="1552" y="113" type="line"/>
    </contour>
  </outline>
</glyph>
<glyph name="afii10047" format="2">
  <advance width="1405"/>
  <unicode hex="042D"/>
  <outline>
    <contour>
      <point x="547" y="-20" type="qcurve" smooth="yes"/>
      <point x="451" y="-20"/>
      <point x="290" y="27"/>
      <point x="167" y="121"/>
      <point x="84" y="260"/>
      <point x="66" y="352" type="qcurve"/>
      <point x="98" y="361"/>
      <point x="164" y="381"/>
      <point x="196" y="391" type="qcurve"/>
      <point x="232" y="102"/>
      <point x="554" y="102" type="qcurve" smooth="yes"/>
      <point x="669" y="102"/>
      <point x="867" y="183"/>
      <point x="1026" y="331"/>
      <point x="1144" y="540"/>
      <point x="1179" y="666" type="qcurve"/>
      <point x="539" y="660" type="line"/>
      <point x="544" y="678"/>
      <point x="556" y="728"/>
      <point x="565" y="760" type="qcurve"/>
      <point x="1202" y="766" type="line"/>
      <point x="1208" y="807"/>
      <point x="1213" y="881"/>
      <point x="1213" y="915" type="qcurve" smooth="yes"/>
      <point x="1213" y="1004"/>
      <point x="1167" y="1146"/>
      <point x="1077" y="1244"/>
      <point x="943" y="1296"/>
      <point x="854" y="1296" type="qcurve" smooth="yes"/>
      <point x="771" y="1296"/>
      <point x="619" y="1258"/>
      <point x="487" y="1182"/>
      <point x="379" y="1070"/>
      <point x="342" y="997" type="qcurve"/>
      <point x="226" y="1061" type="line"/>
      <point x="347" y="1240"/>
      <point x="671" y="1419"/>
      <point x="860" y="1419" type="qcurve" smooth="yes"/>
      <point x="980" y="1419"/>
      <point x="1162" y="1349"/>
      <point x="1284" y="1219"/>
      <point x="1345" y="1035"/>
      <point x="1345" y="922" type="qcurve" smooth="yes"/>
      <point x="1345" y="832"/>
      <point x="1310" y="645"/>
      <point x="1245" y="465"/>
      <point x="1151" y="298"/>
      <point x="1092" y="229" type="qcurve" smooth="yes"/>
      <point x="989" y="109"/>
      <point x="716" y="-20"/>
    </contour>
  </outline>
</glyph>
<glyph name="afii10072" format="2">
  <advance width="1401"/>
  <unicode hex="0436"/>
  <outline>
    <contour>
      <point x="1231" y="0" type="line"/>
      <point x="1089" y="0" type="line"/>
      <point x="1080" y="90"/>
      <point x="1071" y="183" type="qcurve" smooth="yes"/>
      <point x="1053" y="366" type="line"/>
      <point x="1044" y="441"/>
      <point x="983" y="505"/>
      <point x="920" y="505" type="qcurve" smooth="yes"/>
      <point x="769" y="505" type="line"/>
      <point x="711" y="251" type="line" smooth="yes"/>
      <point x="704" y="220"/>
      <point x="697" y="188" type="qcurve" smooth="yes"/>
      <point x="668" y="63" type="line" smooth="yes"/>
      <point x="661" y="32"/>
      <point x="654" y="0" type="qcurve"/>
      <point x="526" y="0" type="line"/>
      <point x="642" y="505" type="line"/>
      <point x="500" y="505" type="line" smooth="yes"/>
      <point x="438" y="505"/>
      <point x="341" y="429"/>
      <point x="299" y="353" type="qcurve"/>
      <point x="273" y="312"/>
      <point x="226" y="230"/>
      <point x="203" y="189" type="qcurve"/>
      <point x="92" y="0" type="line"/>
      <point x="-57" y="0" type="line"/>
      <point x="8" y="106"/>
      <point x="135" y="321"/>
      <point x="201" y="430" type="qcurve" smooth="yes"/>
      <point x="219" y="461"/>
      <point x="261" y="517"/>
      <point x="309" y="559"/>
      <point x="361" y="584"/>
      <point x="387" y="584" type="qcurve"/>
      <point x="239" y="986" type="line"/>
      <point x="392" y="986" type="line"/>
      <point x="523" y="616" type="line"/>
      <point x="668" y="616" type="line"/>
      <point x="848" y="1396" type="line"/>
      <point x="976" y="1396" type="line"/>
      <point x="796" y="616" type="line"/>
      <point x="935" y="616" type="line"/>
      <point x="954" y="640"/>
      <point x="973" y="663" type="qcurve" smooth="yes"/>
      <point x="1048" y="754" type="line" smooth="yes"/>
      <point x="1067" y="778"/>
      <point x="1086" y="801" type="qcurve" smooth="yes"/>
      <point x="1238" y="986" type="line"/>
      <point x="1399" y="986" type="line"/>
      <point x="1055" y="584" type="line"/>
      <point x="1097" y="584"/>
      <point x="1145" y="516"/>
      <point x="1173" y="411"/>
      <point x="1188" y="284"/>
      <point x="1197" y="224" type="qcurve" smooth="yes"/>
      <point x="1205" y="175"/>
      <point x="1219" y="78"/>
      <point x="1227" y="30" type="qcurve"/>
    </contour>
  </outline>
</glyph>
<glyph name="afii10073" format="2">
  <advance width="894"/>
  <unicode hex="0437"/>
  <outline>
    <contour>
      <point x="186" y="-456" type="qcurve" smooth="yes"/>
      <point x="116" y="-456"/>
      <point x="17" y="-434"/>
      <point x="-60" y="-391"/>
      <point x="-124" y="-325"/>
      <point x="-159" y="-281" type="qcurve"/>
      <point x="-60" y="-214" type="line"/>
      <point x="-28" y="-280"/>
      <point x="85" y="-343"/>
      <point x="175" y="-343" type="qcurve" smooth="yes"/>
      <point x="251" y="-343"/>
      <point x="377" y="-290"/>
      <point x="476" y="-191"/>
      <point x="546" y="-51"/>
      <point x="566" y="36" type="qcurve" smooth="yes"/>
      <point x="578" y="90"/>
      <point x="578" y="133" type="qcurve" smooth="yes"/>
      <point x="578" y="229"/>
      <point x="465" y="332"/>
      <point x="367" y="332" type="qcurve" smooth="yes"/>
      <point x="158" y="332" type="line"/>
      <point x="182" y="443" type="line"/>
      <point x="214" y="443"/>
      <point x="245" y="443" type="qcurve"/>
      <point x="369" y="444" type="line"/>
      <point x="401" y="444"/>
      <point x="432" y="444" type="qcurve"/>
      <point x="476" y="454"/>
      <point x="555" y="510"/>
      <point x="616" y="584"/>
      <point x="657" y="670"/>
      <point x="662" y="711" type="qcurve"/>
      <point x="666" y="736"/>
      <point x="666" y="774"/>
      <point x="664" y="788" type="qcurve" smooth="yes"/>
      <point x="656" y="847"/>
      <point x="566" y="892"/>
      <point x="472" y="892" type="qcurve" smooth="yes"/>
      <point x="386" y="892"/>
      <point x="233" y="811"/>
      <point x="184" y="741" type="qcurve"/>
      <point x="102" y="809" type="line"/>
      <point x="135" y="852"/>
      <point x="217" y="922"/>
      <point x="311" y="972"/>
      <point x="416" y="999"/>
      <point x="472" y="999" type="qcurve" smooth="yes"/>
      <point x="625" y="999"/>
      <point x="795" y="880"/>
      <point x="795" y="756" type="qcurve" smooth="yes"/>
      <point x="795" y="717"/>
      <point x="777" y="631"/>
      <point x="738" y="546"/>
      <point x="673" y="467"/>
      <point x="627" y="436" type="qcurve" smooth="yes"/>
      <point x="582" y="406"/>
      <point x="518" y="390" type="qcurve"/>
      <point x="566" y="386"/>
      <point x="637" y="354"/>
      <point x="663" y="310" type="qcurve"/>
      <point x="686" y="274"/>
      <point x="709" y="184"/>
      <point x="709" y="131" type="qcurve" smooth="yes"/>
      <point x="709" y="70"/>
      <point x="681" y="-50"/>
      <point x="634" y="-161"/>
      <point x="570" y="-260"/>
      <point x="534" y="-300" type="qcurve"/>
      <point x="387" y="-456"/>
    </contour>
  </outline>
</glyph>
<glyph name="afii10074" format="2">
  <advance width="1101"/>
  <unicode hex="0438"/>
  <outline>
    <contour>
      <point x="379" y="-23" type="qcurve" smooth="yes"/>
      <point x="310" y="-23"/>
      <point x="210" y="16"/>
      <point x="145" y="88"/>
      <point x="113" y="191"/>
      <point x="113" y="255" type="qcurve" smooth="yes"/>
      <point x="113" y="329"/>
      <point x="132" y="406" type="qcurve"/>
      <point x="266" y="986" type="line"/>
      <point x="390" y="986" type="line"/>
      <point x="254" y="385" type="line" smooth="yes"/>
      <point x="236" y="305"/>
      <point x="236" y="252" type="qcurve" smooth="yes"/>
      <point x="236" y="81"/>
      <point x="386" y="81" type="qcurve" smooth="yes"/>
      <point x="451" y="81"/>
      <point x="581" y="138"/>
      <point x="692" y="234"/>
      <point x="772" y="357"/>
      <point x="788" y="423" type="qcurve"/>
      <point x="917" y="986" type="line"/>
      <point x="1040" y="986" type="line"/>
      <point x="814" y="0" type="line"/>
      <point x="690" y="0" type="line"/>
      <point x="733" y="179" type="line"/>
      <point x="706" y="137"/>
      <point x="627" y="63"/>
      <point x="534" y="8"/>
      <point x="431" y="-23"/>
    </contour>
  </outline>
</glyph>
<glyph name="afii10076" format="2">
  <advance width="948"/>
  <unicode hex="043A"/>
  <outline>
    <contour>
      <point x="778" y="0" type="line"/>
      <point x="633" y="0" type="line"/>
      <point x="596" y="367" type="line"/>
      <point x="587" y="443"/>
      <point x="526" y="505"/>
      <point x="465" y="505" type="qcurve" smooth="yes"/>
      <point x="313" y="505" type="line"/>
      <point x="281" y="366"/>
      <point x="225" y="115"/>
      <point x="199" y="0" type="qcurve"/>
      <point x="71" y="0" type="line"/>
      <point x="151" y="351"/>
      <point x="311" y="1044"/>
      <point x="392" y="1396" type="qcurve"/>
      <point x="519" y="1396" type="line"/>
      <point x="339" y="616" type="line"/>
      <point x="479" y="616" type="line"/>
      <point x="781" y="986" type="line"/>
      <point x="942" y="986" type="line"/>
      <point x="598" y="584" type="line"/>
      <point x="623" y="584"/>
      <point x="662" y="557"/>
      <point x="690" y="512"/>
      <point x="709" y="451"/>
      <point x="714" y="418" type="qcurve" smooth="yes"/>
      <point x="726" y="333"/>
      <point x="755" y="143"/>
      <point x="772" y="35" type="qcurve" smooth="yes"/>
    </contour>
  </outline>
</glyph>
<glyph name="afii10078" format="2">
  <advance width="1388"/>
  <unicode hex="043C"/>
  <outline>
    <contour>
      <point x="1090" y="0" type="line"/>
      <point x="962" y="0" type="line"/>
      <point x="1154" y="832" type="line"/>
      <point x="632" y="0" type="line"/>
      <point x="532" y="0" type="line"/>
      <point x="392" y="830" type="line"/>
      <point x="199" y="0" type="line"/>
      <point x="71" y="0" type="line"/>
      <point x="297" y="986" type="line"/>
      <point x="480" y="986" type="line"/>
      <point x="614" y="155" type="line"/>
      <point x="1130" y="984" type="line"/>
      <point x="1317" y="984" type="line"/>
    </contour>
  </outline>
</glyph>
<glyph name="afii10088" format="2">
  <advance width="1121"/>
  <unicode hex="0446"/>
  <outline>
    <contour>
      <point x="851" y="-304" type="line"/>
      <point x="759" y="-304" type="line"/>
      <point x="830" y="-23" type="line"/>
      <point x="805" y="-23"/>
      <point x="764" y="-1"/>
      <point x="735" y="36"/>
      <point x="719" y="88"/>
      <point x="719" y="118" type="qcurve" smooth="yes"/>
      <point x="719" y="134"/>
      <point x="727" y="169"/>
      <point x="733" y="189" type="qcurve"/>
      <point x="704" y="144"/>
      <point x="626" y="66"/>
      <point x="533" y="9"/>
      <point x="428" y="-23"/>
      <point x="374" y="-23" type="qcurve" smooth="yes"/>
      <point x="306" y="-23"/>
      <point x="205" y="15"/>
      <point x="139" y="87"/>
      <point x="107" y="190"/>
      <point x="107" y="255" type="qcurve" smooth="yes"/>
      <point x="107" y="261"/>
      <point x="107" y="267" type="qcurve" smooth="yes"/>
      <point x="107" y="296"/>
      <point x="116" y="364"/>
      <point x="125" y="404" type="qcurve" smooth="yes"/>
      <point x="259" y="986" type="line"/>
      <point x="386" y="986" type="line"/>
      <point x="249" y="387" type="line" smooth="yes"/>
      <point x="231" y="310"/>
      <point x="231" y="252" type="qcurve" smooth="yes"/>
      <point x="231" y="81"/>
      <point x="383" y="81" type="qcurve" smooth="yes"/>
      <point x="450" y="81"/>
      <point x="580" y="140"/>
      <point x="688" y="236"/>
      <point x="767" y="357"/>
      <point x="782" y="420" type="qcurve" smooth="yes"/>
      <point x="815" y="563"/>
      <point x="880" y="844"/>
      <point x="912" y="986" type="qcurve"/>
      <point x="1040" y="986" type="line"/>
      <point x="952" y="606" type="line"/>
      <point x="929" y="503"/>
      <point x="881" y="300"/>
      <point x="857" y="197" type="qcurve" smooth="yes"/>
      <point x="851" y="171"/>
      <point x="851" y="151" type="qcurve" smooth="yes"/>
      <point x="851" y="99"/>
      <point x="909" y="51"/>
      <point x="962" y="51" type="qcurve"/>
    </contour>
  </outline>
</glyph>
<glyph name="afii10089" format="2">
  <advance width="1068"/>
  <unicode hex="0447"/>
  <outline>
    <contour>
      <point x="643" y="0" type="line"/>
      <point x="746" y="441" type="line"/>
      <point x="721" y="402"/>
      <point x="643" y="329"/>
      <point x="548" y="274"/>
      <point x="444" y="241"/>
      <point x="393" y="241" type="qcurve" smooth="yes"/>
      <point x="259" y="241"/>
      <point x="125" y="384"/>
      <point x="125" y="518" type="qcurve" smooth="yes"/>
      <point x="125" y="587"/>
      <point x="143" y="667" type="qcurve" smooth="yes"/>
      <point x="177" y="816" type="line" smooth="yes"/>
      <point x="187" y="859"/>
      <point x="206" y="944"/>
      <point x="217" y="986" type="qcurve"/>
      <point x="343" y="986" type="line"/>
      <point x="267" y="651" type="line"/>
      <point x="249" y="568"/>
      <point x="249" y="516" type="qcurve" smooth="yes"/>
      <point x="249" y="344"/>
      <point x="401" y="344" type="qcurve" smooth="yes"/>
      <point x="456" y="344"/>
      <point x="580" y="393"/>
      <point x="693" y="483"/>
      <point x="781" y="610"/>
      <point x="801" y="687" type="qcurve"/>
      <point x="818" y="762"/>
      <point x="852" y="910"/>
      <point x="870" y="986" type="qcurve"/>
      <point x="998" y="986" type="line"/>
      <point x="940" y="738"/>
      <point x="827" y="248"/>
      <point x="770" y="0" type="qcurve"/>
    </contour>
  </outline>
</glyph>
<glyph name="afii10090" format="2">
  <advance width="1719"/>
  <unicode hex="0448"/>
  <outline>
    <contour>
      <point x="1026" y="-18" type="qcurve" smooth="yes"/>
      <point x="913" y="-18"/>
      <point x="771" y="90"/>
      <point x="760" y="196" type="qcurve"/>
      <point x="688" y="84"/>
      <point x="521" y="-16"/>
      <point x="415" y="-16" type="qcurve" smooth="yes"/>
      <point x="278" y="-16"/>
      <point x="144" y="123"/>
      <point x="144" y="255" type="qcurve" smooth="yes"/>
      <point x="144" y="322"/>
      <point x="160" y="390" type="qcurve" smooth="yes"/>
      <point x="298" y="986" type="line"/>
      <point x="425" y="986" type="line"/>
      <point x="288" y="393" type="line" smooth="yes"/>
      <point x="272" y="325"/>
      <point x="272" y="263" type="qcurve" smooth="yes"/>
      <point x="272" y="85"/>
      <point x="427" y="85" type="qcurve" smooth="yes"/>
      <point x="429" y="85"/>
      <point x="431" y="85" type="qcurve" smooth="yes"/>
      <point x="490" y="85"/>
      <point x="602" y="140"/>
      <point x="697" y="235"/>
      <point x="766" y="359"/>
      <point x="781" y="426" type="qcurve" smooth="yes"/>
      <point x="797" y="497"/>
      <point x="813" y="567" type="qcurve" smooth="yes"/>
      <point x="878" y="846" type="line" smooth="yes"/>
      <point x="894" y="916"/>
      <point x="910" y="986" type="qcurve"/>
      <point x="1038" y="986" type="line"/>
      <point x="1001" y="825"/>
      <point x="932" y="528"/>
      <point x="900" y="389" type="qcurve" smooth="yes"/>
      <point x="891" y="351"/>
      <point x="883" y="286"/>
      <point x="883" y="257" type="qcurve" smooth="yes"/>
      <point x="883" y="85"/>
      <point x="1038" y="85" type="qcurve" smooth="yes"/>
      <point x="1099" y="85"/>
      <point x="1213" y="140"/>
      <point x="1307" y="235"/>
      <point x="1376" y="359"/>
      <point x="1391" y="427" type="qcurve"/>
      <point x="1521" y="986" type="line"/>
      <point x="1648" y="986" type="line"/>
      <point x="1591" y="738"/>
      <point x="1478" y="248"/>
      <point x="1422" y="0" type="qcurve"/>
      <point x="1294" y="0" type="line"/>
      <point x="1339" y="186" type="line"/>
      <point x="1282" y="88"/>
      <point x="1116" y="-18"/>
    </contour>
  </outline>
</glyph>
<glyph name="afii10091" format="2">
  <advance width="1694"/>
  <unicode hex="0449"/>
  <outline>
    <contour>
      <point x="1424" y="-304" type="line"/>
      <point x="1330" y="-304" type="line"/>
      <point x="1402" y="-23" type="line"/>
      <point x="1378" y="-23"/>
      <point x="1337" y="0"/>
      <point x="1308" y="41"/>
      <point x="1292" y="95"/>
      <point x="1292" y="125" type="qcurve" smooth="yes"/>
      <point x="1292" y="141"/>
      <point x="1299" y="175"/>
      <point x="1304" y="195" type="qcurve"/>
      <point x="1246" y="90"/>
      <point x="1084" y="-18"/>
      <point x="989" y="-18" type="qcurve" smooth="yes"/>
      <point x="877" y="-18"/>
      <point x="734" y="90"/>
      <point x="723" y="196" type="qcurve"/>
      <point x="650" y="84"/>
      <point x="482" y="-16"/>
      <point x="379" y="-16" type="qcurve" smooth="yes"/>
      <point x="241" y="-16"/>
      <point x="107" y="123"/>
      <point x="107" y="255" type="qcurve" smooth="yes"/>
      <point x="107" y="320"/>
      <point x="123" y="390" type="qcurve" smooth="yes"/>
      <point x="261" y="986" type="line"/>
      <point x="388" y="986" type="line"/>
      <point x="251" y="393" type="line"/>
      <point x="235" y="328"/>
      <point x="235" y="263" type="qcurve" smooth="yes"/>
      <point x="235" y="85"/>
      <point x="391" y="85" type="qcurve" smooth="yes"/>
      <point x="393" y="85"/>
      <point x="395" y="85" type="qcurve" smooth="yes"/>
      <point x="454" y="85"/>
      <point x="566" y="141"/>
      <point x="660" y="236"/>
      <point x="729" y="360"/>
      <point x="745" y="427" type="qcurve" smooth="yes"/>
      <point x="786" y="605"/>
      <point x="850" y="883"/>
      <point x="874" y="986" type="qcurve"/>
      <point x="1001" y="986" type="line"/>
      <point x="863" y="389" type="line"/>
      <point x="846" y="312"/>
      <point x="846" y="257" type="qcurve" smooth="yes"/>
      <point x="846" y="85"/>
      <point x="1001" y="85" type="qcurve" smooth="yes"/>
      <point x="1003" y="85"/>
      <point x="1005" y="85" type="qcurve" smooth="yes"/>
      <point x="1064" y="85"/>
      <point x="1176" y="140"/>
      <point x="1270" y="235"/>
      <point x="1339" y="359"/>
      <point x="1355" y="427" type="qcurve" smooth="yes"/>
      <point x="1396" y="605"/>
      <point x="1460" y="883"/>
      <point x="1484" y="986" type="qcurve"/>
      <point x="1611" y="986" type="line"/>
      <point x="1430" y="197" type="line"/>
      <point x="1426" y="183"/>
      <point x="1424" y="160"/>
      <point x="1424" y="150" type="qcurve" smooth="yes"/>
      <point x="1424" y="97"/>
      <point x="1483" y="51"/>
      <point x="1532" y="51" type="qcurve"/>
    </contour>
  </outline>
</glyph>
<glyph name="afii10093" format="2">
  <advance width="1393"/>
  <unicode hex="044B"/>
  <outline>
    <contour>
      <point x="484" y="-20" type="qcurve" smooth="yes"/>
      <point x="413" y="-20"/>
      <point x="291" y="17"/>
      <point x="202" y="89"/>
      <point x="151" y="195"/>
      <point x="151" y="264" type="qcurve" smooth="yes"/>
      <point x="151" y="301"/>
      <point x="167" y="384"/>
      <point x="178" y="428" type="qcurve"/>
      <point x="306" y="986" type="line"/>
      <point x="435" y="986" type="line"/>
      <point x="352" y="645" type="line"/>
      <point x="407" y="717"/>
      <point x="561" y="795"/>
      <point x="650" y="795" type="qcurve" smooth="yes"/>
      <point x="724" y="795"/>
      <point x="851" y="754"/>
      <point x="945" y="676"/>
      <point x="998" y="561"/>
      <point x="998" y="487" type="qcurve" smooth="yes"/>
      <point x="998" y="414"/>
      <point x="953" y="270"/>
      <point x="872" y="146"/>
      <point x="759" y="48"/>
      <point x="692" y="21" type="qcurve" smooth="yes"/>
      <point x="641" y="1"/>
      <point x="542" y="-20"/>
      <point x="493" y="-20" type="qcurve" smooth="yes"/>
      <point x="489" y="-20"/>
    </contour>
    <contour>
      <point x="1182" y="0" type="line"/>
      <point x="1056" y="0" type="line"/>
      <point x="1082" y="116"/>
      <point x="1135" y="347"/>
      <point x="1162" y="465" type="qcurve" smooth="yes"/>
      <point x="1282" y="986" type="line"/>
      <point x="1409" y="986" type="line"/>
    </contour>
    <contour>
      <point x="489" y="92" type="qcurve" smooth="yes"/>
      <point x="559" y="92"/>
      <point x="691" y="153"/>
      <point x="793" y="258"/>
      <point x="854" y="399"/>
      <point x="854" y="479" type="qcurve" smooth="yes"/>
      <point x="854" y="524"/>
      <point x="826" y="599"/>
      <point x="773" y="652"/>
      <point x="695" y="682"/>
      <point x="646" y="682" type="qcurve" smooth="yes"/>
      <point x="568" y="682"/>
      <point x="434" y="614"/>
      <point x="337" y="505"/>
      <point x="282" y="366"/>
      <point x="282" y="296" type="qcurve" smooth="yes"/>
      <point x="282" y="201"/>
      <point x="389" y="92"/>
    </contour>
  </outline>
</glyph>
<glyph name="afii10094" format="2">
  <advance width="1100"/>
  <unicode hex="044C"/>
  <outline>
    <contour>
      <point x="466" y="-20" type="qcurve" smooth="yes"/>
      <point x="397" y="-20"/>
      <point x="275" y="16"/>
      <point x="185" y="88"/>
      <point x="133" y="194"/>
      <point x="133" y="265" type="qcurve" smooth="yes"/>
      <point x="133" y="287"/>
      <point x="138" y="334"/>
      <point x="144" y="358" type="qcurve"/>
      <point x="169" y="473"/>
      <point x="240" y="785"/>
      <point x="288" y="986" type="qcurve"/>
      <point x="416" y="986" type="line"/>
      <point x="334" y="645" type="line"/>
      <point x="390" y="717"/>
      <point x="543" y="795"/>
      <point x="632" y="795" type="qcurve" smooth="yes"/>
      <point x="705" y="795"/>
      <point x="833" y="754"/>
      <point x="926" y="676"/>
      <point x="980" y="561"/>
      <point x="980" y="487" type="qcurve" smooth="yes"/>
      <point x="980" y="370"/>
      <point x="891" y="183"/>
      <point x="746" y="51"/>
      <point x="562" y="-20"/>
    </contour>
    <contour>
      <point x="471" y="92" type="qcurve" smooth="yes"/>
      <point x="540" y="92"/>
      <point x="671" y="153"/>
      <point x="774" y="258"/>
      <point x="837" y="398"/>
      <point x="837" y="478" type="qcurve" smooth="yes"/>
      <point x="837" y="523"/>
      <point x="809" y="598"/>
      <point x="756" y="652"/>
      <point x="678" y="682"/>
      <point x="628" y="682" type="qcurve" smooth="yes"/>
      <point x="554" y="682"/>
      <point x="422" y="618"/>
      <point x="322" y="511"/>
      <point x="264" y="372"/>
      <point x="264" y="297" type="qcurve" smooth="yes"/>
      <point x="264" y="202"/>
      <point x="371" y="92"/>
    </contour>
  </outline>
</glyph>
<glyph name="afii10095" format="2">
  <advance width="956"/>
  <unicode hex="044D"/>
  <outline>
    <contour>
      <point x="333" y="-20" type="qcurve" smooth="yes"/>
      <point x="196" y="-20"/>
      <point x="37" y="116"/>
      <point x="23" y="240" type="qcurve"/>
      <point x="135" y="277" type="line"/>
      <point x="136" y="233"/>
      <point x="166" y="162"/>
      <point x="219" y="111"/>
      <point x="292" y="83"/>
      <point x="336" y="83" type="qcurve" smooth="yes"/>
      <point x="401" y="83"/>
      <point x="518" y="136"/>
      <point x="616" y="231"/>
      <point x="693" y="362"/>
      <point x="718" y="440" type="qcurve"/>
      <point x="611" y="438"/>
      <point x="407" y="436"/>
      <point x="306" y="435" type="qcurve"/>
      <point x="329" y="528" type="line"/>
      <point x="524" y="531" type="line" smooth="yes"/>
      <point x="578" y="532"/>
      <point x="685" y="532"/>
      <point x="740" y="534" type="qcurve"/>
      <point x="745" y="567"/>
      <point x="750" y="624"/>
      <point x="750" y="647" type="qcurve" smooth="yes"/>
      <point x="750" y="705"/>
      <point x="725" y="798"/>
      <point x="675" y="864"/>
      <point x="599" y="899"/>
      <point x="547" y="899" type="qcurve" smooth="yes"/>
      <point x="498" y="899"/>
      <point x="404" y="867"/>
      <point x="322" y="811"/>
      <point x="256" y="736"/>
      <point x="235" y="693" type="qcurve"/>
      <point x="208" y="708"/>
      <point x="151" y="741"/>
      <point x="126" y="758" type="qcurve"/>
      <point x="201" y="873"/>
      <point x="416" y="1003"/>
      <point x="550" y="1003" type="qcurve" smooth="yes"/>
      <point x="630" y="1003"/>
      <point x="751" y="952"/>
      <point x="833" y="859"/>
      <point x="875" y="728"/>
      <point x="875" y="647" type="qcurve" smooth="yes"/>
      <point x="875" y="574"/>
      <point x="843" y="419"/>
      <point x="781" y="271"/>
      <point x="688" y="138"/>
      <point x="568" y="39"/>
      <point x="420" y="-20"/>
    </contour>
  </outline>
</glyph>
<glyph name="afii10096" format="2">
  <advance width="1413"/>
  <unicode hex="044E"/>
  <outline>
    <contour>
      <point x="753" y="-20" type="qcurve" smooth="yes"/>
      <point x="667" y="-20"/>
      <point x="530" y="36"/>
      <point x="436" y="137"/>
      <point x="386" y="277"/>
      <point x="386" y="361" type="qcurve" smooth="yes"/>
      <point x="386" y="395"/>
      <point x="394" y="463"/>
      <point x="403" y="498" type="qcurve"/>
      <point x="311" y="491" type="line"/>
      <point x="199" y="0" type="line"/>
      <point x="71" y="0" type="line"/>
      <point x="109" y="171"/>
      <point x="188" y="508"/>
      <point x="227" y="679" type="qcurve" smooth="yes"/>
      <point x="392" y="1396" type="line"/>
      <point x="520" y="1396" type="line"/>
      <point x="334" y="592" type="line"/>
      <point x="434" y="599" type="line"/>
      <point x="469" y="686"/>
      <point x="579" y="833"/>
      <point x="718" y="940"/>
      <point x="880" y="999"/>
      <point x="966" y="999" type="qcurve" smooth="yes"/>
      <point x="1049" y="999"/>
      <point x="1183" y="942"/>
      <point x="1278" y="840"/>
      <point x="1329" y="699"/>
      <point x="1329" y="615" type="qcurve" smooth="yes"/>
      <point x="1329" y="539"/>
      <point x="1288" y="385"/>
      <point x="1214" y="244"/>
      <point x="1109" y="122"/>
      <point x="981" y="32"/>
      <point x="833" y="-20"/>
    </contour>
    <contour>
      <point x="758" y="92" type="qcurve" smooth="yes"/>
      <point x="837" y="92"/>
      <point x="973" y="153"/>
      <point x="1080" y="261"/>
      <point x="1157" y="412"/>
      <point x="1178" y="502" type="qcurve"/>
      <point x="1186" y="542"/>
      <point x="1195" y="610"/>
      <point x="1195" y="640" type="qcurve" smooth="yes"/>
      <point x="1195" y="758"/>
      <point x="1079" y="886"/>
      <point x="961" y="886" type="qcurve" smooth="yes"/>
      <point x="879" y="886"/>
      <point x="742" y="824"/>
      <point x="636" y="714"/>
      <point x="560" y="564"/>
      <point x="540" y="477" type="qcurve" smooth="yes"/>
      <point x="531" y="440"/>
      <point x="523" y="371"/>
      <point x="523" y="338" type="qcurve" smooth="yes"/>
      <point x="523" y="220"/>
      <point x="638" y="92"/>
    </contour>
  </outline>
</glyph>
<glyph name="afii10097" format="2">
  <advance width="969"/>
  <unicode hex="044F"/>
  <outline>
    <contour>
      <point x="671" y="0" type="line"/>
      <point x="544" y="0" type="line"/>
      <point x="564" y="88"/>
      <point x="617" y="319"/>
      <point x="651" y="464" type="qcurve"/>
      <point x="504" y="464" type="line" smooth="yes"/>
      <point x="448" y="464"/>
      <point x="366" y="406"/>
      <point x="283" y="291"/>
      <point x="185" y="117"/>
      <point x="115" y="0" type="qcurve"/>
      <point x="-32" y="0" type="line"/>
      <point x="182" y="352" type="line"/>
      <point x="231" y="430"/>
      <point x="324" y="505"/>
      <point x="386" y="505" type="qcurve"/>
      <point x="279" y="523"/>
      <point x="182" y="608"/>
      <point x="182" y="691" type="qcurve" smooth="yes"/>
      <point x="182" y="748"/>
      <point x="224" y="854"/>
      <point x="312" y="936"/>
      <point x="447" y="986"/>
      <point x="540" y="986" type="qcurve" smooth="yes"/>
      <point x="898" y="986" type="line"/>
      <point x="858" y="810"/>
      <point x="818" y="635" type="qcurve"/>
      <point x="763" y="403" type="line"/>
      <point x="723" y="228"/>
      <point x="683" y="52" type="qcurve" smooth="yes"/>
    </contour>
    <contour>
      <point x="677" y="577" type="line"/>
      <point x="748" y="889" type="line"/>
      <point x="543" y="889" type="line" smooth="yes"/>
      <point x="495" y="889"/>
      <point x="412" y="863"/>
      <point x="351" y="812"/>
      <point x="317" y="737"/>
      <point x="317" y="687" type="qcurve" smooth="yes"/>
      <point x="317" y="630"/>
      <point x="404" y="577"/>
      <point x="496" y="577" type="qcurve" smooth="yes"/>
    </contour>
  </outline>
</glyph>
<glyph name="afii10100" format="2">
  <advance width="754"/>
  <unicode hex="0453"/>
  <outline>
    <contour>
      <point x="576" y="1113" type="line"/>
      <point x="471" y="1113" type="line"/>
      <point x="743" y="1396" type="line"/>
      <point x="895" y="1396" type="line"/>
    </contour>
    <contour>
      <point x="186" y="0" type="line"/>
      <point x="60" y="0" type="line"/>
      <point x="288" y="986" type="line"/>
      <point x="833" y="986" type="line"/>
      <point x="810" y="885" type="line"/>
      <point x="390" y="885" type="line"/>
    </contour>
  </outline>
</glyph>
<glyph name="afii10106" format="2">
  <advance width="1587"/>
  <unicode hex="0459"/>
  <outline>
    <contour>
      <point x="106" y="-22" type="qcurve" smooth="yes"/>
      <point x="81" y="-22"/>
      <point x="44" y="-16"/>
      <point x="13" y="-5"/>
      <point x="-18" y="10"/>
      <point x="-37" y="20" type="qcurve"/>
      <point x="17" y="113" type="line"/>
      <point x="20" y="110"/>
      <point x="34" y="101"/>
      <point x="51" y="92"/>
      <point x="69" y="85"/>
      <point x="76" y="84" type="qcurve" smooth="yes"/>
      <point x="85" y="82"/>
      <point x="94" y="82" type="qcurve" smooth="yes"/>
      <point x="100" y="82"/>
      <point x="106" y="83" type="qcurve" smooth="yes"/>
      <point x="131" y="86"/>
      <point x="187" y="149"/>
      <point x="247" y="277"/>
      <point x="311" y="477"/>
      <point x="344" y="618" type="qcurve" smooth="yes"/>
      <point x="429" y="986" type="line"/>
      <point x="1024" y="986" type="line"/>
      <point x="947" y="648" type="line"/>
      <point x="1136" y="648" type="line" smooth="yes"/>
      <point x="1293" y="648"/>
      <point x="1451" y="544"/>
      <point x="1451" y="421" type="qcurve" smooth="yes"/>
      <point x="1451" y="332"/>
      <point x="1387" y="179"/>
      <point x="1268" y="65"/>
      <point x="1100" y="0"/>
      <point x="996" y="0" type="qcurve" smooth="yes"/>
      <point x="672" y="0" type="line"/>
      <point x="876" y="885" type="line"/>
      <point x="531" y="885" type="line"/>
      <point x="466" y="605" type="line" smooth="yes"/>
      <point x="424" y="427"/>
      <point x="338" y="180"/>
      <point x="290" y="109" type="qcurve" smooth="yes"/>
      <point x="246" y="43"/>
      <point x="154" y="-22"/>
    </contour>
    <contour>
      <point x="1009" y="100" type="line" smooth="yes"/>
      <point x="1066" y="100"/>
      <point x="1163" y="130"/>
      <point x="1239" y="192"/>
      <point x="1290" y="287"/>
      <point x="1302" y="352" type="qcurve" smooth="yes"/>
      <point x="1308" y="383"/>
      <point x="1308" y="407" type="qcurve" smooth="yes"/>
      <point x="1308" y="482"/>
      <point x="1217" y="548"/>
      <point x="1123" y="548" type="qcurve" smooth="yes"/>
      <point x="923" y="548" type="line"/>
      <point x="820" y="100" type="line"/>
    </contour>
  </outline>
</glyph>
<glyph name="afii10107" format="2">
  <advance width="1637"/>
  <unicode hex="045A"/>
  <outline>
    <contour>
      <point x="1046" y="0" type="qcurve" smooth="yes"/>
      <point x="722" y="0" type="line"/>
      <point x="835" y="491" type="line"/>
      <point x="309" y="491" type="line"/>
      <point x="197" y="0" type="line"/>
      <point x="71" y="0" type="line"/>
      <point x="127" y="247"/>
      <point x="240" y="737"/>
      <point x="297" y="986" type="qcurve"/>
      <point x="422" y="986" type="line"/>
      <point x="332" y="593" type="line"/>
      <point x="857" y="593" type="line"/>
      <point x="948" y="986" type="line"/>
      <point x="1072" y="986" type="line"/>
      <point x="981" y="593" type="line"/>
      <point x="1174" y="593" type="line" smooth="yes"/>
      <point x="1252" y="593"/>
      <point x="1371" y="572"/>
      <point x="1452" y="524"/>
      <point x="1494" y="445"/>
      <point x="1494" y="387" type="qcurve" smooth="yes"/>
      <point x="1494" y="300"/>
      <point x="1430" y="158"/>
      <point x="1313" y="56"/>
      <point x="1148" y="0"/>
    </contour>
    <contour>
      <point x="1059" y="100" type="line" smooth="yes"/>
      <point x="1120" y="100"/>
      <point x="1217" y="124"/>
      <point x="1288" y="178"/>
      <point x="1335" y="266"/>
      <point x="1348" y="330" type="qcurve" smooth="yes"/>
      <point x="1353" y="358"/>
      <point x="1353" y="381" type="qcurve" smooth="yes"/>
      <point x="1353" y="434"/>
      <point x="1297" y="482"/>
      <point x="1208" y="495"/>
      <point x="1157" y="495" type="qcurve" smooth="yes"/>
      <point x="1140" y="495"/>
      <point x="1049" y="492"/>
      <point x="959" y="492" type="qcurve"/>
      <point x="868" y="100" type="line"/>
    </contour>
  </outline>
</glyph>
<glyph name="afii10108" format="2">
  <advance width="1107"/>
  <unicode hex="045B"/>
  <outline>
    <contour>
      <point x="841" y="0" type="line"/>
      <point x="714" y="0" type="line"/>
      <point x="851" y="595" type="line"/>
      <point x="867" y="668"/>
      <point x="867" y="719" type="qcurve" smooth="yes"/>
      <point x="867" y="884"/>
      <point x="712" y="884" type="qcurve" smooth="yes"/>
      <point x="645" y="884"/>
      <point x="514" y="825"/>
      <point x="403" y="728"/>
      <point x="324" y="601"/>
      <point x="310" y="534" type="qcurve"/>
      <point x="279" y="400"/>
      <point x="216" y="133"/>
      <point x="186" y="0" type="qcurve"/>
      <point x="63" y="0" type="line"/>
      <point x="321" y="1120" type="line"/>
      <point x="134" y="1120" type="line"/>
      <point x="139" y="1144"/>
      <point x="151" y="1198"/>
      <point x="158" y="1223" type="qcurve"/>
      <point x="345" y="1223" type="line"/>
      <point x="385" y="1396" type="line"/>
      <point x="508" y="1396" type="line"/>
      <point x="468" y="1223" type="line"/>
      <point x="784" y="1223" type="line"/>
      <point x="774" y="1182" type="line" smooth="yes"/>
      <point x="770" y="1166"/>
      <point x="763" y="1135"/>
      <point x="759" y="1120" type="qcurve"/>
      <point x="443" y="1120" type="line"/>
      <point x="434" y="1082"/>
      <point x="416" y="1008"/>
      <point x="408" y="971" type="qcurve" smooth="yes"/>
      <point x="372" y="815" type="line"/>
      <point x="408" y="860"/>
      <point x="494" y="930"/>
      <point x="589" y="978"/>
      <point x="689" y="1003"/>
      <point x="737" y="1003" type="qcurve" smooth="yes"/>
      <point x="866" y="1003"/>
      <point x="997" y="862"/>
      <point x="997" y="736" type="qcurve" smooth="yes"/>
      <point x="997" y="671"/>
      <point x="981" y="606" type="qcurve"/>
    </contour>
  </outline>
</glyph>
<glyph name="uni045D" format="2">
  <advance width="1143"/>
  <unicode hex="045D"/>
  <outline>
    <contour>
      <point x="784" y="1121" type="line"/>
      <point x="657" y="1121" type="line"/>
      <point x="498" y="1396" type="line"/>
      <point x="642" y="1396" type="line"/>
    </contour>
    <contour>
      <point x="411" y="-23" type="qcurve" smooth="yes"/>
      <point x="277" y="-23"/>
      <point x="145" y="122"/>
      <point x="145" y="253" type="qcurve" smooth="yes"/>
      <point x="145" y="329"/>
      <point x="164" y="404" type="qcurve"/>
      <point x="298" y="986" type="line"/>
      <point x="423" y="986" type="line"/>
      <point x="286" y="387" type="line" smooth="yes"/>
      <point x="277" y="347"/>
      <point x="269" y="280"/>
      <point x="269" y="252" type="qcurve" smooth="yes"/>
      <point x="269" y="81"/>
      <point x="420" y="81" type="qcurve" smooth="yes"/>
      <point x="485" y="81"/>
      <point x="615" y="138"/>
      <point x="725" y="234"/>
      <point x="804" y="357"/>
      <point x="819" y="423" type="qcurve" smooth="yes"/>
      <point x="836" y="494"/>
      <point x="852" y="564" type="qcurve" smooth="yes"/>
      <point x="916" y="845" type="line"/>
      <point x="933" y="916"/>
      <point x="949" y="986" type="qcurve"/>
      <point x="1072" y="986" type="line"/>
      <point x="962" y="507" type="line"/>
      <point x="948" y="443"/>
      <point x="933" y="380" type="qcurve" smooth="yes"/>
      <point x="846" y="0" type="line"/>
      <point x="722" y="0" type="line"/>
      <point x="764" y="178" type="line"/>
      <point x="740" y="139"/>
      <point x="662" y="66"/>
      <point x="568" y="10"/>
      <point x="463" y="-23"/>
    </contour>
  </outline>
</glyph>
<glyph name="afii10193" format="2">
  <advance width="1143"/>
  <unicode hex="045F"/>
  <outline>
    <contour>
      <point x="448" y="-304" type="line"/>
      <point x="325" y="-304" type="line"/>
      <point x="395" y="0" type="line"/>
      <point x="71" y="0" type="line"/>
      <point x="297" y="986" type="line"/>
      <point x="423" y="986" type="line"/>
      <point x="218" y="103" type="line"/>
      <point x="745" y="103" type="line"/>
      <point x="948" y="986" type="line"/>
      <point x="1072" y="986" type="line"/>
      <point x="845" y="0" type="line"/>
      <point x="518" y="0" type="line"/>
    </contour>
  </outline>
</glyph>
<glyph name="afii10194" format="2">
  <advance width="974"/>
  <unicode hex="0463"/>
  <outline>
    <contour>
      <point x="381" y="0" type="qcurve" smooth="yes"/>
      <point x="59" y="0" type="line"/>
      <point x="124" y="284"/>
      <point x="255" y="850"/>
      <point x="321" y="1139" type="qcurve"/>
      <point x="123" y="1139" type="line"/>
      <point x="129" y="1165"/>
      <point x="141" y="1215"/>
      <point x="146" y="1241" type="qcurve"/>
      <point x="344" y="1241" type="line"/>
      <point x="381" y="1396" type="line"/>
      <point x="504" y="1396" type="line"/>
      <point x="484" y="1309" type="line" smooth="yes"/>
      <point x="480" y="1292"/>
      <point x="472" y="1259"/>
      <point x="468" y="1241" type="qcurve"/>
      <point x="682" y="1241" type="line"/>
      <point x="668" y="1181" type="line" smooth="yes"/>
      <point x="665" y="1170"/>
      <point x="660" y="1149"/>
      <point x="658" y="1139" type="qcurve"/>
      <point x="444" y="1139" type="line"/>
      <point x="333" y="648" type="line"/>
      <point x="499" y="648" type="line" smooth="yes"/>
      <point x="581" y="648"/>
      <point x="707" y="627"/>
      <point x="793" y="575"/>
      <point x="838" y="488"/>
      <point x="838" y="422" type="qcurve" smooth="yes"/>
      <point x="838" y="340"/>
      <point x="779" y="188"/>
      <point x="663" y="71"/>
      <point x="493" y="0"/>
    </contour>
    <contour>
      <point x="394" y="100" type="line" smooth="yes"/>
      <point x="512" y="100"/>
      <point x="666" y="222"/>
      <point x="689" y="352" type="qcurve" smooth="yes"/>
      <point x="695" y="383"/>
      <point x="695" y="406" type="qcurve" smooth="yes"/>
      <point x="695" y="483"/>
      <point x="597" y="548"/>
      <point x="508" y="548" type="qcurve" smooth="yes"/>
      <point x="308" y="548" type="line"/>
      <point x="281" y="430"/>
      <point x="229" y="206"/>
      <point x="206" y="100" type="qcurve"/>
    </contour>
  </outline>
</glyph>
<glyph name="Eiotifiedcyrillic" format="2">
  <advance width="1775"/>
  <unicode hex="0464"/>
  <outline>
    <contour>
      <point x="1012" y="-20" type="qcurve" smooth="yes"/>
      <point x="889" y="-20"/>
      <point x="704" y="50"/>
      <point x="581" y="179"/>
      <point x="520" y="362"/>
      <point x="520" y="476" type="qcurve" smooth="yes"/>
      <point x="520" y="517"/>
      <point x="528" y="602"/>
      <point x="537" y="648" type="qcurve"/>
      <point x="506" y="646"/>
      <point x="431" y="644"/>
      <point x="384" y="642" type="qcurve"/>
      <point x="237" y="0" type="line"/>
      <point x="103" y="0" type="line"/>
      <point x="185" y="351"/>
      <point x="345" y="1044"/>
      <point x="426" y="1396" type="qcurve"/>
      <point x="558" y="1396" type="line"/>
      <point x="412" y="753" type="line"/>
      <point x="560" y="760" type="line"/>
      <point x="599" y="898"/>
      <point x="735" y="1139"/>
      <point x="926" y="1317"/>
      <point x="1171" y="1419"/>
      <point x="1319" y="1419" type="qcurve" smooth="yes"/>
      <point x="1515" y="1419"/>
      <point x="1762" y="1232"/>
      <point x="1800" y="1049" type="qcurve"/>
      <point x="1768" y="1039"/>
      <point x="1703" y="1018"/>
      <point x="1671" y="1010" type="qcurve"/>
      <point x="1666" y="1082"/>
      <point x="1612" y="1189"/>
      <point x="1519" y="1261"/>
      <point x="1390" y="1296"/>
      <point x="1310" y="1296" type="qcurve" smooth="yes"/>
      <point x="1194" y="1296"/>
      <point x="998" y="1215"/>
      <point x="841" y="1069"/>
      <point x="727" y="868"/>
      <point x="694" y="748" type="qcurve"/>
      <point x="855" y="749"/>
      <point x="1171" y="751"/>
      <point x="1332" y="753" type="qcurve"/>
      <point x="1305" y="642" type="line"/>
      <point x="667" y="636" type="line"/>
      <point x="659" y="591"/>
      <point x="650" y="510"/>
      <point x="650" y="473" type="qcurve" smooth="yes"/>
      <point x="650" y="297"/>
      <point x="834" y="102"/>
      <point x="1018" y="102" type="qcurve" smooth="yes"/>
      <point x="1344" y="102"/>
      <point x="1526" y="404" type="qcurve"/>
      <point x="1643" y="340" type="line"/>
      <point x="1582" y="249"/>
      <point x="1439" y="114"/>
      <point x="1279" y="24"/>
      <point x="1104" y="-20"/>
    </contour>
  </outline>
</glyph>
<glyph name="eiotifiedcyrillic" format="2">
  <advance width="1311"/>
  <unicode hex="0465"/>
  <outline>
    <contour>
      <point x="761" y="-21" type="qcurve"/>
      <point x="678" y="-21"/>
      <point x="553" y="30"/>
      <point x="469" y="123"/>
      <point x="427" y="256"/>
      <point x="427" y="337" type="qcurve" smooth="yes"/>
      <point x="427" y="412"/>
      <point x="447" y="501" type="qcurve"/>
      <point x="429" y="499"/>
      <point x="394" y="499"/>
      <point x="377" y="498" type="qcurve" smooth="yes"/>
      <point x="309" y="495" type="line"/>
      <point x="197" y="0" type="line"/>
      <point x="71" y="0" type="line"/>
      <point x="127" y="247"/>
      <point x="240" y="737"/>
      <point x="298" y="986" type="qcurve"/>
      <point x="423" y="986" type="line"/>
      <point x="333" y="596" type="line"/>
      <point x="352" y="597"/>
      <point x="370" y="598" type="qcurve" smooth="yes"/>
      <point x="442" y="601" type="line" smooth="yes"/>
      <point x="460" y="602"/>
      <point x="479" y="603" type="qcurve"/>
      <point x="512" y="690"/>
      <point x="609" y="837"/>
      <point x="734" y="944"/>
      <point x="885" y="1003"/>
      <point x="972" y="1003" type="qcurve" smooth="yes"/>
      <point x="1038" y="1003"/>
      <point x="1147" y="967"/>
      <point x="1230" y="899"/>
      <point x="1284" y="804"/>
      <point x="1296" y="746" type="qcurve"/>
      <point x="1171" y="706" type="line"/>
      <point x="1164" y="799"/>
      <point x="1055" y="899"/>
      <point x="968" y="899" type="qcurve" smooth="yes"/>
      <point x="923" y="899"/>
      <point x="837" y="870"/>
      <point x="759" y="820"/>
      <point x="690" y="753"/>
      <point x="662" y="716" type="qcurve" smooth="yes"/>
      <point x="609" y="645"/>
      <point x="599" y="590" type="qcurve"/>
      <point x="1010" y="597" type="line"/>
      <point x="987" y="503" type="line"/>
      <point x="579" y="496" type="line"/>
      <point x="567" y="448"/>
      <point x="556" y="363"/>
      <point x="556" y="322" type="qcurve" smooth="yes"/>
      <point x="556" y="267"/>
      <point x="579" y="179"/>
      <point x="629" y="117"/>
      <point x="705" y="83"/>
      <point x="758" y="83" type="qcurve" smooth="yes"/>
      <point x="806" y="83"/>
      <point x="898" y="114"/>
      <point x="979" y="170"/>
      <point x="1046" y="245"/>
      <point x="1070" y="289" type="qcurve"/>
      <point x="1166" y="228" type="line"/>
      <point x="1094" y="102"/>
      <point x="890" y="-17"/>
    </contour>
  </outline>
</glyph>
<glyph name="Yuslittlecyrillic" format="2">
  <advance width="1283"/>
  <unicode hex="0466"/>
  <outline>
    <contour>
      <point x="1095" y="0" type="line"/>
      <point x="953" y="0" type="line"/>
      <point x="874" y="659" type="line"/>
      <point x="747" y="659" type="line"/>
      <point x="596" y="0" type="line"/>
      <point x="464" y="0" type="line"/>
      <point x="615" y="659" type="line"/>
      <point x="494" y="659" type="line"/>
      <point x="109" y="0" type="line"/>
      <point x="-39" y="0" type="line"/>
      <point x="799" y="1396" type="line"/>
      <point x="903" y="1396" type="line"/>
    </contour>
    <contour>
      <point x="861" y="772" type="line"/>
      <point x="811" y="1201" type="line"/>
      <point x="559" y="772" type="line"/>
    </contour>
  </outline>
</glyph>
<glyph name="Yuslittleiotifiedcyrillic" format="2">
  <advance width="1642"/>
  <unicode hex="0468"/>
  <outline>
    <contour>
      <point x="1453" y="0" type="line"/>
      <point x="1312" y="0" type="line"/>
      <point x="1232" y="659" type="line"/>
      <point x="1105" y="659" type="line"/>
      <point x="954" y="0" type="line"/>
      <point x="823" y="0" type="line"/>
      <point x="973" y="659" type="line"/>
      <point x="852" y="659" type="line"/>
      <point x="467" y="0" type="line"/>
      <point x="319" y="0" type="line"/>
      <point x="704" y="642" type="line"/>
      <point x="384" y="642" type="line"/>
      <point x="237" y="0" type="line"/>
      <point x="103" y="0" type="line"/>
      <point x="426" y="1396" type="line"/>
      <point x="558" y="1396" type="line"/>
      <point x="411" y="753" type="line"/>
      <point x="772" y="753" type="line"/>
      <point x="1157" y="1396" type="line"/>
      <point x="1262" y="1396" type="line"/>
    </contour>
    <contour>
      <point x="1220" y="772" type="line"/>
      <point x="1170" y="1201" type="line"/>
      <point x="918" y="772" type="line"/>
    </contour>
  </outline>
</glyph>
<glyph name="Yusbigiotifiedcyrillic" format="2">
  <advance width="1869"/>
  <unicode hex="046C"/>
  <outline>
    <contour>
      <point x="1667" y="0" type="line"/>
      <point x="1531" y="0" type="line"/>
      <point x="1519" y="63"/>
      <point x="1497" y="190"/>
      <point x="1486" y="254" type="qcurve" smooth="yes"/>
      <point x="1441" y="509" type="line" smooth="yes"/>
      <point x="1439" y="518"/>
      <point x="1432" y="556"/>
      <point x="1427" y="569" type="qcurve" smooth="yes"/>
      <point x="1416" y="597"/>
      <point x="1367" y="634"/>
      <point x="1325" y="634" type="qcurve" smooth="yes"/>
      <point x="1212" y="634" type="line"/>
      <point x="1066" y="0" type="line"/>
      <point x="930" y="0" type="line"/>
      <point x="1076" y="634" type="line"/>
      <point x="973" y="634" type="line" smooth="yes"/>
      <point x="943" y="634"/>
      <point x="893" y="615"/>
      <point x="852" y="583"/>
      <point x="818" y="542"/>
      <point x="805" y="520" type="qcurve"/>
      <point x="724" y="396"/>
      <point x="557" y="137"/>
      <point x="469" y="0" type="qcurve"/>
      <point x="325" y="0" type="line"/>
      <point x="461" y="215"/>
      <point x="649" y="510"/>
      <point x="702" y="592" type="qcurve"/>
      <point x="716" y="609"/>
      <point x="738" y="634"/>
      <point x="746" y="643" type="qcurve"/>
      <point x="677" y="642"/>
      <point x="498" y="641"/>
      <point x="384" y="639" type="qcurve"/>
      <point x="237" y="0" type="line"/>
      <point x="103" y="0" type="line"/>
      <point x="184" y="351"/>
      <point x="344" y="1044"/>
      <point x="426" y="1396" type="qcurve"/>
      <point x="558" y="1396" type="line"/>
      <point x="410" y="746" type="line"/>
      <point x="1048" y="746" type="line"/>
      <point x="979" y="883"/>
      <point x="847" y="1147"/>
      <point x="779" y="1284" type="qcurve"/>
      <point x="802" y="1396" type="line"/>
      <point x="1835" y="1396" type="line"/>
      <point x="1811" y="1285" type="line"/>
      <point x="1285" y="745" type="line"/>
      <point x="1352" y="745"/>
      <point x="1448" y="725"/>
      <point x="1513" y="681"/>
      <point x="1551" y="614"/>
      <point x="1560" y="568" type="qcurve"/>
      <point x="1583" y="434"/>
      <point x="1635" y="173"/>
      <point x="1659" y="41" type="qcurve" smooth="yes"/>
    </contour>
    <contour>
      <point x="1174" y="790" type="line"/>
      <point x="1414" y="1037" type="line" smooth="yes"/>
      <point x="1474" y="1099"/>
      <point x="1593" y="1222"/>
      <point x="1655" y="1286" type="qcurve"/>
      <point x="926" y="1286" type="line"/>
    </contour>
  </outline>
</glyph>
<glyph name="afii10148" format="2">
  <advance width="1264"/>
  <unicode hex="0474"/>
  <outline>
    <contour>
      <point x="502" y="0" type="line"/>
      <point x="377" y="0" type="line"/>
      <point x="246" y="1396" type="line"/>
      <point x="380" y="1396" type="line"/>
      <point x="471" y="161" type="line"/>
      <point x="968" y="992" type="line"/>
      <point x="1069" y="1164"/>
      <point x="1296" y="1364"/>
      <point x="1433" y="1398" type="qcurve"/>
      <point x="1413" y="1264" type="line"/>
      <point x="1340" y="1232"/>
      <point x="1213" y="1139"/>
      <point x="1164" y="1079" type="qcurve" smooth="yes"/>
      <point x="1154" y="1067"/>
      <point x="1140" y="1044"/>
      <point x="1132" y="1033" type="qcurve"/>
      <point x="1081" y="951" type="line" smooth="yes"/>
      <point x="1040" y="885"/>
      <point x="903" y="656"/>
      <point x="803" y="492" type="qcurve" smooth="yes"/>
    </contour>
  </outline>
</glyph>
